<?xml version="1.0" standalone="no"?>
<!DOCTYPE svg PUBLIC "-//W3C//DTD SVG 20010904//EN"
 "http://www.w3.org/TR/2001/REC-SVG-20010904/DTD/svg10.dtd">
<svg version="1.0" xmlns="http://www.w3.org/2000/svg"
 width="2481.000000pt" height="3508.000000pt" viewBox="0 0 2481.000000 3508.000000"
 preserveAspectRatio="xMidYMid meet">

<g transform="translate(0.000000,3508.000000) scale(0.100000,-0.100000)"
fill="#000000" stroke="none">
<path d="M10615 29619 c-729 -51 -1418 -235 -2071 -553 -740 -361 -1343 -830
-1894 -1471 -556 -648 -988 -1480 -1205 -2320 -85 -327 -131 -595 -165 -970
-11 -120 -29 -288 -40 -374 -22 -174 -46 -436 -56 -613 l-7 -117 -158 -67
c-88 -37 -159 -70 -159 -73 0 -3 4 -12 8 -19 7 -10 42 2 150 48 77 33 145 60
151 60 7 0 9 -17 6 -42 -11 -105 -14 -620 -5 -783 61 -1062 459 -2196 1077
-3063 247 -347 3211 -4324 3251 -4362 20 -19 106 -139 -623 870 -719 994
-1613 2225 -2178 2997 -439 600 -474 651 -606 870 -441 734 -729 1593 -823
2458 -16 145 -16 1155 0 1250 8 54 10 56 11 20 4 -144 64 -540 117 -780 88
-397 267 -914 421 -1218 13 -27 23 -50 21 -52 -2 -2 -50 5 -108 16 -109 20
-130 19 -130 -4 0 -10 36 -20 127 -36 70 -12 131 -25 135 -27 5 -3 24 -36 43
-74 198 -394 520 -849 873 -1237 79 -87 122 -144 148 -195 56 -112 120 -221
209 -358 45 -69 455 -717 910 -1440 456 -723 1070 -1695 1365 -2160 614 -967
684 -1079 679 -1084 -5 -5 -340 -29 -344 -24 -1 1 -62 100 -135 218 -354 576
-714 1117 -1079 1625 -152 212 -422 575 -427 575 -2 0 46 -82 107 -182 438
-720 955 -1486 1430 -2120 81 -109 87 -118 66 -123 -12 -3 -31 -4 -42 -4 -11
1 -78 -6 -150 -16 -71 -9 -179 -19 -240 -22 -86 -4 -115 -10 -134 -24 -13 -11
-30 -19 -39 -19 -36 0 -257 -56 -381 -96 -318 -102 -451 -230 -655 -627 -184
-360 -309 -756 -411 -1296 -87 -466 -115 -727 -114 -1041 2 -274 13 -328 22
-105 11 282 49 549 138 985 148 715 332 1211 605 1626 146 223 267 295 659
393 155 39 360 76 558 101 152 19 215 20 1685 20 1658 0 1570 3 1912 -56 402
-69 617 -144 731 -257 160 -157 318 -436 452 -798 245 -660 382 -1332 404
-1981 3 -104 10 -188 15 -188 10 0 10 58 -2 305 -35 700 -161 1319 -397 1955
-83 224 -171 403 -272 557 -168 254 -285 331 -628 417 -186 46 -496 107 -628
122 -22 3 -143 16 -270 30 -126 14 -238 28 -247 32 -15 6 -13 13 21 57 287
376 801 1117 1133 1635 120 187 379 607 420 680 l20 35 -26 -30 c-44 -51 -385
-518 -561 -770 -306 -436 -676 -1000 -951 -1450 l-91 -150 -109 4 c-60 2 -140
6 -177 10 l-68 6 97 155 c53 85 323 511 599 945 276 435 825 1303 1220 1930
627 995 797 1264 1112 1760 34 55 100 172 145 260 68 135 94 175 164 253 522
586 909 1254 1155 1992 169 508 268 1037 286 1528 3 95 10 169 14 165 4 -4 15
-120 25 -258 22 -315 26 -1177 6 -1350 -113 -975 -413 -1829 -922 -2625 -47
-74 -268 -385 -491 -690 -787 -1077 -2649 -3642 -2827 -3895 -246 -348 1121
1479 2847 3805 500 674 593 812 779 1155 285 528 510 1162 623 1753 l23 123
25 -48 c34 -67 63 -138 227 -552 79 -200 143 -366 141 -367 -2 -2 -55 -13
-117 -25 -117 -23 -160 -45 -160 -84 0 -40 125 -115 190 -115 30 0 24 19 -7
26 -48 12 -131 54 -137 71 -4 8 -2 21 4 28 13 16 161 44 475 90 132 20 332 49
445 66 240 36 564 78 568 74 2 -2 -1 -14 -8 -27 -10 -20 -8 -19 12 5 23 26 32
28 163 42 77 7 178 17 224 21 l84 7 -23 -37 c-35 -57 -62 -117 -56 -124 3 -3
6 -1 6 4 0 14 81 147 94 156 6 4 19 8 29 8 18 0 18 -1 0 -32 -20 -35 -35 -68
-29 -68 2 0 17 23 34 50 21 33 38 50 51 50 19 0 19 -2 5 -35 -8 -19 -12 -35
-9 -35 3 0 13 16 21 35 9 22 23 36 37 39 26 5 326 34 450 43 l89 6 -31 -61
c-43 -84 -39 -91 7 -12 32 56 42 65 70 68 38 4 38 3 12 -48 -31 -60 -23 -62
11 -2 l31 52 68 0 c49 0 73 -4 84 -16 11 -10 16 -11 16 -3 0 15 463 6 627 -12
l102 -12 -38 -56 c-38 -56 -81 -134 -81 -147 0 -4 25 33 56 82 71 113 81 124
116 124 l29 0 -40 -57 c-42 -58 -59 -99 -19 -47 51 68 92 104 120 104 15 0 28
-2 28 -4 0 -2 -12 -25 -26 -50 -15 -26 -24 -50 -21 -53 3 -3 20 20 38 52 28
50 34 55 58 51 14 -3 71 -8 126 -11 207 -13 324 -53 427 -145 69 -61 154 -185
170 -247 6 -25 16 -46 22 -48 6 -2 31 -9 55 -15 l44 -11 -34 -35 c-27 -28 -41
-34 -78 -36 l-46 -1 42 -4 42 -4 -43 -59 c-56 -76 -88 -141 -101 -210 -14 -67
-15 -68 -191 -69 -140 -1 -148 1 -157 49 -4 21 -4 20 -6 -7 l-1 -33 -89 0
c-50 0 -93 4 -96 10 -3 5 -10 29 -15 52 l-9 43 3 -47 3 -47 -181 6 c-99 3
-185 9 -190 14 -6 6 3 51 24 119 18 61 30 114 26 118 -10 9 -179 16 -210 8
-18 -4 -28 -20 -44 -68 -11 -35 -23 -84 -27 -109 -4 -25 -10 -51 -14 -57 -5
-8 -46 -7 -156 5 -83 8 -154 19 -158 23 -4 4 87 71 203 149 179 122 214 150
238 189 39 68 38 124 -6 163 -18 16 -42 29 -53 29 -18 0 -16 -5 15 -34 40 -37
45 -66 22 -119 -19 -45 -36 -59 -275 -217 -117 -78 -376 -257 -575 -399 -198
-141 -366 -260 -372 -264 -7 -4 -29 0 -49 9 -20 8 -39 13 -41 11 -3 -2 9 -10
26 -17 16 -7 30 -17 30 -22 0 -18 -33 -20 -66 -4 -48 22 -56 20 -15 -5 29 -17
32 -22 20 -34 -8 -7 -153 -110 -324 -230 -320 -223 -319 -222 -380 -201 -11 4
-5 -1 14 -12 l33 -19 -221 -154 c-400 -279 -445 -308 -581 -378 -178 -91 -392
-175 -510 -200 -234 -49 -372 -49 -462 2 -43 23 -53 44 -44 91 5 26 25 48 86
99 l79 67 51 -32 c27 -17 53 -29 56 -26 3 4 -17 18 -45 34 -55 29 -59 35 -36
54 12 10 32 1 111 -50 53 -33 98 -59 101 -56 5 5 -65 52 -144 97 -24 13 -43
26 -42 29 0 3 49 47 108 99 l108 95 194 2 c192 2 369 17 417 35 22 8 5 17
-134 64 -87 29 -160 52 -162 50 -4 -4 133 -56 210 -80 31 -10 55 -22 52 -27
-7 -11 -41 -10 -62 2 -23 14 -216 70 -205 60 4 -5 54 -23 111 -40 56 -17 102
-33 102 -36 0 -2 -108 -4 -241 -4 -132 0 -239 4 -237 8 2 5 107 100 233 213
127 112 403 361 615 554 318 289 563 510 697 629 23 19 23 19 104 -3 104 -27
114 -21 14 8 -41 13 -75 26 -75 29 0 4 47 49 105 101 58 52 103 96 100 99 -3
3 -15 -3 -28 -14 -12 -11 -47 -42 -77 -68 l-55 -49 -100 7 c-55 4 -179 19
-275 34 l-175 28 3 59 c2 33 7 76 12 97 9 43 0 48 -91 48 -52 0 -57 -2 -68
-27 -6 -16 -15 -52 -21 -82 -6 -30 -12 -57 -15 -60 -8 -7 -189 19 -199 29 -6
6 -4 15 3 24 9 11 9 16 0 22 -8 4 -32 -16 -67 -55 -56 -63 -345 -302 -457
-377 -95 -64 -195 -119 -259 -143 -107 -39 -406 -79 -406 -53 0 4 35 42 78 85
60 59 84 77 107 78 17 1 22 3 13 6 -24 6 -23 20 2 28 11 3 20 13 20 21 0 17 5
17 63 0 26 -8 45 -10 42 -5 -3 4 -21 11 -40 15 -54 10 -57 28 -4 21 38 -5 41
-5 19 5 -14 7 -27 13 -29 15 -6 5 139 152 161 164 10 6 27 5 45 -1 l28 -10
-25 20 c-24 19 -24 21 -7 34 15 12 25 11 69 -6 28 -10 55 -17 61 -15 6 2 -12
12 -41 22 -98 35 -52 67 58 40 38 -9 74 -15 81 -13 6 2 -23 12 -65 22 -78 18
-87 25 -62 45 11 9 25 10 50 2 44 -11 48 -4 6 10 -41 15 -28 29 28 30 41 1 43
2 17 8 l-30 7 24 13 c44 25 132 29 281 15 80 -8 159 -14 175 -14 27 1 28 2 13
14 -22 16 -293 41 -380 34 -114 -9 -126 -19 -470 -362 -175 -174 -318 -322
-318 -330 0 -28 30 -46 78 -46 66 0 206 18 277 35 80 20 241 99 343 168 45 32
85 57 88 57 4 0 168 139 251 213 21 19 23 19 155 -7 73 -14 250 -46 393 -71
309 -55 355 -64 355 -74 0 -4 -44 -45 -97 -91 -405 -351 -1022 -892 -1293
-1135 -179 -160 -361 -321 -405 -359 -104 -89 -145 -147 -145 -204 0 -56 32
-90 115 -122 116 -44 378 -20 608 57 153 51 481 216 582 293 44 34 130 96 190
138 61 42 194 136 297 208 l187 133 112 -61 c162 -88 245 -105 342 -72 60 20
102 69 123 142 42 143 5 250 -100 286 l-36 12 81 58 80 58 127 -43 c101 -34
141 -43 197 -43 134 0 201 61 220 200 10 78 -11 120 -75 147 -27 11 -50 23
-50 26 0 4 30 26 67 49 56 38 69 42 89 33 55 -25 420 -79 789 -116 666 -68
1369 -25 1614 100 131 66 129 228 -4 354 -105 99 -248 174 -420 218 l-108 28
-12 40 c-22 74 -56 127 -137 211 -93 97 -176 145 -293 169 -75 15 -369 45
-445 45 -26 0 -49 3 -53 6 -3 3 1 21 10 39 11 24 24 34 47 38 61 10 87 26 103
64 19 46 13 116 -13 144 -17 19 -17 22 0 73 16 46 24 56 62 75 63 30 82 92 47
151 -16 28 -15 32 16 117 82 221 84 229 89 383 5 172 -5 209 -62 236 -32 16
-36 16 -60 0 -14 -9 -26 -20 -26 -25 0 -10 -676 -656 -1010 -965 -129 -120
-251 -235 -271 -256 l-36 -39 -239 -25 c-131 -14 -351 -35 -489 -46 -352 -29
-542 -47 -677 -66 -64 -9 -122 -14 -128 -12 -5 1 6 26 26 53 56 77 94 164 94
214 0 51 -26 157 -46 189 -8 12 -23 22 -34 22 -19 0 -251 -229 -320 -316 -18
-21 -35 -39 -39 -39 -7 0 -160 201 -281 369 -54 75 -195 203 -315 285 -82 55
-215 114 -262 115 -37 1 -42 4 -38 21 8 36 34 248 46 375 15 153 14 720 -1
1024 -21 429 -71 875 -140 1236 -16 85 -41 223 -55 305 -157 893 -445 1627
-917 2332 -352 528 -833 1040 -1321 1407 -48 37 -77 65 -77 77 0 13 -7 19 -24
19 -14 0 -83 39 -163 93 -441 295 -912 526 -1403 685 -200 66 -597 170 -691
182 -41 5 -117 16 -169 24 -364 59 -856 81 -1225 55z m710 -39 c136 -9 232
-19 533 -57 42 -6 42 -6 27 -29 -17 -27 -19 -67 -5 -95 14 -25 6 -24 -76 7
-102 39 -266 94 -278 93 -6 0 43 -19 109 -43 269 -97 259 -91 330 -187 116
-156 242 -253 349 -267 37 -5 463 -180 647 -266 43 -20 127 -75 195 -128 l118
-92 -33 -7 c-19 -4 -74 -10 -123 -14 -91 -7 -102 -12 -89 -34 7 -11 33 -11
149 0 l141 12 43 -35 c24 -19 108 -96 188 -170 408 -380 806 -888 1099 -1402
l90 -158 -34 -41 c-38 -44 -69 -118 -80 -188 -7 -45 -7 -46 -71 -69 -61 -23
-80 -44 -51 -56 8 -3 35 4 61 16 57 24 76 25 76 5 0 -8 32 -45 71 -82 88 -85
99 -106 99 -186 0 -104 33 -125 196 -126 l61 -1 57 -162 c32 -90 80 -237 107
-328 27 -91 52 -173 55 -182 5 -17 -6 -18 -123 -18 -218 -1 -260 -31 -283
-201 -16 -119 -56 -231 -114 -319 -32 -49 -108 -133 -217 -241 -198 -195 -207
-211 -184 -302 9 -34 44 -114 79 -177 35 -63 109 -205 165 -315 268 -532 353
-584 743 -456 87 28 173 51 190 51 61 0 63 -4 66 -178 l4 -158 -56 -75 c-86
-114 -101 -159 -100 -304 1 -106 5 -133 33 -224 17 -57 48 -144 67 -193 l36
-90 -12 -117 c-50 -510 -146 -1012 -262 -1381 l-24 -75 -119 3 c-66 1 -155 5
-197 8 -73 6 -78 5 -78 -14 0 -16 9 -20 61 -26 34 -3 103 -6 153 -6 50 0 108
-3 128 -6 l37 -6 -41 -117 c-44 -124 -129 -331 -178 -433 -35 -73 -43 -81
-218 -244 -512 -478 -1092 -850 -1734 -1115 -65 -26 -118 -44 -118 -40 0 5
113 344 251 752 138 409 268 803 290 874 157 510 235 1099 252 1890 5 211 2
192 -23 -170 -28 -396 -76 -777 -136 -1088 l-37 -189 -166 7 c-91 4 -177 8
-191 9 -15 1 -26 -5 -28 -16 -4 -20 25 -25 221 -34 131 -5 147 -8 147 -24 0
-52 -116 -415 -285 -890 -48 -135 -141 -402 -206 -595 -66 -192 -122 -356
-124 -363 -4 -10 -14 -6 -38 12 -23 18 -47 26 -72 26 -21 0 -214 -16 -429 -36
-409 -37 -492 -39 -583 -8 -68 23 -120 62 -246 182 -137 130 -217 173 -336
179 -83 5 -113 -3 -268 -72 -133 -59 -209 -52 -354 31 -101 59 -149 74 -228
74 -68 0 -63 1 -405 -119 -223 -79 -338 -146 -376 -221 -56 -109 -10 -145 290
-228 315 -87 612 -139 1005 -174 142 -13 1208 -16 1400 -5 l90 6 -130 -33
c-403 -103 -827 -151 -1325 -150 -505 1 -878 47 -1355 164 -203 50 -473 133
-490 151 -7 8 -70 198 -140 422 -70 225 -152 468 -182 540 -147 355 -252 704
-348 1151 l-36 169 29 56 c16 31 32 69 36 84 6 27 9 28 46 22 35 -6 40 -4 40
13 0 15 -9 21 -35 26 -41 8 -41 8 -19 133 12 70 13 101 4 131 -20 75 -102 116
-157 77 -20 -14 -21 -13 -27 18 -8 46 -34 294 -51 492 -54 624 -43 1620 26
2336 l12 116 82 27 c72 23 82 29 78 46 -3 11 -6 20 -7 20 -2 0 -35 -11 -74
-24 -69 -24 -72 -24 -72 -6 0 109 139 999 160 1023 8 10 162 -50 228 -89 67
-40 126 -97 207 -204 115 -151 129 -161 347 -250 113 -46 250 -141 353 -245
174 -175 370 -380 387 -405 22 -31 24 -110 4 -148 -8 -15 -33 -45 -56 -67 -83
-80 -129 -210 -149 -423 -14 -141 -29 -199 -78 -297 -53 -104 -64 -143 -64
-223 0 -128 32 -199 213 -464 212 -311 259 -566 177 -961 -12 -56 -59 -234
-105 -396 -46 -163 -84 -302 -84 -309 0 -7 -6 -15 -14 -18 -19 -7 -29 -36 -16
-44 8 -5 5 -37 -9 -106 -42 -211 -50 -376 -26 -539 22 -149 58 -250 164 -460
53 -104 112 -226 132 -270 48 -104 92 -163 136 -181 55 -23 89 -5 122 65 25
54 26 62 25 231 0 96 -2 265 -5 375 -4 192 -3 202 19 251 32 71 71 105 187
165 55 28 118 66 141 84 46 38 89 114 129 228 l28 77 81 -5 c44 -3 93 -8 107
-10 20 -3 28 1 32 15 6 23 -15 29 -98 31 -33 0 -70 4 -82 7 l-23 7 20 32 c33
56 61 66 191 74 77 5 131 14 154 25 38 18 87 70 163 173 65 90 109 111 249
121 60 5 127 16 151 25 93 38 149 143 171 323 12 97 39 163 84 210 39 41 87
67 196 103 111 38 157 66 222 137 69 75 114 151 156 263 52 139 68 226 68 379
0 112 -4 147 -22 205 -55 172 -144 257 -319 304 -50 13 -88 50 -121 116 -32
65 -77 111 -133 139 -59 30 -82 35 -229 51 -201 21 -206 28 -269 369 -39 209
-92 266 -276 299 -138 25 -179 50 -258 158 -31 42 -121 92 -204 114 -32 8
-163 29 -291 45 -128 16 -245 32 -260 36 -87 21 -152 82 -209 196 -20 40 -50
90 -66 111 l-30 37 31 11 c30 11 41 32 22 43 -5 3 -27 0 -49 -8 l-40 -14 -66
66 c-125 126 -136 159 -112 337 27 199 9 236 -115 232 -144 -4 -283 49 -324
125 -22 42 -13 76 28 103 41 27 164 47 250 42 113 -7 136 -26 216 -171 71
-129 138 -207 194 -225 32 -11 42 -10 69 6 98 57 97 205 -1 437 -44 103 -62
166 -54 196 8 29 157 120 246 151 120 41 142 68 197 249 42 139 63 172 192
307 123 128 181 212 204 291 15 50 15 57 -1 98 -17 44 -58 85 -105 102 l-25
10 25 5 c14 3 61 10 105 15 212 28 334 106 360 229 27 132 -146 232 -401 233
-96 0 -177 27 -301 99 -135 79 -179 98 -276 117 -125 25 -239 3 -294 -57 -22
-24 -46 -102 -57 -189 -8 -59 -37 -106 -70 -114 -53 -13 -100 10 -169 84 -36
39 -72 70 -81 70 -17 0 -66 49 -66 65 0 6 10 15 23 20 18 8 24 22 31 76 8 59
6 72 -13 113 -14 28 -36 54 -59 67 -20 13 -38 24 -40 25 -6 4 139 226 244 375
275 385 559 694 854 928 155 123 168 134 105 91 -143 -97 -283 -218 -471 -405
-276 -275 -452 -490 -680 -831 l-95 -141 -77 -6 c-47 -4 -114 -19 -172 -39
-90 -31 -102 -32 -240 -32 -128 0 -161 3 -283 32 -103 24 -161 32 -231 32
l-94 0 -16 40 c-9 22 -16 44 -16 49 0 12 264 254 395 362 497 410 1149 781
1668 949 21 6 36 14 34 16 -2 2 -51 -12 -108 -32 -697 -241 -1372 -650 -1923
-1163 -71 -66 -103 -90 -115 -85 -90 38 -178 44 -276 19 -33 -9 -103 -36 -155
-61 -118 -57 -187 -81 -262 -94 -58 -9 -229 -3 -227 9 1 10 212 190 349 299
497 393 1026 699 1599 927 225 89 335 122 557 168 481 100 992 137 1469 107z
m913 -155 c295 -86 780 -269 997 -375 202 -100 518 -287 509 -302 -10 -16
-300 -3 -484 21 -238 31 -291 50 -459 160 -49 32 -110 67 -137 77 -27 10 -84
38 -129 62 -154 82 -351 180 -425 212 -95 41 -162 102 -154 139 4 14 14 32 23
39 24 20 120 8 259 -33z m-2973 -115 c-11 -5 -83 -34 -160 -65 -198 -80 -590
-276 -785 -392 -623 -372 -1155 -825 -1621 -1378 -571 -679 -986 -1491 -1243
-2431 -30 -110 -60 -229 -67 -265 -7 -35 -14 -58 -16 -52 -7 20 85 451 131
618 166 597 428 1170 768 1679 689 1032 1687 1822 2818 2231 80 29 152 55 160
58 25 9 37 6 15 -3z m2963 -110 c86 -44 184 -96 217 -115 l60 -36 -65 6 c-149
14 -217 37 -285 97 -33 28 -95 109 -95 122 0 11 11 6 168 -74z m1793 -522
c139 -91 140 -93 109 -101 -28 -7 -42 0 -154 75 -100 67 -123 87 -122 106 1
13 6 20 13 18 7 -3 76 -47 154 -98z m-100 -35 l100 -68 -76 -9 c-63 -8 -75
-12 -75 -28 0 -17 7 -18 104 -12 l103 7 104 -79 c324 -245 793 -691 1019 -969
187 -231 440 -581 440 -611 0 -11 -108 -62 -113 -53 -50 84 -191 281 -236 331
-75 81 -119 110 -162 106 -52 -5 -73 -43 -71 -130 4 -147 -39 -225 -179 -318
-50 -34 -92 -60 -93 -58 -1 2 -29 50 -61 108 -320 573 -778 1132 -1299 1581
l-39 33 32 9 c22 5 31 13 29 24 -2 14 -14 16 -58 14 -55 -2 -55 -2 -160 79
-58 45 -109 87 -115 92 -7 7 59 8 210 2 245 -10 386 -8 431 5 52 16 64 12 165
-56z m416 -188 c62 -47 169 -131 236 -187 162 -135 556 -530 691 -693 474
-571 828 -1194 1056 -1862 72 -210 78 -249 11 -68 -245 663 -562 1225 -985
1750 -296 367 -678 739 -1061 1034 -152 118 -146 111 -100 111 33 0 55 -13
152 -85z m-6138 -289 l32 -17 -103 -110 c-217 -232 -477 -552 -605 -745 -20
-30 -39 -54 -43 -54 -3 0 -17 11 -30 25 -33 35 -120 92 -154 101 -15 3 -24 9
-21 13 4 3 79 24 168 47 116 29 162 44 162 55 0 24 -34 20 -225 -29 -156 -40
-185 -50 -185 -65 0 -20 -51 -47 -89 -47 -12 0 -55 16 -96 36 -43 20 -98 38
-127 41 -45 5 -62 1 -128 -30 -41 -20 -75 -33 -75 -29 0 28 406 478 538 598
l63 57 147 -7 c198 -8 246 2 437 98 83 41 157 78 165 80 29 10 136 -1 169 -18z
m81 -103 c0 -49 4 -51 123 -46 116 5 110 6 382 -58 59 -14 122 -22 185 -21 82
0 109 5 203 36 116 39 227 57 227 37 0 -6 -36 -73 -81 -149 -241 -411 -466
-919 -640 -1442 -105 -318 -259 -884 -259 -953 0 -29 -17 -27 -99 7 -161 68
-234 128 -282 229 -15 34 -44 127 -63 207 -19 80 -58 206 -86 280 -120 314
-152 436 -150 580 1 41 1 80 1 86 -1 7 -26 15 -56 19 -89 11 -135 65 -135 160
0 17 -7 57 -15 89 l-15 58 66 96 c172 250 347 470 557 700 120 132 136 142
137 85z m1208 -79 c58 -40 64 -106 17 -195 -14 -27 -25 -55 -25 -62 0 -21 51
-62 111 -89 33 -15 73 -45 100 -73 103 -112 165 -131 223 -72 31 31 46 64 80
187 20 74 61 133 109 160 33 19 50 22 110 17 66 -4 86 -12 274 -107 l203 -103
157 -8 c87 -4 173 -12 191 -18 87 -26 142 -86 142 -154 0 -117 -122 -176 -410
-199 -149 -11 -185 -23 -162 -51 7 -8 31 -19 54 -27 118 -35 178 -89 178 -161
0 -83 -36 -141 -184 -297 -111 -118 -156 -187 -206 -318 -35 -93 -64 -124
-163 -177 -37 -20 -120 -80 -183 -133 l-116 -97 5 -51 c4 -34 27 -92 66 -171
59 -118 81 -195 81 -286 0 -44 -31 -69 -84 -69 -46 0 -78 38 -144 174 -92 187
-152 225 -336 213 -188 -13 -296 -71 -296 -159 0 -33 39 -93 80 -124 52 -40
151 -82 239 -103 43 -10 87 -24 99 -30 32 -17 44 -66 49 -201 7 -181 26 -228
128 -309 30 -24 55 -47 55 -51 0 -3 -56 -24 -125 -45 -69 -21 -128 -42 -131
-47 -3 -5 -3 -15 -1 -23 5 -10 34 -4 139 31 73 24 140 44 148 44 20 0 50 -49
89 -148 43 -107 66 -140 124 -179 60 -40 140 -58 348 -78 197 -19 326 -44 394
-76 56 -26 140 -105 202 -190 48 -65 71 -76 171 -82 96 -6 209 -59 243 -114
21 -34 23 -48 24 -197 0 -181 9 -213 79 -274 44 -39 80 -48 232 -61 67 -5 137
-16 156 -24 46 -19 92 -66 161 -165 32 -45 68 -89 82 -98 13 -9 54 -19 90 -24
147 -18 260 -137 296 -309 16 -79 6 -278 -20 -371 -58 -214 -167 -387 -281
-444 -25 -13 -83 -36 -130 -51 -212 -69 -266 -131 -302 -345 -34 -202 -83
-256 -283 -308 -146 -38 -177 -56 -267 -151 -91 -97 -127 -115 -271 -136 -58
-8 -123 -22 -144 -30 -55 -23 -100 -71 -118 -126 l-16 -47 -79 5 c-77 6 -80 5
-80 -16 0 -18 6 -21 44 -21 24 0 58 -3 76 -6 30 -7 31 -8 25 -43 -11 -60 -56
-143 -101 -186 -25 -25 -85 -62 -147 -93 -126 -61 -164 -93 -204 -169 -58
-110 -69 -214 -48 -438 9 -94 17 -218 18 -277 2 -94 0 -110 -19 -135 -22 -29
-58 -39 -99 -29 -23 6 -83 115 -232 419 -154 316 -181 575 -95 937 l18 75 44
-1 c25 0 102 -4 173 -8 122 -8 127 -8 127 11 0 18 -12 20 -162 31 -88 6 -163
13 -164 15 -2 2 25 102 61 223 113 379 149 539 165 733 10 125 0 277 -25 376
-24 97 -106 249 -219 410 -59 83 -123 184 -144 225 -35 71 -37 80 -36 170 0
87 4 107 51 245 29 85 58 196 68 255 44 275 63 327 158 445 35 42 63 89 72
119 27 88 19 102 -211 344 -357 377 -401 412 -592 479 -197 68 -224 89 -326
247 -87 134 -155 183 -366 266 -47 18 -86 34 -88 35 -1 1 11 65 28 141 156
702 397 1398 690 1984 103 208 243 460 255 460 6 0 21 -7 33 -16z m-2499 -669
c81 -23 102 -26 160 -19 129 15 195 -3 263 -73 l36 -38 -109 -180 c-336 -554
-592 -1176 -769 -1870 -191 -746 -281 -1521 -283 -2440 -1 -462 16 -714 74
-1105 73 -487 222 -1048 383 -1438 24 -59 52 -125 60 -147 l17 -40 -33 36
c-322 358 -601 751 -816 1150 -29 53 -52 98 -52 101 0 3 19 2 43 -3 58 -11 57
-11 57 10 0 15 -11 22 -50 30 -28 6 -57 11 -64 11 -16 0 -105 187 -192 400
-246 609 -382 1241 -409 1905 -6 132 -3 190 15 335 127 1031 433 1965 903
2755 58 98 288 446 325 494 15 18 23 21 36 14 12 -7 44 -1 112 21 52 17 94 33
94 36 0 3 -4 11 -9 19 -7 11 -25 8 -102 -18 -51 -17 -94 -30 -95 -28 -7 7 39
48 77 68 110 56 172 59 328 14z m8216 -163 c20 -15 164 -189 207 -252 80 -115
82 -102 -32 -152 -92 -39 -115 -58 -91 -72 5 -4 53 13 106 35 74 33 99 39 108
30 7 -7 12 -44 12 -95 0 -81 -1 -86 -57 -197 -32 -63 -74 -161 -93 -217 -37
-107 -67 -163 -104 -196 -22 -20 -108 -33 -126 -19 -6 4 -35 67 -64 138 -29
72 -99 223 -154 337 -85 176 -98 210 -87 223 7 9 43 32 79 52 113 62 131 87
174 235 36 124 56 158 91 158 11 0 26 -4 31 -8z m-7737 -144 c-6 -80 -4 -97
11 -118 21 -30 92 -67 143 -75 44 -7 43 -5 84 -214 27 -141 46 -203 137 -441
35 -92 65 -191 81 -270 35 -177 56 -229 128 -305 46 -50 81 -75 156 -113 53
-27 119 -57 145 -67 41 -15 48 -22 43 -39 -33 -134 -112 -615 -146 -891 -11
-93 -23 -175 -25 -182 -2 -6 -42 -24 -88 -39 -70 -23 -83 -30 -79 -46 2 -10 5
-18 6 -18 2 0 36 11 76 25 40 14 75 23 78 21 2 -2 -3 -82 -12 -178 -44 -485
-60 -935 -53 -1488 8 -538 19 -709 79 -1214 l22 -188 -24 -20 c-37 -30 -95
-19 -182 33 -85 52 -132 57 -172 20 -32 -30 -34 -78 -7 -137 40 -89 226 -269
334 -326 23 -12 62 -24 86 -27 l44 -6 32 -150 c89 -413 226 -852 368 -1181 41
-95 290 -854 283 -861 -11 -12 -380 144 -586 247 -467 234 -969 585 -1339 936
-101 95 -107 103 -162 219 -110 232 -228 551 -305 821 -41 148 -105 416 -100
422 2 1 70 -6 152 -17 181 -26 184 -26 184 -3 0 16 -22 21 -171 42 -154 21
-171 25 -179 44 -19 51 -85 501 -109 746 -37 373 -48 1048 -23 1410 96 1391
429 2593 977 3529 67 116 114 191 118 191 1 0 -1 -42 -5 -92z m8292 -320 c129
-216 326 -617 423 -861 48 -120 87 -223 87 -228 0 -5 -12 -2 -26 7 -25 17 -26
17 -62 -23 -41 -45 -129 -104 -192 -129 -61 -24 -153 -14 -270 31 -86 33 -98
36 -133 25 -37 -11 -92 -59 -168 -148 -19 -23 -41 -42 -47 -42 -6 0 -19 28
-28 63 -10 34 -55 174 -101 310 -46 137 -83 250 -83 252 0 3 12 0 26 -5 39
-15 50 -12 89 22 41 36 66 81 123 223 22 55 69 154 106 220 80 146 94 196 73
280 -8 33 -18 68 -22 78 -6 14 3 22 46 42 30 13 59 24 64 24 6 1 49 -63 95
-141z m-955 -108 c14 -28 23 -54 21 -59 -7 -10 -96 -45 -102 -39 -7 8 40 148
51 148 2 0 16 -23 30 -50z m89 -192 c59 -129 148 -349 143 -355 -7 -7 -130 27
-154 43 -18 11 -21 20 -16 44 10 52 -22 114 -89 173 -50 45 -60 60 -65 94 l-5
40 63 26 c35 14 68 26 72 26 5 1 27 -41 51 -91z m1373 -930 c35 -102 81 -327
112 -543 55 -377 76 -734 68 -1130 -13 -615 -80 -1135 -236 -1830 -21 -93 -44
-196 -51 -228 -17 -86 -87 -157 -153 -157 -44 0 -107 83 -224 295 -115 209
-111 195 -101 315 5 58 10 267 11 465 2 350 3 361 25 402 52 99 48 202 -10
269 -30 33 -30 37 -44 212 -44 580 -130 1124 -254 1606 l-28 110 80 75 c94 89
125 111 154 111 12 0 66 -14 120 -31 135 -42 209 -38 311 15 39 20 95 59 124
86 30 27 57 49 60 50 3 0 19 -42 36 -92z m-1040 -225 l82 -6 41 -170 c113
-466 192 -960 235 -1464 20 -237 22 -216 -19 -209 -48 9 -111 -7 -261 -66
-109 -43 -141 -52 -195 -52 -129 0 -211 68 -328 276 -39 70 -97 168 -127 219
-129 212 -195 374 -195 478 0 89 34 145 180 296 207 214 269 319 296 498 18
122 35 155 94 185 47 24 70 25 197 15z m1238 -268 c58 -225 135 -599 156 -755
18 -140 15 -634 -5 -860 -50 -554 -171 -1077 -361 -1568 -27 -67 -50 -121 -52
-118 -2 2 12 66 31 142 201 804 299 1679 267 2392 -15 357 -47 663 -96 926
-33 174 -10 114 60 -159z m-850 -2342 c-4 -142 -10 -285 -14 -318 l-7 -60 -31
96 c-62 188 -64 329 -6 443 30 59 53 96 60 96 3 0 2 -116 -2 -257z m5299 -366
c19 -25 21 -42 21 -155 -1 -123 -21 -242 -45 -266 -5 -5 -23 4 -45 23 -52 46
-56 38 -6 -13 31 -32 42 -50 37 -62 -6 -15 -13 -11 -49 24 -24 23 -47 42 -52
42 -5 0 12 -22 39 -49 l48 -49 -53 -161 c-30 -89 -57 -161 -61 -161 -11 0
-128 83 -128 92 0 14 20 8 60 -18 22 -15 42 -25 45 -22 3 2 -16 17 -40 33 -49
30 -53 41 -30 85 8 16 33 80 56 142 36 101 41 126 46 229 5 98 3 121 -13 154
l-18 38 69 64 c37 35 75 63 83 61 8 -2 24 -16 36 -31z m-194 -144 c19 -41 24
-151 11 -227 -11 -65 -126 -378 -170 -464 -24 -47 -32 -50 -69 -23 -32 22
-112 63 -112 57 0 -2 32 -23 70 -46 39 -23 70 -47 70 -53 0 -19 -125 -226
-137 -227 -6 0 -78 22 -159 50 -81 27 -149 48 -151 46 -3 -3 231 -86 285 -101
25 -7 27 -14 9 -38 -11 -16 -17 -16 -96 8 -47 14 -86 23 -88 21 -2 -2 32 -16
76 -31 45 -15 81 -30 81 -35 0 -4 -7 -13 -15 -20 -13 -10 -88 -10 -388 -1
-204 7 -373 14 -375 15 -5 6 698 681 711 684 8 1 68 -22 135 -52 67 -30 122
-52 122 -50 0 3 -52 30 -115 60 -63 31 -117 60 -120 64 -14 22 21 18 85 -9 81
-35 88 -27 8 9 -29 13 -55 26 -58 28 -5 4 361 361 371 362 3 0 12 -12 19 -27z
m-4990 -280 c81 -154 159 -271 211 -318 50 -45 122 -79 149 -70 11 4 20 4 20
1 0 -14 -155 -315 -226 -437 -174 -304 -449 -690 -637 -894 l-46 -50 54 137
c183 466 325 1049 391 1601 10 81 19 147 20 147 1 0 30 -53 64 -117z m1186
-122 c173 -81 364 -245 473 -406 30 -44 76 -107 102 -140 26 -33 83 -117 127
-187 90 -143 92 -131 -24 -144 -57 -6 -62 -5 -78 17 -22 32 -21 36 17 33 l32
-3 -33 8 c-56 15 -50 23 13 17 l60 -6 -70 18 c-54 15 -64 20 -45 24 24 5 23 5
-8 13 -22 5 -38 18 -48 37 -9 17 -18 27 -21 24 -3 -3 18 -46 47 -96 29 -50 50
-94 47 -96 -6 -6 -291 -54 -318 -54 -12 0 -27 28 -54 105 -21 57 -37 108 -36
112 0 4 27 11 58 14 l58 6 -60 1 c-34 1 -66 7 -73 14 -22 22 -13 37 26 41 l37
4 -42 1 c-39 2 -44 5 -58 37 -26 63 -24 69 20 76 l40 6 -46 2 -46 1 -51 132
c-29 72 -50 133 -48 135 7 7 131 -39 200 -75 55 -29 80 -50 130 -113 99 -124
118 -146 111 -125 -3 11 0 23 7 28 9 5 6 8 -9 8 -30 0 -40 20 -11 21 18 0 16
3 -11 12 -54 19 -51 37 6 38 l48 2 -56 11 c-47 9 -66 20 -111 62 -29 28 -63
56 -75 62 -30 17 -151 62 -202 76 -25 7 -47 19 -49 26 -3 9 23 11 124 7 88 -4
110 -3 69 3 -33 4 -87 8 -121 9 -36 1 -68 7 -80 16 -17 13 -14 15 46 17 l65 2
-60 3 c-57 4 -85 15 -85 34 0 5 12 10 28 10 l27 1 -30 7 c-24 5 -37 18 -62 66
-18 33 -33 66 -33 73 0 23 51 12 136 -27z m3942 -195 c-2 -17 -7 -31 -13 -30
-11 0 -24 52 -17 72 8 25 33 -10 30 -42z m-38 -27 c0 -5 -4 -9 -10 -9 -5 0
-10 7 -10 16 0 8 5 12 10 9 6 -3 10 -10 10 -16z m-144 -30 c30 -22 57 -46 60
-54 7 -17 -108 -297 -132 -324 -2 -3 -19 9 -36 25 l-32 29 28 -38 c37 -50 25
-60 -19 -17 -19 18 -37 31 -40 29 -2 -3 13 -22 34 -43 22 -21 37 -44 35 -50
-4 -10 -180 -11 -212 -1 -14 5 -1 29 128 250 42 72 87 154 100 183 13 28 25
52 27 52 2 0 29 -18 59 -41z m-2634 -194 c32 -108 11 -180 -95 -321 l-52 -68
-78 -11 c-43 -6 -81 -8 -86 -5 -8 5 -41 65 -41 75 0 3 12 5 28 6 24 1 22 2
-11 11 -44 12 -44 34 -1 31 27 -2 28 -2 6 7 -41 17 -14 33 47 28 54 -5 48 4
-12 17 -25 5 -27 8 -16 21 10 12 25 15 64 11 l50 -5 -42 10 c-41 10 -53 21
-34 32 4 3 23 1 41 -4 19 -5 36 -8 38 -5 3 3 -9 8 -26 11 -46 9 -40 28 6 21
92 -15 103 -15 44 -1 -61 15 -63 17 -46 35 9 10 23 19 31 19 8 0 12 4 8 9 -11
19 30 30 74 20 24 -5 46 -7 49 -5 2 3 -14 8 -37 12 -47 8 -63 23 -32 31 12 3
21 10 21 16 0 6 15 26 32 44 30 31 34 32 46 16 7 -9 18 -36 24 -58z m2698 -14
c12 -24 13 -71 1 -90 -6 -9 -10 0 -13 30 -3 24 -8 52 -12 62 -11 24 11 22 24
-2z m-30 -81 c0 -22 -4 -40 -9 -40 -14 0 -23 37 -16 60 11 34 25 22 25 -20z
m-35 -50 c3 -5 -1 -10 -10 -10 -9 0 -13 5 -10 10 3 6 8 10 10 10 2 0 7 -4 10
-10z m-2565 -449 c0 -29 -23 -167 -28 -173 -8 -8 -113 10 -125 21 -10 10 11
110 29 139 12 18 23 22 69 22 30 0 55 -4 55 -9z m-306 -171 c33 -5 75 -10 93
-10 29 0 33 -3 33 -26 0 -26 -1 -27 -47 -20 -27 4 -75 9 -108 11 -54 4 -56 4
-20 -5 46 -10 453 -72 660 -99 122 -16 172 -15 153 4 -3 3 -108 17 -234 31
-126 14 -231 28 -233 30 -2 2 -1 11 3 20 5 13 14 15 44 10 120 -21 309 -47
385 -53 48 -3 87 -7 87 -9 0 -8 -93 -89 -108 -95 -9 -3 -113 11 -231 32 -347
59 -635 111 -651 116 -26 8 65 85 92 78 13 -2 50 -9 82 -15z m249 -36 c18 -4
27 -12 27 -25 0 -21 -11 -23 -84 -13 -41 6 -46 10 -46 31 0 27 1 27 103 7z
m3762 -58 c130 -64 202 -119 261 -198 73 -100 68 -190 -14 -236 -82 -46 -294
-92 -494 -108 l-88 -6 -10 27 c-5 14 -15 57 -21 94 -10 56 -9 82 5 151 10 46
26 102 38 124 24 48 88 137 132 184 38 40 43 40 191 -32z m-1310 -95 c-13 -34
-55 -184 -55 -197 0 -11 -21 -14 -96 -14 l-96 0 7 33 c19 100 39 168 52 179
15 12 144 27 176 19 12 -2 16 -9 12 -20z m-471 -241 c7 -7 6 -14 -1 -21 -7 -7
-41 -7 -114 1 -57 6 -106 13 -108 15 -2 2 11 12 28 23 28 17 36 17 108 5 42
-7 82 -18 87 -23z m184 -5 c6 -3 12 -11 12 -20 0 -12 -13 -15 -67 -15 -84 0
-113 8 -113 29 0 14 11 16 78 13 42 -2 83 -5 90 -7z m169 -5 c50 0 54 -2 51
-22 -3 -20 -8 -22 -63 -20 -86 4 -125 12 -125 27 0 18 19 25 54 20 16 -3 53
-5 83 -5z m418 -9 c57 -6 60 -7 63 -35 l4 -29 -164 7 c-212 9 -242 15 -246 44
-3 22 -3 22 140 21 79 -1 170 -4 203 -8z m-787 -26 c19 -5 22 -12 22 -56 0
-42 -3 -50 -17 -47 -10 2 -23 14 -30 28 -12 24 -13 24 -13 3 0 -19 -4 -22 -27
-18 -140 24 -212 35 -235 35 -40 0 -34 16 16 48 43 27 44 28 152 20 60 -4 119
-10 132 -13z m1047 -6 c0 -23 -3 -24 -84 -27 -88 -3 -101 2 -101 41 0 17 8 18
93 14 89 -4 92 -5 92 -28z m333 -4 c2 -16 10 -56 18 -88 8 -32 12 -62 9 -67
-4 -6 -60 -10 -126 -10 l-119 0 -15 33 -15 32 6 -33 c5 -31 4 -33 -17 -30 -20
2 -25 12 -35 61 l-11 57 96 1 c145 1 169 17 29 18 -105 1 -118 3 -128 20 -5
11 -10 22 -10 25 0 5 195 13 280 12 31 -1 35 -4 38 -31z m-1104 -15 c105 -5
209 -11 231 -14 55 -8 173 -15 271 -15 l82 -1 15 -60 15 -60 -52 0 c-54 0 -76
12 -76 41 0 10 -3 20 -8 22 -4 3 -7 -9 -7 -25 0 -43 -22 -46 -41 -6 -14 31
-15 31 -11 6 3 -21 0 -28 -13 -28 -12 0 -22 16 -34 53 -15 48 -15 22 0 -31 l7
-24 -94 8 c-52 3 -125 9 -164 13 l-69 6 -13 45 -13 45 5 -43 5 -43 -37 3 c-32
2 -41 9 -56 38 l-18 35 6 -32 c6 -30 4 -33 -18 -33 -19 0 -28 8 -36 30 -12 37
-20 39 -13 4 5 -27 4 -27 -42 -22 -26 3 -50 8 -53 11 -3 3 -8 27 -11 53 l-5
47 28 -7 c16 -4 115 -11 219 -16z m789 -44 c3 -7 9 -35 12 -60 l7 -47 -47 3
c-45 3 -49 6 -62 38 l-13 35 5 -37 c6 -37 5 -38 -24 -38 -35 0 -39 5 -56 71
l-13 49 93 0 c69 0 94 -3 98 -14z m-1570 -112 c4 -4 -7 -22 -23 -40 -52 -59
-63 -170 -25 -244 16 -31 11 -40 -21 -40 -29 0 -43 41 -45 139 -1 54 -4 69
-12 56 -5 -10 -7 -54 -4 -102 4 -72 3 -84 -11 -81 -8 2 -21 21 -28 43 l-14 40
5 -39 c3 -29 1 -36 -7 -28 -6 6 -13 46 -16 89 -5 90 -6 89 108 168 64 44 81
51 93 39z m97 -67 c27 -47 -20 -203 -67 -221 -26 -10 -26 -1 -4 59 23 62 26
109 10 152 -7 20 -7 25 0 17 6 -5 18 -30 26 -55 l15 -44 -4 45 c-2 25 -7 53
-11 64 -12 29 17 15 35 -17z m-82 -68 c4 -47 -13 -119 -28 -119 -16 0 -23 90
-11 132 16 51 35 44 39 -13z m-4604 -36 c-20 -38 -73 -124 -117 -193 -184
-287 -1453 -2345 -2187 -3545 -283 -464 -352 -572 -278 -435 127 234 198 369
329 630 81 163 164 332 184 375 69 148 85 185 81 185 -15 0 -388 -633 -576
-975 -98 -180 -360 -693 -450 -884 l-54 -113 -705 7 c-418 4 -769 2 -861 -3
-114 -7 -158 -7 -166 2 -6 6 -58 108 -115 226 -194 405 -442 869 -662 1245
-145 246 -299 496 -304 492 -12 -12 385 -805 593 -1187 81 -148 33 -75 -186
285 -298 488 -1079 1763 -1408 2295 -151 245 -376 609 -500 810 -124 201 -273
439 -332 530 -114 177 -152 240 -145 240 3 0 40 -32 82 -71 486 -446 1131
-842 1765 -1085 l128 -49 111 -340 c290 -891 823 -2504 826 -2501 5 5 -350
1165 -718 2348 -76 247 -139 452 -139 457 0 5 60 -11 133 -34 365 -117 771
-199 1207 -241 217 -22 747 -25 960 -6 483 43 916 131 1348 273 51 17 95 29
97 27 3 -2 -27 -99 -65 -214 -38 -115 -179 -551 -314 -969 -135 -418 -326
-1003 -425 -1300 -99 -296 -179 -541 -177 -542 3 -4 22 44 193 492 180 471
355 968 630 1795 141 421 261 770 267 777 6 6 76 37 156 69 175 71 528 244
700 344 364 212 749 497 1017 755 54 52 102 94 106 95 5 0 -8 -30 -29 -67z
m4359 -30 c3 -32 9 -67 13 -77 6 -17 4 -18 -22 -13 -46 9 -126 46 -122 56 3
10 109 90 119 91 3 0 9 -26 12 -57z m-318 -223 c-3 -5 -12 -10 -19 -10 -26 0
-69 -44 -92 -94 -17 -37 -24 -69 -24 -114 0 -68 8 -92 48 -134 l26 -28 -25 0
c-36 0 -49 12 -65 61 l-14 44 6 -49 c4 -37 3 -47 -8 -44 -30 10 -39 51 -35
153 2 55 1 91 -4 80 -4 -11 -8 -64 -8 -118 -1 -74 -4 -98 -13 -95 -7 3 -16 24
-19 49 -6 42 -6 43 -8 9 -3 -33 -4 -33 -11 -10 -10 31 -12 108 -4 149 5 25 24
44 98 96 78 56 97 65 134 65 26 0 41 -4 37 -10z m22 -87 c12 -31 14 -52 6
-110 -9 -75 -1 -88 17 -25 13 48 13 128 0 153 -15 27 5 25 24 -3 19 -27 21
-114 5 -169 -13 -42 -64 -109 -82 -109 -7 0 -18 4 -26 9 -11 7 -10 14 7 37 43
61 52 174 17 220 -19 25 -19 34 1 34 8 0 22 -17 31 -37z m-37 -29 c31 -92 -31
-246 -70 -175 -25 48 10 211 45 211 8 0 19 -16 25 -36z m-286 -202 c-1 -2 -34
13 -72 34 l-70 38 67 47 66 47 6 -81 c3 -45 5 -84 3 -85z m-8038 -142 l128
-65 90 0 c89 0 94 1 201 52 129 61 173 70 258 52 75 -15 159 -72 306 -205 112
-101 169 -136 256 -159 104 -27 322 -15 665 35 74 11 179 20 232 20 89 0 99
-2 127 -26 17 -14 31 -33 31 -41 0 -40 -132 -124 -263 -167 -128 -43 -570 -69
-1157 -70 -414 0 -568 8 -870 45 -292 35 -723 132 -846 190 -66 31 -94 62 -94
103 0 58 50 91 250 161 52 18 140 52 195 76 141 59 178 68 276 66 85 -2 89 -3
215 -67z"/>
<path d="M11190 29513 c280 -227 660 -587 640 -607 -6 -6 -48 -11 -93 -11 -65
1 -97 6 -157 29 -266 100 -256 97 -375 93 -153 -5 -229 -42 -255 -123 -28 -84
35 -167 219 -288 102 -67 148 -105 234 -197 59 -62 107 -116 107 -119 0 -4
-38 -12 -85 -19 -86 -13 -91 -16 -76 -39 6 -11 25 -10 101 2 l93 15 82 -78
c90 -84 184 -138 290 -165 159 -40 383 -43 527 -7 l68 18 59 -101 c385 -663
669 -1386 877 -2236 110 -449 235 -1173 285 -1662 7 -65 14 -116 17 -114 5 5
-24 395 -43 586 -137 1338 -498 2511 -1061 3446 -61 103 -72 127 -72 165 1 26
-8 61 -20 86 -21 41 -34 52 -131 125 -25 18 -46 38 -48 44 -3 8 31 16 99 24
131 15 137 17 131 39 -4 16 -11 17 -106 5 -56 -7 -116 -15 -134 -18 -28 -4
-35 0 -53 29 -16 26 -23 60 -30 162 -15 205 -60 313 -147 349 -44 19 -139 18
-196 -2 l-48 -16 -107 104 c-177 171 -445 392 -592 487 l-35 22 35 -28z m265
-603 c180 -70 230 -82 310 -76 39 3 84 8 100 12 29 5 36 0 120 -102 169 -203
235 -294 235 -325 0 -16 -3 -29 -7 -29 -19 -1 -33 -18 -27 -33 4 -12 13 -15
29 -11 14 3 35 -3 59 -20 20 -13 40 -26 45 -28 10 -4 131 -185 131 -196 0 -6
-15 -17 -34 -26 -64 -30 -136 -39 -291 -34 -126 4 -161 9 -221 30 -77 27 -154
74 -229 140 -53 47 -51 52 38 63 58 7 63 10 49 33 -7 9 -25 10 -90 0 l-82 -11
-62 69 c-100 112 -212 217 -273 254 -211 130 -235 154 -235 227 0 30 7 45 28
65 42 40 78 48 192 44 96 -3 115 -7 215 -46z m638 -34 c43 -18 105 -90 118
-138 5 -21 9 -70 7 -110 l-3 -71 -61 74 c-34 41 -94 110 -133 154 -39 43 -71
82 -71 86 0 19 101 23 143 5z"/>
<path d="M10355 28836 c-105 -49 -135 -129 -84 -229 29 -55 90 -119 189 -195
47 -37 114 -91 150 -122 36 -32 86 -73 112 -92 l47 -36 -87 -15 c-48 -9 -106
-19 -129 -23 -33 -5 -43 -11 -43 -25 0 -24 -2 -24 169 7 112 20 150 23 174 15
43 -16 133 -13 166 4 54 28 81 71 81 130 0 79 -26 191 -61 262 -34 71 -84 118
-179 170 -36 20 -101 58 -145 84 -160 95 -259 113 -360 65z m197 -50 c20 -7
65 -31 100 -53 35 -23 105 -61 155 -87 51 -25 108 -59 127 -76 84 -74 133
-270 87 -346 -22 -36 -76 -63 -93 -46 -6 6 -25 8 -44 5 -43 -7 -95 23 -194
112 -41 37 -118 102 -170 143 -52 42 -108 90 -124 106 -46 48 -86 117 -86 147
0 80 135 133 242 95z"/>
<path d="M9874 27998 c-184 -36 -201 -41 -197 -59 3 -10 6 -19 7 -19 0 0 93
18 206 40 113 22 206 40 207 40 0 0 -1 9 -4 20 -3 11 -8 20 -12 19 -3 0 -97
-19 -207 -41z"/>
<path d="M13884 26158 c-170 -62 -191 -72 -187 -89 3 -11 11 -18 17 -16 6 3
96 35 199 72 139 51 187 72 185 83 -2 9 -7 17 -13 18 -5 1 -96 -29 -201 -68z"/>
<path d="M12681 26014 c-12 -9 -31 -37 -42 -61 -63 -146 -138 -166 -280 -75
-61 39 -82 47 -121 47 -64 0 -101 -34 -100 -93 1 -53 20 -94 77 -170 26 -35
46 -64 44 -66 -2 -2 -41 -16 -86 -30 -76 -25 -100 -44 -75 -60 5 -3 52 9 104
26 l96 32 59 -51 c141 -122 247 -176 302 -153 41 17 107 88 131 142 21 48 70
313 70 381 0 110 -101 185 -179 131z"/>
<path d="M13079 25873 c-166 -58 -186 -67 -181 -85 2 -10 10 -17 16 -15 6 2
95 33 198 68 148 50 188 68 188 82 0 10 -7 17 -17 16 -10 0 -102 -30 -204 -66z"/>
<path d="M11475 25335 c-164 -54 -190 -65 -187 -81 2 -11 5 -19 5 -20 1 0 91
28 200 64 162 53 197 68 197 83 0 11 -6 19 -12 18 -7 -1 -98 -29 -203 -64z"/>
<path d="M10678 25076 c-103 -33 -190 -64 -194 -68 -3 -4 -4 -14 -1 -22 5 -11
44 -2 203 50 109 36 199 66 201 68 5 5 -8 36 -16 35 -3 -1 -90 -29 -193 -63z"/>
<path d="M9063 24556 c-106 -34 -195 -65 -199 -68 -3 -4 -2 -13 3 -21 6 -11
44 -2 206 50 132 43 197 68 197 78 0 7 -3 16 -8 19 -4 2 -94 -24 -199 -58z"/>
<path d="M14004 23861 c-60 -36 -171 -208 -279 -433 l-46 -95 -89 44 c-127 62
-224 94 -310 100 -67 5 -79 3 -110 -19 -50 -34 -65 -84 -50 -168 13 -74 68
-214 111 -281 76 -119 266 -263 502 -380 l129 -64 24 30 c125 151 219 541 240
995 12 241 -28 329 -122 271z m68 -43 c18 -33 15 -307 -6 -488 -21 -180 -48
-315 -87 -445 -32 -104 -103 -253 -124 -262 -20 -7 -220 98 -341 178 -148 100
-233 187 -283 292 -53 113 -75 183 -75 245 -1 47 2 57 28 79 27 23 36 25 95
20 82 -6 167 -34 301 -100 58 -29 108 -52 112 -52 4 0 43 72 87 160 88 177
184 329 231 369 38 32 46 32 62 4z"/>
<path d="M8970 20901 c0 -21 -7 -20 278 -45 142 -12 143 -12 140 8 -3 19 -16
22 -188 38 -242 22 -230 22 -230 -1z"/>
<path d="M11510 20703 c0 -19 9 -20 133 -27 72 -3 167 -9 210 -13 72 -6 77 -5
77 14 0 22 -25 26 -287 39 -129 7 -133 6 -133 -13z"/>
<path d="M12357 20657 c-3 -9 -3 -18 1 -20 4 -3 61 -7 127 -11 66 -3 159 -9
208 -12 82 -6 87 -6 87 13 0 22 -19 25 -291 39 -110 6 -127 5 -132 -9z"/>
<path d="M14050 20564 c0 -21 5 -22 206 -29 168 -6 208 -5 215 6 4 8 5 17 1
20 -4 4 -100 11 -215 15 -207 9 -207 9 -207 -12z"/>
<path d="M9175 27859 c-22 -5 -106 -23 -187 -41 -82 -17 -148 -34 -148 -37 1
-31 21 -30 218 12 170 35 202 45 202 60 0 19 -20 21 -85 6z"/>
<path d="M8223 27652 c-172 -39 -203 -49 -203 -64 0 -10 5 -18 12 -18 24 0
383 83 391 90 5 4 7 14 5 22 -2 12 -39 7 -205 -30z"/>
<path d="M5840 23460 c-101 -39 -186 -70 -187 -70 -7 0 -2 -29 5 -34 4 -2 91
27 192 65 102 38 191 71 197 74 15 5 6 35 -11 35 -6 0 -94 -32 -196 -70z"/>
<path d="M7442 24026 c-101 -35 -186 -67 -189 -70 -3 -3 -3 -12 0 -20 8 -21
409 111 405 134 -2 8 -10 16 -18 17 -8 1 -97 -26 -198 -61z"/>
<path d="M6645 23752 c-137 -49 -191 -73 -193 -85 -2 -9 2 -17 10 -17 7 0 99
30 204 66 166 58 191 69 187 85 -3 11 -8 19 -12 19 -3 -1 -91 -31 -196 -68z"/>
<path d="M7280 21080 c0 -11 3 -20 6 -20 8 0 333 -39 375 -45 30 -4 38 -2 42
15 4 16 -2 20 -37 25 -53 7 -373 45 -380 45 -3 0 -6 -9 -6 -20z"/>
<path d="M20508 21439 c18 -12 35 -19 38 -16 3 3 -8 13 -25 21 -43 23 -52 19
-13 -5z"/>
<path d="M17060 21220 c-13 -9 -13 -10 0 -10 8 0 22 5 30 10 13 9 13 10 0 10
-8 0 -22 -5 -30 -10z"/>
<path d="M17118 21123 c12 -2 30 -2 40 0 9 3 -1 5 -23 4 -22 0 -30 -2 -17 -4z"/>
<path d="M17220 20890 c0 -13 20 -13 40 0 12 8 9 10 -12 10 -16 0 -28 -4 -28
-10z"/>
<path d="M17977 20594 c-8 -8 1 -24 14 -24 5 0 9 7 9 15 0 15 -12 20 -23 9z"/>
<path d="M21608 20373 c-40 -54 -72 -112 -65 -120 3 -2 19 21 37 52 17 30 43
69 57 85 14 17 21 30 16 30 -5 0 -25 -21 -45 -47z"/>
<path d="M21641 20333 c-17 -21 -31 -44 -31 -52 0 -17 -2 -19 39 42 38 56 34
61 -8 10z"/>
<path d="M21866 20334 c-9 -8 -16 -20 -16 -26 0 -6 1 -9 3 -7 1 2 11 14 21 27
22 25 16 30 -8 6z"/>
<path d="M21903 20318 c-22 -26 -37 -48 -30 -48 3 0 17 16 31 35 30 39 30 46
-1 13z"/>
<path d="M21700 20305 c-7 -9 -11 -17 -9 -20 3 -2 10 5 17 15 14 24 10 26 -8
5z"/>
<path d="M21757 20293 c-4 -3 -7 -11 -7 -17 0 -6 5 -5 12 2 6 6 9 14 7 17 -3
3 -9 2 -12 -2z"/>
<path d="M21910 20275 c-7 -9 -11 -17 -9 -20 3 -2 10 5 17 15 14 24 10 26 -8
5z"/>
<path d="M21939 20243 c-13 -16 -12 -17 4 -4 16 13 21 21 13 21 -2 0 -10 -8
-17 -17z"/>
<path d="M21970 20209 c0 -5 5 -7 10 -4 6 3 10 8 10 11 0 2 -4 4 -10 4 -5 0
-10 -5 -10 -11z"/>
<path d="M21773 20135 c-3 -9 -3 -18 -1 -21 3 -3 8 4 11 16 6 23 -1 27 -10 5z"/>
<path d="M21812 20120 c0 -14 2 -19 5 -12 2 6 2 18 0 25 -3 6 -5 1 -5 -13z"/>
<path d="M21485 20020 c5 -82 21 -150 35 -150 4 0 4 17 -2 38 -6 20 -17 71
-24 112 l-14 75 5 -75z"/>
<path d="M22021 20030 c0 -19 4 -42 9 -50 7 -11 10 -8 9 15 0 17 -4 39 -9 50
-7 16 -9 14 -9 -15z"/>
<path d="M21971 20015 c0 -22 4 -47 9 -55 8 -12 9 -10 9 10 -1 14 -5 39 -9 55
-7 29 -8 29 -9 -10z"/>
<path d="M21555 20000 c8 -65 25 -121 34 -116 5 3 0 36 -10 73 -25 88 -30 99
-24 43z"/>
<path d="M21921 20010 c0 -14 4 -34 9 -45 8 -18 9 -18 9 5 0 14 -4 34 -9 45
-8 18 -9 18 -9 -5z"/>
<path d="M21634 19972 c3 -51 10 -71 21 -60 3 3 -1 30 -9 59 l-16 54 4 -53z"/>
<path d="M21782 19990 c0 -14 2 -19 5 -12 2 6 2 18 0 25 -3 6 -5 1 -5 -13z"/>
<path d="M21702 19965 c0 -16 2 -22 5 -12 2 9 2 23 0 30 -3 6 -5 -1 -5 -18z"/>
<path d="M21882 19970 c0 -14 2 -19 5 -12 2 6 2 18 0 25 -3 6 -5 1 -5 -13z"/>
<path d="M20317 20233 c-14 -13 -6 -33 12 -33 19 0 35 23 24 34 -8 8 -28 8
-36 -1z"/>
<path d="M14720 28580 c0 -18 7 -20 58 -20 33 0 127 -3 210 -7 148 -6 152 -6
152 14 0 19 -9 20 -152 26 -250 11 -268 10 -268 -13z"/>
<path d="M15562 28544 c3 -16 16 -20 78 -26 89 -9 298 -37 321 -44 11 -3 18 3
22 15 4 15 -1 21 -22 25 -60 13 -235 36 -316 42 -82 7 -87 6 -83 -12z"/>
<path d="M16395 28390 c-10 -16 0 -23 70 -50 85 -33 171 -77 237 -120 40 -27
59 -35 67 -27 6 6 11 14 11 18 0 13 -147 100 -237 139 -107 47 -138 56 -148
40z"/>
<path d="M16950 27827 c0 -42 -59 -143 -131 -227 -54 -63 -68 -85 -59 -93 9
-9 29 6 83 64 78 81 116 144 141 227 l15 52 -25 0 c-19 0 -24 -5 -24 -23z"/>
<path d="M16308 27214 c-48 -29 -127 -75 -177 -102 -75 -40 -88 -50 -80 -65 9
-15 14 -15 62 9 67 34 254 141 290 166 22 16 25 23 16 34 -6 8 -14 14 -18 13
-3 -1 -45 -25 -93 -55z"/>
<path d="M4310 22802 c-226 -121 -217 -115 -201 -140 6 -10 37 3 132 56 68 38
152 83 186 101 45 22 61 35 57 46 -4 8 -11 15 -18 15 -6 0 -76 -35 -156 -78z"/>
<path d="M3676 22499 c-14 -17 -26 -36 -26 -43 0 -24 -58 -93 -89 -106 -41
-17 -93 -2 -165 46 -62 41 -105 51 -146 34 -57 -24 -66 -84 -24 -168 51 -102
279 -305 375 -333 52 -16 83 -5 134 45 52 53 75 118 100 287 23 151 17 204
-24 241 -45 40 -100 39 -135 -3z"/>
<path d="M3977 21804 c-4 -4 -7 -13 -7 -20 0 -22 369 -172 391 -158 23 14 4
31 -58 53 -53 19 -213 85 -309 127 -5 3 -13 1 -17 -2z"/>
<path d="M3887 21670 c529 -744 2055 -2809 2963 -4010 791 -1046 2180 -2855
2228 -2900 20 -18 48 -58 -233 330 -1197 1652 -2615 3551 -3948 5283 -558 726
-987 1279 -1005 1297 -14 13 -15 13 -5 0z"/>
<path d="M4773 21515 c-3 -9 -4 -17 -2 -19 10 -10 401 -96 409 -91 31 19 -3
34 -187 78 -109 26 -202 47 -206 47 -4 0 -10 -7 -14 -15z"/>
<path d="M19745 20958 l-16 -33 21 24 c11 13 20 27 20 32 0 18 -10 8 -25 -23z"/>
<path d="M18600 20890 c-6 -12 -9 -24 -7 -27 3 -2 11 5 17 17 6 12 9 24 7 27
-3 2 -11 -5 -17 -17z"/>
<path d="M18493 20888 c-14 -17 -64 -118 -59 -118 6 0 77 122 73 127 -2 2 -9
-2 -14 -9z"/>
<path d="M21060 20850 c-20 -6 -21 -8 -5 -8 11 0 29 3 40 8 25 11 -1 11 -35 0z"/>
<path d="M21095 20810 c-13 -5 -14 -9 -5 -9 8 0 24 4 35 9 13 5 14 9 5 9 -8 0
-24 -4 -35 -9z"/>
<path d="M21225 20771 c-6 -5 -35 -18 -65 -29 -30 -12 -50 -21 -43 -21 19 -1
122 39 128 50 8 11 -8 12 -20 0z"/>
<path d="M21010 20699 c-36 -10 -49 -16 -29 -14 41 6 131 33 109 33 -8 0 -44
-8 -80 -19z"/>
<path d="M21289 20691 c-80 -35 -172 -55 -339 -76 l-125 -16 -43 -42 c-51 -49
-69 -80 -78 -135 -6 -39 -6 -39 32 -47 56 -10 386 4 469 21 75 15 239 90 269
123 18 20 18 22 1 67 -17 44 -92 134 -111 134 -5 -1 -39 -14 -75 -29z m115
-46 c18 -20 40 -50 47 -67 11 -28 10 -32 -12 -49 -30 -24 -136 -76 -170 -84
-24 -6 -26 -3 -41 62 -9 37 -19 78 -23 91 -6 18 -3 24 12 28 11 3 42 16 69 29
66 32 78 31 118 -10z m-212 -90 c9 -27 18 -66 20 -85 3 -33 2 -35 -37 -41 -22
-4 -80 -10 -129 -14 l-89 -7 6 81 c4 45 9 86 12 92 4 5 27 10 53 10 26 1 61 5
77 9 57 15 69 9 87 -45z m-247 -17 c-4 -24 -9 -63 -10 -88 l-2 -45 -101 -3
c-118 -3 -123 2 -74 79 48 74 85 97 155 98 l39 1 -7 -42z"/>
<path d="M21324 20597 c-11 -17 -29 -45 -38 -62 l-18 -30 22 28 c12 15 26 25
30 22 11 -7 32 30 23 38 -3 4 0 13 7 22 7 8 9 15 4 15 -5 0 -18 -15 -30 -33z
m9 -22 c-3 -9 -8 -14 -10 -11 -3 3 -2 9 2 15 9 16 15 13 8 -4z"/>
<path d="M21270 20600 c-6 -11 -8 -20 -6 -20 3 0 10 9 16 20 6 11 8 20 6 20
-3 0 -10 -9 -16 -20z"/>
<path d="M21056 20510 c-57 -61 -61 -78 -5 -25 37 36 66 75 56 75 -2 0 -25
-22 -51 -50z"/>
<path d="M21005 20530 c-10 -11 -13 -20 -7 -20 6 0 16 9 22 20 6 11 9 20 7 20
-2 0 -12 -9 -22 -20z"/>
<path d="M21080 20488 l-23 -33 28 27 c16 15 26 30 23 33 -3 4 -16 -9 -28 -27z"/>
<path d="M20830 20473 c-35 -35 -38 -41 -15 -26 37 26 82 73 69 73 -5 0 -30
-21 -54 -47z"/>
<path d="M18468 20693 c-39 -45 -29 -112 21 -133 64 -26 126 40 100 108 -6 15
-16 30 -22 34 -23 14 -83 8 -99 -9z m90 -54 c4 -46 -18 -67 -53 -51 -18 8 -25
19 -25 40 0 36 18 54 50 50 21 -3 26 -9 28 -39z"/>
<path d="M18257 20689 c-25 -15 -38 -54 -27 -83 18 -48 102 -53 136 -8 17 22
18 74 2 90 -15 15 -86 15 -111 1z m92 -33 c12 -14 5 -46 -13 -58 -22 -16 -65
-8 -76 13 -9 16 -8 25 6 40 20 22 66 25 83 5z"/>
<path d="M19505 20690 c-247 -3 -451 -7 -452 -8 -22 -15 78 -18 515 -14 l517
4 -70 -72 c-150 -153 -453 -411 -770 -652 -88 -68 -195 -150 -237 -185 -107
-86 -111 -87 -161 -69 -126 46 -505 151 -514 143 -2 -3 11 -8 29 -12 38 -8
203 -57 392 -117 116 -36 127 -42 113 -56 -14 -14 -25 -13 -115 11 -54 15
-105 27 -113 26 -8 0 30 -13 84 -27 54 -15 98 -31 98 -35 -1 -11 -299 -231
-440 -325 l-113 -75 -67 20 c-36 11 -75 23 -86 27 -28 9 52 -31 95 -47 l35
-14 -28 -14 c-23 -10 -37 -10 -70 -1 -118 34 -304 82 -317 81 -8 0 32 -14 90
-30 196 -55 240 -70 240 -79 0 -13 -5 -13 -94 6 -42 8 -82 14 -88 12 -7 -3 23
-10 65 -18 43 -7 80 -16 82 -20 3 -4 -59 -36 -138 -70 -143 -63 -231 -109
-224 -117 7 -6 300 112 369 149 187 99 984 682 1307 956 75 63 90 72 116 67
28 -5 28 -4 10 9 -19 14 -19 15 -2 21 9 4 35 0 57 -9 22 -9 40 -13 40 -10 0 3
-16 12 -35 20 -20 8 -33 19 -30 24 9 14 32 12 66 -6 17 -8 33 -13 36 -10 4 3
-10 13 -30 21 -21 8 -37 17 -37 19 0 2 44 41 98 87 53 46 161 147 240 223
l143 140 70 -3 c81 -3 94 14 17 23 -105 12 -251 13 -693 6z"/>
<path d="M18687 20672 c-10 -10 -17 -35 -17 -55 0 -70 84 -88 119 -25 13 22
13 30 -3 62 -14 31 -22 36 -50 36 -19 0 -40 -8 -49 -18z m68 -42 c15 -16 15
-22 5 -35 -25 -31 -63 -4 -53 36 7 25 25 24 48 -1z"/>
<path d="M20903 20673 c9 -2 23 -2 30 0 6 3 -1 5 -18 5 -16 0 -22 -2 -12 -5z"/>
<path d="M19803 20633 c9 -2 23 -2 30 0 6 3 -1 5 -18 5 -16 0 -22 -2 -12 -5z"/>
<path d="M19893 20623 c26 -2 67 -2 90 0 23 2 2 3 -48 3 -49 0 -68 -1 -42 -3z"/>
<path d="M20180 20616 c0 -2 15 -9 33 -15 29 -10 30 -9 13 4 -18 14 -46 20
-46 11z"/>
<path d="M19368 20603 c23 -2 59 -2 80 0 20 2 1 4 -43 4 -44 0 -61 -2 -37 -4z"/>
<path d="M19513 20593 c15 -2 39 -2 55 0 15 2 2 4 -28 4 -30 0 -43 -2 -27 -4z"/>
<path d="M17433 20583 c9 -2 23 -2 30 0 6 3 -1 5 -18 5 -16 0 -22 -2 -12 -5z"/>
<path d="M19600 20587 c11 -11 319 -28 337 -18 13 8 -8 10 -83 11 -56 0 -137
3 -180 6 -43 4 -77 4 -74 1z"/>
<path d="M20140 20576 c19 -7 46 -16 60 -20 l25 -7 -25 14 c-14 8 -41 17 -60
21 l-35 6 35 -14z"/>
<path d="M17375 20570 c11 -5 27 -9 35 -9 9 0 8 4 -5 9 -11 5 -27 9 -35 9 -9
0 -8 -4 5 -9z"/>
<path d="M19560 20540 c14 -4 39 -8 55 -8 l30 0 -30 8 c-16 4 -41 8 -55 8
l-25 0 25 -8z"/>
<path d="M20100 20537 c0 -3 15 -10 32 -16 18 -6 28 -7 23 -2 -12 10 -55 25
-55 18z"/>
<path d="M19810 20515 c66 -17 77 -18 65 -6 -6 5 -35 12 -65 15 l-55 6 55 -15z"/>
<path d="M15750 20498 c0 -24 16 -26 233 -32 176 -4 187 -4 187 14 0 16 -12
19 -102 24 -57 3 -151 7 -211 9 -96 2 -107 0 -107 -15z"/>
<path d="M16570 20470 c0 -18 7 -20 68 -20 37 0 84 -3 105 -6 32 -6 37 -4 37
13 0 24 -38 33 -142 33 -61 0 -68 -2 -68 -20z"/>
<path d="M21330 20340 l-55 -7 60 -1 c33 0 78 3 100 7 l40 9 -45 -1 c-25 0
-70 -3 -100 -7z"/>
<path d="M17080 20285 c19 -7 42 -13 50 -13 8 0 -1 6 -20 13 -19 7 -42 13 -50
13 -8 0 1 -6 20 -13z"/>
<path d="M21383 20283 c9 -2 23 -2 30 0 6 3 -1 5 -18 5 -16 0 -22 -2 -12 -5z"/>
<path d="M18684 20259 c44 -11 81 -17 83 -15 5 5 -130 36 -149 35 -7 -1 23
-10 66 -20z"/>
<path d="M19360 20254 c85 -27 87 -27 75 -15 -10 9 -125 42 -141 40 -5 0 25
-11 66 -25z"/>
<path d="M17030 20266 c0 -2 9 -6 20 -9 11 -3 18 -1 14 4 -5 9 -34 13 -34 5z"/>
<path d="M19240 20246 c0 -6 105 -36 122 -35 7 0 -14 9 -47 20 -62 19 -75 22
-75 15z"/>
<path d="M21350 20240 c-22 -7 -21 -8 13 -9 20 -1 37 4 37 9 0 11 -14 11 -50
0z"/>
<path d="M16907 19728 c-1254 -1412 -2564 -2943 -3713 -4338 -115 -140 -263
-319 -327 -397 -65 -79 -115 -143 -113 -143 7 0 721 805 1172 1320 1086 1242
2122 2464 3202 3778 100 122 180 222 177 222 -3 0 -182 -199 -398 -442z"/>
<path d="M19155 20160 c11 -5 27 -9 35 -9 9 0 8 4 -5 9 -11 5 -27 9 -35 9 -9
0 -8 -4 5 -9z"/>
<path d="M19240 20135 c19 -7 42 -13 50 -13 8 0 -1 6 -20 13 -19 7 -42 13 -50
13 -8 0 1 -6 20 -13z"/>
<path d="M19109 20109 c30 -10 57 -17 59 -14 3 2 -1 6 -9 9 -8 2 -29 9 -48 15
-58 19 -59 11 -2 -10z"/>
<path d="M19340 20105 c19 -7 42 -13 50 -13 8 0 -1 6 -20 13 -19 7 -42 13 -50
13 -8 0 1 -6 20 -13z"/>
<path d="M18545 19851 c11 -4 36 -11 55 -15 24 -4 29 -3 15 3 -11 4 -36 11
-55 15 -24 4 -29 3 -15 -3z"/>
<path d="M17903 19373 c9 -14 67 -35 67 -24 0 5 -8 11 -17 14 -10 2 -27 8 -37
13 -13 5 -17 4 -13 -3z"/>
<path d="M17065 18812 c14 -14 285 -155 290 -151 1 2 -65 39 -148 82 -84 44
-147 74 -142 69z"/>
<path d="M17445 18755 c22 -14 47 -25 55 -24 16 0 -68 48 -85 48 -5 0 8 -11
30 -24z"/>
<path d="M17044 18671 c10 -15 117 -83 122 -78 5 5 -111 87 -122 87 -3 0 -3
-4 0 -9z"/>
<path d="M17185 18660 c9 -14 85 -52 85 -42 0 4 -21 18 -46 30 -25 12 -43 18
-39 12z"/>
<path d="M7092 17665 c567 -807 1378 -1861 2106 -2737 205 -248 262 -311 189
-210 -19 26 -105 146 -192 267 -568 790 -1237 1652 -1924 2480 -186 225 -235
279 -179 200z"/>
<path d="M9510 14876 c0 -2 8 -10 18 -17 15 -13 16 -12 3 4 -13 16 -21 21 -21
13z"/>
<path d="M9540 14836 c0 -2 8 -10 18 -17 15 -13 16 -12 3 4 -13 16 -21 21 -21
13z"/>
<path d="M12419 14823 c-13 -16 -12 -17 4 -4 16 13 21 21 13 21 -2 0 -10 -8
-17 -17z"/>
<path d="M12389 14783 c-13 -16 -12 -17 4 -4 9 7 17 15 17 17 0 8 -8 3 -21
-13z"/>
<path d="M9090 14736 c0 -2 8 -10 18 -17 15 -13 16 -12 3 4 -13 16 -21 21 -21
13z"/>
<path d="M10300 14424 c-134 -8 -491 -46 -655 -70 -417 -62 -772 -161 -917
-257 -71 -48 -190 -172 -250 -262 -101 -153 -236 -429 -312 -639 -81 -221
-146 -505 -171 -742 -8 -78 8 -168 40 -216 33 -49 54 -50 23 0 -37 60 -33 187
14 373 85 337 197 618 374 934 173 311 301 442 503 515 356 130 913 236 1426
271 103 7 470 12 930 13 732 1 768 0 969 -22 242 -27 424 -56 703 -111 232
-46 356 -85 472 -147 94 -50 117 -53 44 -6 -133 86 -289 136 -667 217 -336 72
-637 114 -951 134 -149 10 -1451 22 -1575 15z"/>
<path d="M13821 13633 c88 -184 181 -410 227 -553 22 -69 75 -280 117 -470 43
-190 81 -349 85 -353 13 -15 32 92 37 213 6 144 -14 272 -66 430 -47 139 -148
363 -232 514 -81 145 -208 346 -219 346 -5 0 18 -57 51 -127z"/>
<path d="M9588 13500 c-20 -11 -39 -24 -42 -29 -3 -5 74 -111 171 -237 102
-131 172 -229 165 -232 -16 -5 -42 -55 -42 -79 0 -28 64 -180 86 -204 24 -27
67 -49 94 -49 17 0 20 6 20 44 0 63 -10 83 -79 156 -47 49 -61 72 -61 94 0 19
4 26 9 20 26 -26 261 -328 258 -331 -2 -2 -76 -10 -163 -18 -320 -31 -589 -88
-984 -208 -217 -67 -469 -162 -458 -173 3 -3 41 4 85 15 131 34 476 108 678
146 271 51 421 72 655 90 113 8 307 29 431 45 352 45 502 53 889 47 427 -8
729 -30 1250 -93 422 -50 743 -125 1201 -278 104 -34 189 -60 189 -56 0 9
-413 161 -585 215 -182 57 -414 116 -552 141 -87 16 -102 21 -98 35 14 42
-424 628 -605 810 -65 66 -82 78 -125 87 -29 6 -66 7 -85 3 -39 -9 -96 -36
-104 -50 -3 -4 73 -109 168 -232 l174 -224 -19 -21 c-35 -38 -34 -81 5 -174
21 -52 47 -96 66 -112 17 -16 25 -28 19 -28 -6 0 -111 11 -233 25 -486 54
-922 73 -1266 56 -124 -7 -232 -14 -241 -17 -12 -3 -53 47 -152 188 -212 301
-457 592 -528 628 -51 26 -141 26 -191 0z m134 -46 c16 -8 49 -46 75 -87 104
-162 235 -342 370 -509 121 -150 140 -178 120 -178 -16 0 -61 43 -169 163 -80
89 -239 263 -352 387 -113 123 -202 228 -198 231 23 22 105 18 154 -7z m2228
-56 c38 -20 61 -48 170 -210 103 -155 221 -311 408 -540 l23 -28 -23 0 c-18 0
-59 39 -165 158 -77 86 -236 261 -352 387 -116 127 -211 233 -211 237 0 7 34
14 80 17 14 0 46 -9 70 -21z m322 -625 c68 -87 128 -164 132 -171 6 -10 -2
-11 -36 -7 -90 13 -88 11 -88 60 0 63 -12 86 -79 157 -44 46 -61 71 -61 91 0
15 2 27 4 27 2 0 60 -71 128 -157z"/>
<path d="M6836 12674 c-98 -31 -187 -111 -234 -212 -22 -47 -26 -71 -26 -137
0 -70 4 -88 31 -140 38 -74 102 -137 168 -167 92 -41 282 -23 342 34 35 33 27
40 -13 13 -46 -31 -83 -38 -187 -34 -72 4 -90 8 -133 34 -29 18 -64 53 -87 85
-76 111 -71 237 13 333 79 89 161 118 262 92 87 -22 138 -59 171 -125 27 -52
28 -61 26 -182 l-2 -126 69 -89 c135 -173 284 -339 284 -316 0 14 -129 265
-183 355 l-46 78 6 103 c5 89 3 114 -15 174 -36 119 -119 192 -259 228 -71 18
-123 18 -187 -1z"/>
<path d="M15213 12670 c-172 -61 -267 -234 -236 -430 l9 -55 -67 -105 c-86
-136 -169 -284 -169 -301 0 -18 136 117 258 255 l96 109 -3 104 c-3 144 14
199 83 268 44 44 62 55 108 64 121 26 259 -43 309 -154 21 -45 25 -148 9 -207
-19 -68 -70 -130 -133 -162 -50 -26 -68 -30 -135 -29 -42 1 -99 8 -127 17 -27
8 -51 13 -54 11 -9 -10 89 -45 155 -56 211 -36 374 113 374 341 0 91 -23 150
-81 215 -108 117 -264 163 -396 115z"/>
<path d="M10685 12430 c-808 -36 -1538 -206 -2225 -519 -251 -115 -381 -194
-538 -326 -91 -76 -192 -175 -179 -175 4 0 47 30 95 67 286 219 640 379 1190
539 727 211 1322 299 2092 311 949 14 1500 -65 2292 -328 467 -155 656 -248
988 -489 109 -79 162 -131 189 -184 29 -59 27 -76 -7 -76 -54 0 -179 -42 -284
-95 -98 -50 -138 -64 -138 -50 0 16 149 250 196 308 31 38 54 71 51 73 -8 9
-133 -133 -191 -216 -222 -320 -362 -567 -479 -840 -25 -58 -131 -301 -237
-540 -214 -485 -458 -1049 -587 -1360 -122 -294 -183 -402 -303 -533 -76 -83
-295 -256 -370 -291 l-65 -31 -1051 -9 c-963 -8 -1054 -7 -1085 8 -48 23 -256
180 -344 259 -147 134 -264 324 -370 607 -63 167 -64 170 -325 760 -125 283
-267 607 -315 720 -47 113 -116 275 -152 360 -184 433 -397 797 -616 1053 -71
83 -71 62 1 -25 72 -89 210 -291 281 -412 121 -205 198 -376 414 -911 69 -170
206 -501 305 -735 207 -490 291 -693 373 -909 109 -282 192 -417 347 -563 59
-56 206 -175 276 -224 11 -7 18 -16 15 -18 -3 -3 -59 6 -125 19 -66 14 -131
23 -147 19 -40 -8 -94 -59 -102 -94 -4 -17 -8 -30 -10 -30 -34 0 -770 72 -774
75 -2 3 9 63 26 133 42 172 44 185 32 241 -15 72 -64 122 -164 172 -146 73
-219 65 -318 -34 -73 -73 -132 -180 -173 -312 -15 -49 -28 -91 -29 -93 -1 -1
-26 8 -56 22 -79 34 -185 70 -654 216 -898 281 -936 296 -1007 402 l-28 41 20
22 c27 28 26 39 -14 206 -119 495 -146 978 -75 1334 145 723 683 1254 1274
1257 158 1 269 -31 416 -118 32 -19 51 -25 65 -19 17 7 15 9 -11 15 -16 4 -57
24 -89 44 -73 44 -148 73 -241 93 -72 15 -93 23 -59 23 15 0 23 12 33 45 20
69 13 77 -50 57 -60 -19 -86 -50 -70 -81 6 -11 11 -22 11 -25 0 -3 -31 -6 -69
-6 -185 0 -428 -83 -618 -211 -377 -255 -637 -718 -709 -1264 -13 -94 -15
-175 -11 -375 6 -308 29 -515 88 -801 l20 -96 -35 -57 c-52 -87 -60 -133 -53
-340 8 -255 41 -406 123 -555 48 -86 204 -242 297 -295 65 -38 68 -41 63 -70
-40 -217 -54 -461 -37 -650 16 -176 47 -341 75 -401 33 -71 99 -133 161 -150
87 -24 282 -38 460 -33 201 6 256 20 320 79 70 65 75 94 84 481 4 199 10 291
18 299 9 9 60 7 217 -6 l205 -18 30 -42 c33 -46 114 -112 176 -143 108 -54
267 -71 353 -38 130 50 122 48 247 42 66 -3 161 -13 210 -22 50 -9 134 -18
187 -18 96 -1 98 -2 107 -27 5 -14 23 -42 40 -62 56 -63 80 -67 516 -77 215
-6 647 -17 960 -26 650 -19 1290 -21 1478 -5 154 13 208 33 269 100 24 26 48
55 53 65 9 16 44 21 275 40 l265 22 60 -24 c72 -30 188 -40 266 -23 80 17 189
75 258 138 57 51 63 54 99 48 34 -5 329 45 429 74 l32 9 7 -56 c4 -32 3 -163
-1 -292 -13 -359 -12 -369 46 -435 62 -71 220 -102 458 -92 242 11 420 63 469
136 77 118 130 474 111 757 -8 122 -31 302 -45 345 -3 12 18 32 79 72 156 104
257 235 316 410 44 130 62 251 68 462 6 222 -1 261 -51 300 -19 14 -37 37 -40
50 -3 13 5 70 19 127 222 928 90 1730 -364 2209 -259 274 -547 423 -849 437
-93 4 -115 8 -119 21 -12 40 -37 88 -64 122 -32 41 -279 233 -402 314 -389
253 -1273 551 -1912 644 -389 57 -1120 90 -1560 71z m4229 -1224 c219 -56 435
-192 628 -395 398 -418 540 -1109 393 -1914 -14 -76 -39 -190 -55 -253 -34
-132 -36 -151 -15 -201 l15 -36 -52 -51 c-29 -28 -80 -65 -113 -82 -92 -49
-442 -170 -840 -292 -333 -102 -506 -160 -678 -225 -49 -19 -69 -23 -72 -14
-3 7 -16 50 -31 97 -34 111 -73 178 -151 261 -110 116 -178 133 -298 75 -93
-45 -149 -87 -182 -137 -38 -57 -36 -132 5 -266 18 -55 32 -105 32 -111 0 -13
-175 -40 -370 -57 -91 -8 -181 -19 -200 -25 -55 -16 -98 -12 -143 14 -80 46
-185 54 -392 29 l-50 -6 102 76 c218 163 326 275 425 443 57 97 83 155 256
579 61 149 170 414 242 590 73 176 228 560 346 854 214 532 243 596 364 808
55 96 69 113 95 119 17 3 80 30 140 60 101 49 184 75 275 87 72 10 229 -3 324
-27z m-8412 -2957 c60 -43 113 -69 305 -148 93 -38 276 -114 408 -169 133 -55
284 -114 335 -131 110 -37 309 -75 475 -93 96 -10 114 -14 111 -27 -20 -73
-31 -191 -31 -341 1 -189 16 -298 59 -436 14 -43 24 -80 22 -81 -2 -2 -57 12
-122 31 -271 77 -293 81 -322 64 -26 -16 -34 -14 -197 46 -325 120 -670 278
-820 376 -169 111 -291 271 -334 441 -43 169 -58 497 -26 576 l17 43 39 -60
c21 -32 57 -73 81 -91z m9413 125 c25 -16 25 -18 25 -168 0 -424 -95 -675
-314 -830 -173 -123 -628 -302 -1018 -400 -194 -49 -465 -102 -474 -93 -3 3 1
39 10 81 40 193 44 421 11 622 -8 49 -15 94 -15 100 0 7 36 13 93 17 274 19
504 90 1057 327 391 167 503 231 565 320 15 22 30 40 32 40 2 0 15 -7 28 -16z
m-2077 -329 c137 -126 205 -368 206 -730 1 -184 -8 -265 -46 -408 -11 -42 -18
-91 -16 -108 4 -28 1 -32 -51 -58 -154 -78 -311 -96 -423 -50 l-27 11 24 32
c35 46 72 130 91 211 13 53 18 117 18 260 1 165 -2 201 -21 278 -22 86 -22 88
-4 106 19 19 19 22 -20 173 -27 101 -38 164 -34 185 7 38 54 81 135 124 79 42
98 39 168 -26z m-5259 30 c62 -22 130 -72 137 -102 4 -15 -5 -90 -20 -172 -33
-184 -46 -299 -46 -426 1 -235 63 -501 150 -639 l29 -45 -47 -21 c-95 -43
-198 -36 -312 22 -75 37 -164 122 -190 180 -36 83 -63 261 -63 418 0 168 12
255 59 428 44 159 81 237 151 312 61 66 78 71 152 45z m1420 -477 l46 -23
1061 -9 1062 -9 73 23 c65 20 93 22 242 21 190 -2 243 -13 301 -63 l38 -33
-16 -355 c-21 -465 -22 -556 -6 -575 11 -13 9 -20 -11 -41 -53 -57 -93 -69
-224 -69 -66 0 -211 6 -323 13 -350 21 -846 16 -2309 -24 -286 -8 -315 -3
-374 63 -28 32 -30 41 -24 77 3 23 6 220 5 438 0 218 3 421 6 452 l7 56 53 0
c29 0 65 5 81 11 15 6 67 16 114 24 47 7 99 19 115 28 16 8 31 15 33 16 3 1
25 -9 50 -21z m-761 -49 l274 -34 -6 -30 c-3 -16 -11 -208 -16 -425 -6 -217
-12 -401 -15 -409 -7 -18 -118 -9 -296 24 -84 16 -167 25 -230 25 l-99 0 -24
38 c-25 38 -54 139 -77 272 -24 133 -13 544 16 590 4 7 19 5 473 -51z m4316
-42 c13 -116 -15 -314 -69 -492 -14 -44 -30 -116 -36 -160 -17 -116 -20 -122
-66 -122 -21 -1 -143 -18 -271 -38 -127 -21 -234 -36 -236 -34 -6 6 -28 542
-30 714 l-1 140 70 7 c39 3 156 11 262 18 106 6 221 15 255 19 122 16 115 19
122 -52z m-6722 -338 c231 -102 541 -205 780 -259 l98 -22 -14 -27 c-26 -50
-44 -209 -65 -580 -7 -129 -8 -135 -34 -157 -66 -56 -255 -80 -504 -64 -106 7
-176 16 -194 26 -43 22 -77 64 -98 119 -25 66 -66 256 -82 375 -22 168 -14
630 11 630 5 0 51 -18 102 -41z m8725 -56 c16 -171 8 -456 -16 -597 -40 -227
-86 -357 -141 -398 -87 -64 -470 -71 -677 -12 -78 22 -84 40 -94 254 -8 180
-25 292 -60 406 -11 36 -19 67 -17 68 2 2 44 13 93 26 228 59 565 183 770 284
61 30 115 55 122 55 7 1 14 -31 20 -86z"/>
<path d="M14683 10163 c-65 -6 -51 -19 28 -27 82 -7 201 -45 267 -83 206 -121
338 -395 303 -629 -37 -250 -223 -453 -468 -510 -83 -20 -252 -14 -330 10
-124 39 -252 156 -321 293 -92 181 -98 412 -15 582 65 134 258 282 436 333 24
6 35 13 25 15 -24 6 -162 -43 -243 -85 -104 -55 -215 -165 -264 -263 -56 -111
-75 -206 -69 -343 9 -191 74 -341 205 -473 131 -130 294 -190 488 -179 121 6
194 25 300 76 147 71 246 169 318 313 50 99 67 174 67 288 0 196 -67 357 -209
500 -91 91 -178 143 -283 168 -56 13 -176 21 -235 14z"/>
<path d="M14563 9732 c-138 -243 -148 -265 -152 -354 -2 -44 1 -84 6 -89 13
-13 88 63 115 115 17 32 117 414 118 449 1 25 -24 -8 -87 -121z"/>
<path d="M14917 9598 c-33 -51 -118 -204 -162 -292 -40 -78 -48 -105 -52 -162
-5 -85 4 -103 40 -79 56 36 97 116 132 256 43 169 68 289 62 296 -3 2 -12 -6
-20 -19z"/>
<path d="M10075 7414 c-55 -20 -62 -30 -40 -54 17 -19 16 -25 -65 -217 -81
-194 -147 -366 -157 -410 -4 -17 1 -25 21 -34 16 -8 30 -9 36 -3 5 5 29 67 53
139 l44 130 21 -41 c44 -87 213 -234 268 -234 25 0 46 41 25 48 -17 6 -100 73
-140 113 -43 43 -111 128 -111 139 0 5 28 18 63 29 175 59 300 182 282 278
-18 98 -179 161 -300 117z m178 -75 c13 -6 31 -24 41 -39 15 -26 15 -33 2 -63
-16 -40 -85 -96 -162 -132 -61 -29 -114 -42 -114 -28 0 12 110 255 123 271 12
15 68 10 110 -9z"/>
<path d="M10526 7318 c-9 -12 -16 -35 -16 -50 0 -23 4 -28 23 -28 35 0 71 43
63 74 -8 33 -48 35 -70 4z"/>
<path d="M12194 7302 c-43 -20 -99 -79 -129 -136 -19 -34 -19 -36 0 -55 14
-16 30 -21 72 -21 47 0 59 -4 85 -30 28 -28 30 -35 25 -83 -4 -45 -10 -56 -46
-88 -53 -47 -123 -67 -157 -44 -54 35 -74 0 -28 -50 23 -25 30 -27 78 -22 102
10 197 85 211 166 17 101 -28 179 -119 203 -25 7 -46 16 -46 21 0 5 16 25 35
43 41 38 98 57 144 48 26 -5 31 -3 31 12 0 34 -17 47 -66 51 -34 2 -61 -2 -90
-15z"/>
<path d="M11295 7281 c-44 -20 -120 -96 -153 -152 -33 -55 -53 -143 -43 -194
15 -82 80 -155 138 -155 67 0 148 85 194 204 28 70 33 95 35 183 l2 102 -33
15 c-44 21 -91 20 -140 -3z m106 -83 c4 -7 5 -42 2 -78 -11 -128 -103 -270
-173 -270 -40 0 -70 47 -70 111 0 57 45 159 92 209 29 31 40 35 87 38 35 1 58
-2 62 -10z"/>
<path d="M10765 7263 c-63 -32 -60 -28 -42 -57 17 -26 43 -26 82 1 20 14 72
17 99 7 39 -15 5 -67 -159 -243 -63 -68 -115 -131 -115 -141 0 -20 31 -50 51
-50 8 0 43 9 79 20 36 11 108 23 160 27 52 3 97 7 99 10 3 2 -5 14 -17 26 -20
19 -33 22 -110 22 -48 -1 -102 -6 -119 -12 -18 -7 -33 -8 -33 -3 0 5 48 57
106 117 152 155 171 208 98 273 -45 39 -107 40 -179 3z"/>
<path d="M11668 7265 c-57 -30 -61 -36 -43 -62 16 -23 43 -21 80 4 20 14 72
17 99 7 41 -16 8 -65 -167 -253 -59 -62 -107 -121 -107 -131 0 -21 31 -50 52
-50 9 0 45 9 80 20 34 11 106 23 158 26 52 4 96 8 98 9 2 2 -1 12 -7 24 -19
34 -168 41 -247 11 -13 -5 -24 -6 -24 -1 0 4 33 41 74 82 165 165 195 218 161
277 -39 65 -123 80 -207 37z"/>
<path d="M10443 6956 c-18 -90 -44 -190 -58 -222 -52 -117 -105 -157 -126 -94
-6 17 -18 30 -26 30 -26 0 -10 -80 22 -107 40 -35 72 -30 121 21 45 48 71 106
109 250 51 189 53 286 7 286 -14 0 -23 -29 -49 -164z"/>
<path d="M10352 11560 c-209 -27 -553 -123 -752 -210 -111 -49 -263 -130 -256
-137 2 -3 58 16 123 40 138 53 380 120 508 141 148 25 264 35 595 51 347 17
420 23 420 34 0 10 -155 57 -235 71 -83 15 -315 21 -403 10z"/>
<path d="M11910 11515 c-8 -2 -75 -9 -148 -15 -73 -7 -135 -16 -138 -21 -3 -5
50 -9 118 -9 151 0 400 -15 573 -35 118 -14 658 -118 848 -164 42 -10 79 -15
81 -12 7 11 -107 90 -189 130 -44 22 -121 51 -170 66 -175 50 -245 57 -615 61
-190 1 -352 1 -360 -1z"/>
<path d="M11196 11213 c-19 -197 -46 -646 -46 -770 0 -132 11 -226 40 -332 6
-22 15 -41 20 -41 4 0 18 42 31 93 32 135 35 305 10 657 -31 431 -33 460 -41
460 -4 0 -10 -30 -14 -67z"/>
<path d="M7496 10153 c-4 -4 32 -13 81 -20 248 -36 408 -146 509 -353 51 -102
67 -185 61 -315 -5 -131 -24 -190 -98 -300 -124 -186 -300 -273 -524 -262
-122 6 -197 30 -298 96 -181 118 -276 295 -277 512 0 293 173 522 465 615 41
13 60 23 45 23 -42 1 -218 -65 -277 -104 -175 -116 -280 -312 -290 -540 -6
-136 10 -215 69 -329 51 -98 170 -222 268 -279 197 -114 442 -127 642 -34 191
89 341 267 393 467 87 332 -150 738 -476 815 -66 15 -280 21 -293 8z"/>
<path d="M9150 10048 c0 -27 580 -1570 612 -1628 117 -212 332 -399 540 -470
97 -34 233 -54 298 -45 146 20 200 45 97 45 -283 0 -583 185 -805 496 -44 62
-88 149 -186 375 -239 545 -537 1214 -547 1224 -5 5 -9 6 -9 3z"/>
<path d="M12968 9608 c-108 -244 -258 -585 -334 -758 -145 -331 -170 -378
-289 -518 -198 -236 -470 -382 -710 -382 -75 0 -76 -15 -2 -31 282 -62 611 77
832 353 90 114 117 170 255 538 263 702 450 1215 448 1228 -2 7 -91 -186 -200
-430z"/>
<path d="M7448 9764 c-31 -55 -82 -149 -114 -210 -54 -106 -57 -115 -58 -187
0 -42 3 -79 7 -83 10 -11 84 62 112 111 25 43 118 412 113 447 -2 15 -19 -8
-60 -78z"/>
<path d="M7723 9492 c-136 -239 -147 -266 -151 -349 -5 -99 5 -109 59 -58 59
58 82 110 127 300 52 216 55 235 45 235 -4 0 -40 -57 -80 -128z"/>
<path d="M11277 9000 c-7 -16 -28 -172 -48 -352 -6 -59 -9 -135 -6 -170 5 -63
42 -178 56 -178 26 0 78 195 67 248 -3 15 -15 110 -26 210 -23 204 -34 265
-43 242z"/>
</g>
</svg>
