<?xml version="1.0" encoding="UTF-8"?>
<svg id="Layer_1" xmlns="http://www.w3.org/2000/svg" xmlns:xlink="http://www.w3.org/1999/xlink" version="1.1" viewBox="0 0 595.28 841.89">
  <!-- Generator: Adobe Illustrator 29.3.1, SVG Export Plug-In . SVG Version: 2.1.0 Build 151)  -->
  <defs>
    <style>
      .st0, .st1, .st2, .st3, .st4, .st5 {
        fill: none;
      }

      .st1, .st2, .st3, .st6, .st4 {
        stroke-miterlimit: 10;
      }

      .st1, .st2, .st3, .st6, .st4, .st5 {
        stroke: #303d2f;
      }

      .st1, .st3, .st5 {
        stroke-width: 4px;
      }

      .st3 {
        stroke-dasharray: 10.17 10.17;
      }

      .st6, .st7 {
        fill: #303d2f;
      }

      .st6, .st4 {
        stroke-width: 2px;
      }

      .st8 {
        clip-path: url(#clippath);
      }

      .st5 {
        stroke-linecap: round;
        stroke-linejoin: round;
      }
    </style>
    <clipPath id="clippath">
      <path class="st4" d="M385.24,205.8c-19.12-43.26-51.87-72.23-97.08-73.83-26.61-1.7-52.7-.82-76.56,11.73-17.37,9.14-40.08,26.4-52.58,42.06-37.29,46.76-33.62,117.22,3.26,164.33,28.9,36.91,55.59,58.16,100.94,56.43,45.35-1.73,113.3-22.97,130.81-67.13,15.3-38.6,7.97-95.67-8.79-133.59Z"/>
    </clipPath>
  </defs>
  <g id="_x37_">
    <path class="st2" d="M517.49,352.23c.55-.59,1.01-1.24,1.71-1.81-.74-.18-1.38-.4-2.04-.49-.46-.06-.64-.25-.74-.66-.22-.93-.46-1.86-.99-2.68-1.52-2.35-3.3-4.47-5.88-5.75-1.61-.8-3.37-1.21-5.15-1.4-1.92-.2-3.85-.31-5.77-.47-.31-.03-.45.06-.61.36-.37.72-.81,1.4-1.25,2.09-.15.24-.24.51-.42.74.12-1.2.91-2.12,1.45-3.17-.47-.12-.94-.05-1.4-.08-.08,0-.13.04-.19.1-.8.8-1.51,1.68-2.19,2.58-.1.13-.17.28-.19.51-.17-.4-.06-.69.67-1.68.36-.5.77-.96,1.18-1.48-.48-.07-.97-.12-1.39,0-.34.1-.58.47-.8.78-.97,1.44-1.93,2.88-2.69,4.44-.03.05-.04.12-.12.12-.07-.63,2.13-4.42,3.09-5.34-1.07-.11-2.14-.21-3.2-.34-2.06-.26-4.14-.28-6.21-.33-3.96-.1-7.92-.21-11.88-.33-.26,0-.39.04-.53.32-.37.74-.9,1.4-1.32,2.12.13-.89.66-1.61,1.14-2.44-.54,0-1.03,0-1.52,0-.2,0-.24.16-.32.29-.61,1-1.23,2-1.7,3.08-.07-.65.29-1.16.55-1.7.27-.55.58-1.07.91-1.67-1.25.05-2.45.05-3.63.16-2.79.25-5.58.56-8.37.84-.46.05-1.07-.07-1.36.17-.27.24-.36.79-.59,1.18-.11.19-.21.39-.36.57-.04-.66.38-1.17.59-1.74-.01,0-.03-.02-.04-.02-.79-.11-1.23.3-1.55.96-.25.52-.59.99-.96,1.58-.01-.58.3-.92.48-1.3.19-.39.46-.75.73-1.17-.47.03-.87.05-1.27.08-.05,0-.12-.02-.15.06-.51,1.18-1.38,2.16-1.91,3.33-.14.31-.27.63-.47.92.34-1.57,1.28-2.85,2.13-4.22-.76-.06-1.52.06-2.26.12-1.49.11-2.97.31-4.46.42-1.26.09-2.5.29-3.76.39-.32.03-.48.28-.64.5-.27.36-.52.74-.83,1.09.12-.55.45-1,.78-1.5-.87.1-1.68.22-2.5.3-4.76.47-9.47,1.33-14.2,1.97-3.03.41-6.03.95-9.05,1.36-3.11.43-6.22.86-9.28,1.54-.44.1-1.03.07-1.09.66-.06.54.41.87.84,1.13.61.37,1.29.61,1.97.82.34.11.69.19,1.02.3.14.05.35.07.33.27-.02.21-.23.16-.38.17-.61.05-1.18-.11-1.73-.3-.88-.3-1.78-.59-2.43-1.32-.38-.42-.74-.85-.51-1.48.24-.69.8-1.01,1.46-1.16.98-.23,1.96-.41,2.95-.6.73-.14,1.46-.25,2.22-.37-.43-1.13-.83-2.24-1.27-3.33-1.63-4.01-3.15-8.07-4.79-12.07-1.03-2.5-2-5.03-3.22-7.46-.12-.23-.22-.47-.23-.74-.03-.6.34-1,.94-1.03.87-.04,1.65.29,2.42.62,2.48,1.06,4.73,2.47,6.75,4.25.95.84,2.01,1.57,2.94,2.44,1.29,1.21,2.24,2.67,3.2,4.11,1.24,1.86,2.72,3.55,4.03,5.37.43.59.82,1.22,1.2,1.84.13.21.2.24.35.03,1.69-2.49,4.02-4.42,6.04-6.62.49-.54,1-1.06,1.51-1.59.13-.13.27-.27.42-.36.48-.28.98-.35,1.34.3.15.27.3.55.38.84.27.98.57,1.96.75,2.95.24,1.29-.22,2.48-.78,3.62-.62,1.25-1.48,2.35-2.3,3.48-.06.08-.17.14-.14.31.59.03,1.16-.11,1.73-.2,1.97-.31,3.95-.56,5.93-.73,2.14-.18,4.28-.42,6.42-.61,1.69-.15,3.38-.26,5.08-.4,2-.17,4-.34,6-.52,1.44-.13,2.89-.26,4.33-.41,1.41-.15,2.81-.32,4.22-.48,1.05-.12,2.11-.25,3.17-.25.22,0,.32-.06.46-.26.45-.69,1.08-1.23,1.68-1.8,4.56-4.26,9.14-8.49,13.68-12.78,4.51-4.26,8.97-8.58,13.46-12.86.91-.87,1.82-1.73,2.64-2.68.05-.06.11-.11.15-.18.54-.78,1.26-.88,2.05-.35.81.55,1.17,1.35,1.28,2.26.21,1.84.19,3.7-.02,5.54-.21,1.88-.83,3.65-1.54,5.4-.49,1.22-.9,2.47-1.35,3.7-.08.22-.06.34.15.49,1.09.8.77,3.22-.43,3.62-.47.16-.81.62-1.37.64-.12,0-.11.17-.15.27-.27.7-.53,1.41-.82,2.11-.08.21-.06.31.12.46.79.69.97,1.6.88,2.59-.04.4-.09.79-.25,1.17-.25.59-.62,1.02-1.3,1.21-.56.15-1.09.45-1.7.25-.16-.05-.2.08-.23.17-.21.57-.69,1.01-.73,1.67-.01.18-.02.19.12.19.5.02,1,.05,1.5.06,2.64.06,5.25.37,7.87.64,1.68.17,3.33.48,4.92,1.09,1.71.66,3.15,1.7,4.43,2.98.67.67,1.28,1.39,1.86,2.14.9,1.17,1.61,2.43,1.8,3.91.05.4.25.5.58.55,1.41.18,2.76.59,4.1,1.01,2.76.86,5.22,2.28,7.48,4.03,1.38,1.07,2.4,2.43,2.95,4.09.42,1.25.28,2.46-.48,3.58-.05.07-.47.23-.03.4.08.03-.09.16-.16.21-.59.47-1.24.83-1.93,1.13-2.36,1.03-4.86,1.54-7.39,1.94-1.97.31-3.95.52-5.94.71-.54.05-1.09.1-1.63.11-1.25.02-2.49.07-3.74.13-2.08.1-4.15.08-6.22.05-2.37-.04-4.73-.15-7.1-.28-1.97-.11-3.94-.27-5.91-.46-2.09-.2-4.17-.42-6.25-.71-2.06-.28-4.13-.48-6.19-.77-2.11-.3-4.21-.64-6.28-1.13-.39-.09-.73-.33-1.15-.37-.13-.01-.24-.03-.35.04-1.02.7-2.04,1.4-3.1,2.13.49.17.92.31,1.35.47,1.21.46,1.99,1.37,1.95,2.61-.05,1.51-.24,3.05-1.31,4.32-.75.89-1.76,1.24-2.83,1.48-1.31.29-2.59.01-3.85-.35-1.64-.47-3.28-.96-4.8-1.75-.1-.05-.18-.04-.26.01-1.34.95-2.67,1.89-4.07,2.88.65.12,1.24.18,1.75.51,1.69,1.09,2.34,2.65,2.09,4.6-.13.99-.31,1.98-.68,2.92-.47,1.2-1.32,1.92-2.55,2.44-1.78.76-3.43.36-5.11-.09-.71-.19-1.38-.56-2.01-.95-1.2-.75-2.53-1.27-3.71-2.04-.25-.16-.37.02-.52.12-3.12,2.2-6.23,4.41-9.35,6.6-1.65,1.16-3.36,2.24-4.97,3.45-1.16.86-2.23,1.83-3.46,2.59-3.03,1.86-6.25,3.33-9.51,4.75-3.42,1.49-6.99,2.26-10.65,2.72-1.9.24-3.83.34-5.72-.15-.81-.21-1.59-.52-2.31-.96-1.51-.9-1.68-2.82-.59-4.19.21-.26.45-.5.54-.84.05-.19.23-.33.38-.46,3.52-2.94,6.9-6.02,10.32-9.07,4.47-3.99,8.9-8.03,13.44-11.94,2.02-1.74,4.01-3.52,6.02-5.28,2.22-1.94,4.45-3.87,6.67-5.8,1.68-1.47,3.36-2.94,5.05-4.4,1.17-1.01,2.36-2.02,3.49-3.08.07-.06.16-.1.32-.19-.98-.3-1.86-.41-2.72-.58-3.77-.76-7.57-1.35-11.35-2.04-2.04-.37-4.07-.74-6.11-1.11-.09-.02-.2-.02-.27-.06-.72-.45-1.22-.07-1.74.4-1.11.99-2.24,1.95-3.39,2.9-2.21,1.82-4.51,3.5-6.99,4.93-2.11,1.21-4.27,2.25-6.68,2.72-1.73.34-3.49.48-5.24.69-.44.05-.87-.02-1.3-.1-1.06-.2-1.34-.99-.67-1.82.81-1.01,1.8-1.84,2.75-2.71,1.57-1.43,3-3.01,4.51-4.51,2.02-2.02,4.04-4.03,6.06-6.05.26-.26.5-.55.76-.82,1.15-1.2,2.64-1.58,4.24-1.77,1.88-.23,3.73.05,5.59.25,1.07.12,2.15.11,3.21.3.18.03.37.07.54.13.16.05.34.12.31.35-.03.25-.25.21-.4.2-.5-.03-.99-.11-1.49-.14-2.24-.13-4.46-.58-6.71-.52-1.12.03-2.23.16-3.24.71-.14.07-.25.16-.37.28.44.03.85.09,1.26.2.1.03.19.06.18.17-.02.16-.15.13-.25.11-.27-.05-.54-.12-.81-.18-.54-.12-1.05-.14-1.38.44.47.21,1.02.34,1.5.62-.07.17-.17.09-.27.06-.27-.08-.56-.1-.8-.22-.59-.29-1.01-.13-1.4.37-.18.23-.32.31.11.41,1.22.28,2.42.61,3.63.93.05.01.09.07.19.15-.7.04-1.28-.19-1.88-.31-.8-.16-1.59-.37-2.38-.58-.18-.05-.29.02-.41.13-.22.2-.44.39-.72.63.97.41,1.83.78,2.74,1.16-.2.14-.34.09-.5.03-.78-.28-1.61-.43-2.31-.91-.12-.08-.18.02-.23.07-.28.26-.54.54-.83.83.48.2.95.38,1.41.57-.07.19-.22.15-.35.12-.24-.05-.51-.07-.71-.19-.51-.31-.84-.12-1.21.27-1.12,1.17-2.26,2.3-3.4,3.45-.22.22-.3.33.12.42.32.06.7.09,1.06.46-.51-.1-.89-.14-1.26-.25-.34-.1-.57-.04-.74.28.78.25,1.58.41,2.3.78-.01.04-.02.08-.04.11-.51-.14-1.01-.28-1.52-.43-.25-.07-.5-.16-.75-.22-.33-.09-.48.18-.63.38-.1.13.08.15.18.18.26.08.51.16.76.3-.62.11-1.4-.52-1.79.42.22.17.58.14.81.39-.15.18-.29,0-.42,0-.15-.01-.31-.04-.45-.1-.16-.06-.27-.06-.41.08-1.07,1.1-2.33,2.01-3.33,3.18-.2.23-.53.49-.41.77.13.29.54.24.85.24,1.77-.04,3.5-.4,5.24-.66,1.99-.3,3.91-.85,5.69-1.82,2.48-1.35,4.85-2.84,7.03-4.64,1.39-1.15,2.84-2.23,4.23-3.38,1.66-1.37,3.36-2.7,4.59-4.5.18-.26.48-.65.83-.4.36.27,0,.6-.17.88-.06.1-.15.19-.24.3,1.64.34,3.26.56,4.88.79.2.03.33,0,.37-.26.13-.89.29-1.78.52-2.65.1-.4.43-.75.3-1.21-.04-.15.13-.14.24-.13,1.11.09,2.23-.02,3.33.28.25.07.36.09.24.43-.17.48-.18,1.02-.25,1.53-.1.79-.19,1.57-.28,2.36-.02.21,0,.36.29.42,2.2.4,4.43.64,6.63,1.02,1.86.32,3.73.44,5.61.63.43.04.78-.04,1.13-.37,1.01-.94,2.07-1.82,3.11-2.73.08-.07.18-.13.27-.19.05-.03.12-.08.16,0,.03.04.04.13,0,.17-.08.11-.18.21-.28.31-1.58,1.44-3.17,2.88-4.75,4.32-.06.05-.14.07-.3.16,1.58.48,3.05.8,4.41,1.44-.01.04-.02.07-.03.11-.63-.19-1.27-.38-1.9-.56-.77-.21-1.55-.4-2.32-.63-.27-.08-.42-.04-.61.14-.63.59-1.25,1.19-1.9,1.76-.68.59-1.37,1.16-2.03,1.76-.98.88-1.96,1.76-2.94,2.65-2.3,2.09-4.59,4.18-6.88,6.27-1.6,1.45-3.19,2.9-4.79,4.35-2.91,2.64-5.8,5.29-8.73,7.91-3.34,2.99-6.71,5.96-10.07,8.94-.07.06-.16.1-.17.22.82.2,1.67.2,2.5.18,2.2-.06,4.4,0,6.6,0,1.44,0,2.88-.18,4.27-.56-2.54-.9-5.12-1.71-7.58-2.85.07-.1.09-.14.1-.14,2.24.91,4.54,1.63,6.82,2.43.3.11.62.18.87.4.17.14.34-.04.5-.07.1-.02.24-.08.27.07.03.1-.08.14-.17.19-.51.27-1.08.36-1.64.45-2.23.37-4.47.54-6.73.58-1.17.02-2.34.07-3.51.07-.86,0-1.71-.1-2.55-.26-.19-.03-.36-.04-.52.1-1.78,1.59-3.57,3.18-5.4,4.82,1.25.75,2.45,1.49,3.67,2.19.32.19.63.39.93.61.1.07.3.13.18.31-.11.18-.25.04-.36-.03-.64-.41-1.28-.82-1.91-1.23-.78-.5-1.56-1-2.33-1.52-.25-.17-.41-.14-.62.07-.6.57-.62.57.1.97.61.34,1.22.66,1.83.99.15.08.4.16.32.32-.12.23-.33.02-.47-.05-.81-.42-1.62-.84-2.3-1.46-.2-.19-.28-.03-.37.06-.7.64-1.39,1.29-2.09,1.92-.24.22-.42.57-.85.48-.05-.01-.14.06-.18.12-.39.53-.7,1.09-.76,1.76-.08.99.33,1.52,1.38,1.98,1.61.72,3.29.92,5.02.75,3.26-.33,6.52-.8,9.6-1.93,3.46-1.28,6.82-2.79,10.09-4.53,3.3-1.76,6.22-4.03,9.27-6.14,2.65-1.84,5.3-3.68,7.95-5.53.15-.1.29-.21.47-.35-.51-.31-1-.53-1.57-.72.31-.2.54-.07.72.05.81.52,1.43.32,2.2-.23,4.76-3.39,9.57-6.72,14.37-10.07.5-.35.49-.34-.03-.69-.38-.25-.8-.43-1.23-.61.47-.12.9.08,1.2.35.6.53,1.08.37,1.58-.1.04-.04.09-.08.16-.14-.51-.34-1.11-.5-1.69-.93.64.08,1.1.32,1.54.53.38.18.64.12.97-.11,4.53-3.19,9.05-6.38,13.54-9.62,3.08-2.22,6.22-4.36,9.41-6.41,1.56-1.01,3.08-2.06,4.62-3.11.83-.56,1.46-1.33,1.77-2.3.26-.82.22-1.58-.48-2.19-.34-.3-.67-.62-1.04-.96.72-.22,1.22.19,1.69.56.84.64,1.08,1.82.7,2.89-.49,1.38-1.38,2.37-2.64,3.17-2.88,1.84-5.7,3.78-8.49,5.75-.12.09-.23.19-.43.35,1.05.13,2,.27,2.95.37,1.46.16,2.91.29,4.37.44.64.07.63.07.75-.57.23-1.23.46-2.46.82-3.66.14-.45.49-.81.5-1.31,0-.22.32-.25.54-.27,1.16-.11,2.33-.12,3.5-.08.65.02,1.29.13,1.87.44-.4.78-.56,1.64-.85,2.44-.33.9-.56,1.84-.84,2.76-.1.33-.02.46.36.47,1.81.05,3.61.11,5.42.19,1.03.05,2.05.14,3.07.23.25.02.32.03.27-.27-.14-.81-.32-1.62-.16-2.46.16.33.09.71.19,1.06.11.41.16.84.2,1.27.04.41.31.52.65.53,1.29.05,2.59.1,3.88.15.22,0,.23-.07.2-.28-.07-.5-.23-.99-.1-1.57.23.32.17.66.22.95.18.94.15.95,1.13.95,1.84,0,3.68,0,5.53,0,.39,0,.77-.13,1.16-.09.22.02.24-.13.25-.3.11-1.41.54-2.74,1.2-3.99.65-1.22,1.48-2.32,2.33-3.41.09-.12.17-.25.26-.38h-.01ZM516.47,365.27c.12-.02.25-.05.37-.05,2.65-.15,5.27-.48,7.86-1.04,1.73-.38,3.46-.81,5.02-1.68.87-.49,1.26-1.29,1.33-2.25.09-1.18-.34-2.21-1.04-3.13-.92-1.22-2.01-2.27-3.24-3.19-.12-.09-.23-.21-.4-.2l.02.02s-.06-.11-.1-.14c-1.97-1.23-4.07-2.19-6.27-2.94-.21-.07-.34-.01-.49.14-.63.62-1.19,1.3-1.73,1.99-.99,1.28-1.97,2.59-2.47,4.15-.79,2.46-.97,4.95-.15,7.45.38,1.17.1.91,1.3.88h0ZM488.99,326.93c.21-.07.38.02.55.1,1.04.55,2.03,1.18,3.02,1.82.25.16.36.14.48-.13.23-.52.51-1.02.73-1.54,1.06-2.55,2.05-5.13,3.03-7.71.6-1.57.88-3.17.97-4.8.08-1.44-.08-2.9-.92-4.2-3.04,2.9-6.08,5.8-9.14,8.73,1.16.44,2.21.97,3.28,1.59-.28.12-.44-.04-.62-.11-.9-.37-1.8-.75-2.69-1.14-.42-.18-.6.17-.72.38-.13.22.24.2.37.32.03.03.09.03.13.04,1.7.78,3.43,1.51,5.04,2.48.13.08.31.11.35.35-.15-.06-.26-.1-.37-.16-1.83-.93-3.72-1.75-5.61-2.55-.21-.09-.36-.14-.57.06-2.3,2.24-4.63,4.45-6.93,6.69-3.05,2.96-6.09,5.93-9.14,8.89-.32.31-.66.6-1,.91.19.11.35.07.5.07,1.26.01,2.53,0,3.79.03,4.55.11,9.1.34,13.66.39.67,0,.88-.4,1.18-.87-1.4-.46-2.79-.89-4.14-1.46.11-.15.19-.09.28-.06,1.11.33,2.21.66,3.32,1,.76.23.76.23,1.16-.42.33-.53.38-.46-.27-.66-2.34-.73-4.65-1.54-6.95-2.38-.55-.2-1.1-.41-1.66-.62.14-.16.23-.08.33-.05,2.89.96,5.74,2.06,8.68,2.89.31.09.41,0,.52-.22.75-1.47,1.64-2.86,2.49-4.28.63-1.06.63-1.06-.46-1.72-.89-.54-1.76-1.1-2.64-1.65ZM424.8,341.54c-.21-.32-.39-.62-.58-.91-1.16-1.77-2.17-3.63-3.43-5.33-1.11-1.5-2.31-2.94-3.3-4.51-1.61-2.53-3.74-4.55-5.99-6.48-1.95-1.67-4.17-2.9-6.52-3.93-.58-.25-1.19-.46-1.83-.54-.5-.06-.59.05-.42.53.02.07.05.14.08.21.43.88.88,1.75,1.3,2.63.07.15.16.17.32.19.53.06,1.07-.04,1.7.1-.63.32-1.2.15-1.77.22.06.14.12.26.15.39.09.41.31.56.75.53.45-.03.91.01,1.35.1.48.1.97.02,1.45.18-1.03.34-2.08-.06-3.13.1.12.19.05.52.44.54.56.02,1.12.05,1.68.09,1.12.09,2.24.16,3.34.3.44.06.91-.01,1.35.25-.08.04-.12.07-.15.07-.99-.06-1.99-.13-2.98-.2-.99-.07-1.99-.15-2.99-.15-.28,0-.31.08-.2.33.09.19.16.34.42.34.24,0,.48.09.73.14,1.12.24,2.08.89,3.16,1.19,1.9.54,3.3,1.72,4.48,3.22.19.24.36.32.65.34.82.06,1.66.07,2.47.33h-2.52c.27,1.05,1.15,1.1,2,1.19-.01.04-.03.09-.04.13h-1.07c.18.82.92.42,1.39.67-.29.22-.59,0-.85.13.07.32.41.52.45.94-.46-.35-.8-.75-1.04-1.13-.49-.75-1.06-1.43-1.61-2.12-.88-1.1-1.76-2.21-3.08-2.85-1.39-.67-2.83-1.25-4.3-1.71-.27-.08-.56-.2-.89-.1.05.13.09.25.15.38.77,1.67,1.4,3.4,2.07,5.11.42,1.07.4,1.07,1.59.93.26-.03.53-.12.87.05-.55.18-1.04.28-1.53.25-.44-.02-.45.12-.3.47.25.56.48,1.14.67,1.72.11.34.28.45.64.43.65-.04,1.31,0,1.96.14-.74.23-1.5.07-2.28.16.12.31.24.6.35.9.06.16.17.2.33.19.62-.03,1.25.03,1.87-.06.58-.08,1.17,0,1.75-.07-.43.21-.88.27-1.33.31-.68.05-1.37.09-2.05.14-.22.02-.33.06-.23.34.6,1.61,1.18,3.23,1.75,4.84.11.32.28.36.6.29.87-.17,1.75-.3,2.62-.42,1.69-.24,3.37-.52,5.07-.86-.85-1.82-2.12-3.41-2.75-5.32.49.56.86,1.18,1.18,1.84.06.13.09.24.35.22.44-.03.89.15,1.31.34-.34.09-.68.09-1.01,0-.09-.02-.25-.08-.26.07,0,.09.02.24.19.25,1.05.1,2.06.41,3.09.59.25.05.56-.01.85.28-1.35-.07-2.56-.35-3.81-.5.58.58,1.45.48,2.22.8-.66.17-1.2-.19-1.84-.11.29.45.56.86.8,1.28.1.18.2.17.37.15,1.23-.19,2.46-.37,3.77-.56ZM497.68,326.53c-.25.03-.38-.1-.51-.18-.61-.37-1.21-.74-1.8-1.14-.26-.17-.36-.09-.46.16-.11.26.03.35.22.46.88.52,1.74,1.06,2.53,1.71.36.29.41.17.52-.16.79-2.38,1.58-4.76,2.39-7.13.1-.29.07-.47-.14-.69-.7-.74-1.34-1.52-2.26-2.16.38-.04.55.15.74.29.63.46,1.15,1.04,1.69,1.59.17.17.23.21.38-.05.29-.49.09-.84-.27-1.15-.61-.51-1.12-1.13-1.75-1.61.98.3,1.58,1.13,2.36,1.71,1.27-3.17,1.41-6.43.97-9.73-.09-.68-.49-1.18-1.09-1.53-.12-.07-.24-.12-.38,0-1.17.97-2.33,1.95-3.4,3.03-.17.17-.08.24.03.36.41.44.66.95.73,1.56.12,1.01.23,2,.1,3.02-.19,1.4-.24,2.82-.83,4.14-.36.81-.68,1.64-.92,2.5-.29,1.02-.8,1.96-1.24,2.93-.1.22-.08.33.15.46.42.23.82.51,1.21.78.34.24.72.45,1.03.82ZM426.82,335.13c.56.2,1.16.22,1.66.55-.49-.03-1-.06-1.43-.24-.53-.22-.68.09-.9.44.95.24,1.91.33,2.79.7-.83-.07-1.66-.18-2.47-.35-.4-.09-.67-.07-.93.3-.3.44-.33.41.17.51.42.08.85.16,1.26.29.15.05.38-.02.49.24-.64.03-1.22-.13-1.81-.21-.73-.11-.81-.1-1.11.55.29.18.68.09,1.01.37-.43.11-.77-.08-1.12-.07-.28,0-.44.16-.47.35-.03.15.11.33.36.33.13,0,.27.04.4.09.39.13.84.11,1.25.43-.59.04-1.07-.24-1.62-.13.38.7.81,1.33,1.11,2.02.06.15.17.14.3.12,1.2-.16,2.39-.42,3.61-.52.15-.01.26-.09.35-.21,1.03-1.43,2.11-2.81,2.99-4.35,1.24-2.19.6-4.24-.25-6.31-.11-.28-.29-.28-.5-.1-.57.47-1.02,1.06-1.53,1.55.17.17.41-.01.57.28-.62,0-1.17.09-1.41.69.78.22,1.62.24,2.35.62-.59-.04-1.18-.06-1.73-.24-.67-.22-1.16-.11-1.55.47-.02.02-.02.06-.03.08.21.24.61.04.83.4-.43-.03-.83-.16-1.18-.06-.35.1-.59.47-.89.79,1.33.3,2.63.5,3.88.9-.15.05-.29.07-.43.05-1.07-.2-2.15-.41-3.22-.62-.31-.06-.63-.12-.8.3ZM493.99,336.88c.22-.23.26-.43.01-.7-.45-.49-.78-1.08-1.34-1.48.88.15,1.12,1.01,1.73,1.5.14-.28.27-.54.41-.8,1.12-2.18,1.99-4.47,2.91-6.74.14-.35.06-.57-.19-.8-.85-.76-1.84-1.35-2.77-2.02-.61,1.36-1.15,2.73-1.93,3.98-1.29,2.07-2.49,4.18-3.71,6.29-.11.18-.08.46-.2.54-.32.21-.42.54-.64.85.54.06,1.04.19,1.53.16,1.18-.09,2.34.02,3.5.15.15.02.36.15.43-.11.06-.23.25-.45-.03-.7-.66-.6-1.22-1.3-1.91-1.87.98.29,1.44,1.21,2.22,1.77ZM422.7,351.39c.12.04.17.08.23.08,2.13.25,4.24.7,6.35,1.08,4.44.78,8.87,1.65,13.33,2.35.88.14,1.84.54,2.51-.49.02-.04.07-.06.11-.09.61-.55,1.22-1.1,1.84-1.65-.95,0-1.86-.09-2.75-.19-2.92-.32-5.83-.73-8.72-1.27-.32-.06-.76-.26-.93-.12-.2.16-.17.61-.23.94,1.24.13,2.47.28,3.7.42,1.38.16,2.76.28,4.14.44.99.12,1.99.24,2.98.39.19.03.45.11.41.36-.04.26-.3.29-.52.26-.75-.1-1.5-.19-2.24-.3-1.36-.19-2.72-.29-4.08-.52-1.15-.2-2.32-.31-3.47-.49-1.5-.23-3-.49-4.51-.72-1.54-.23-3.08-.43-4.62-.68-.35-.06-.73-.09-1.07-.28.11-.12.21-.12.3-.11,1.46.15,2.91.33,4.36.58.48.08.55.03.57-.44,0-.21.02-.41.03-.64-1.83-.17-3.64-.46-5.45-.77-.22-.04-.35,0-.48.15-.52.62-1.14,1.14-1.77,1.72ZM487.69,362.64s.08,0,.12-.01c.11.53.28,1.05.31,1.59.03.45.3.5.6.52.73.04,1.45.13,2.18.19,1.64.14,3.29.25,4.93.37.22.02.34-.02.24-.27-.26-.72-.45-1.46-.58-2.21-.06-.33-.2-.38-.48-.39-1.09-.06-2.18-.1-3.26-.21-1.55-.15-3.1-.34-4.65-.34-1.92-.01-3.83-.01-5.71-.43-.23-.05-.31.04-.25.23.15.45.07.91.15,1.37.14.77.1.8.84.92.58.1,1.18.16,1.79.24-.14-.5-.18-.94-.24-1.51.35.42.4.83.55,1.2.05.13,0,.36.25.38.25.02.49.06.74.09.3.04.39-.05.29-.35-.16-.47-.3-.94-.19-1.45.2.49.35.99.52,1.49.05.14.03.37.26.39.61.07,1.22.12,1.84.18-.05-.7-.27-1.34-.24-2ZM506.25,362.62c.16.8.32,1.57.45,2.36.08.48.29.68.8.62.3-.03.36-.1.3-.38-.08-.35-.21-.71-.12-1.18.25.39.33.75.4,1.1.08.37.25.46.62.46,1.34.01,2.68-.07,4.02-.11.57-.02,1.15-.07,1.72-.1,0-.06.01-.11,0-.15-.5-1.35-.87-2.73-.81-4.19.01-.23-.07-.3-.29-.28-.62.04-1.24.09-1.86.1-1.61.01-3.21,0-4.82,0-.73,0-.71,0-.62.68.05.39.2.59.64.53.32-.04.65,0,.98,0,1.4-.04,2.8.2,4.2,0,.07-.01.16-.01.2.17-1.88.65-3.83.32-5.81.39ZM486.19,359.57c1.44,0,2.82-.01,4.21.01.3,0,.33-.17.37-.35.35-1.73.8-3.44,1.51-5.07.08-.19.09-.26-.16-.27-1.48-.06-2.94.07-4.39.37-.2.04-.28.13-.34.31-.58,1.58-.86,3.22-1.2,5ZM450.08,384.33c-.31-1.64-.12-5.11.32-5.76,0,.33.03.65,0,.97-.16,1.24-.3,2.48-.07,3.72.25,1.32.21,1.34,1.29,1.43-.26-.78-.52-1.56-.45-2.42.15.06.16.14.17.24.1.72.34,1.39.64,2.05.05.11.07.28.21.27.5-.01.99.22,1.53.05-.86-.7-1.6-1.44-1.81-2.54-.29-1.5.01-2.91.68-4.26.46-.94,1.08-1.73,2.17-2.03.2-.06.37-.19.61-.31-.17-.06-.27-.1-.37-.12-.81-.18-1.57-.22-2.31.33-1.18.88-2.4,1.71-3.61,2.55-.22.16-.34.36-.37.61-.16,1.5-.16,3.01.09,4.5.02.09.04.17.21.15-.18-.63-.09-1.24.03-1.88.05.05.11.07.11.1.01.37.02.74.03,1.11.02.79.13.94.89,1.23ZM468.74,365.81c-.65-.34-1.21-.29-1.78.16-.85.65-1.72,1.26-2.62,1.84-.47.3-.72.65-.86,1.2-.36,1.37-.03,2.64.41,3.91.03.1.09.18.2.14.13-.04.06-.14.04-.23-.12-.52-.18-1.04-.15-1.7.27.49.27.92.37,1.32.19.79.25.85,1.11.85-.45-1.58-.46-4.61.05-5.16-.08.99.02,1.93.07,2.87.03.61.09,1.23.29,1.82.09.26.27.61.51.58.37-.03.78.03,1.12-.19-1.36-2.24-1.38-5.95,1.24-7.42ZM479.63,362.49c.15.82.43,1.47,1.44,1.26-.07-.67-.15-1.36-.2-2.06-.02-.25-.1-.34-.35-.38-1.94-.3-3.9-.29-5.84-.5-.06,0-.13,0-.17.04-.77.52-1.55,1.05-2.4,1.63,1.29.06,2.44.29,3.6.48,1.18.19,2.36.37,3.54.56.33.05.48-.04.35-.39-.07-.2-.08-.4.04-.65ZM501.83,365.49c-.34-.83-.49-1.66-.65-2.47-.06-.32-.19-.44-.5-.45-.81-.04-1.62.08-2.43.02-.76-.05-1.53-.06-2.29-.08-.15,0-.38-.06-.31.2.23.82.46,1.65.74,2.45.11.33.47.15.7.13.29-.03.08-.25.05-.39-.08-.38-.17-.76-.26-1.15.34.25.37.63.49.96.27.74.28.76,1.04.69.19-.02.22-.05.17-.25-.12-.43-.18-.87-.27-1.35.26.08.27.27.32.42.1.3.17.62.25.93.04.16.1.24.3.26.85.11,1.71.06,2.65.08ZM498.04,362.09c.69,0,1.37-.02,2.06,0,.9.04.88.06.73-.82-.06-.36-.12-.6-.56-.62-2.8-.08-5.6-.19-8.4-.27-.73-.02-.78.04-.81.76,0,.09,0,.19,0,.28-.01.17.04.24.23.26,2.25.19,4.49.42,6.76.41ZM434.83,345.77c-.92-.22-1.84-.08-2.75-.13-.22-.01-.3.1-.38.26-.53,1.09-.71,2.27-.86,3.45-.02.17.02.27.24.3.94.13,1.87.29,2.8.44.15.02.26,0,.23-.18-.04-.28.06-.55.11-.82.19-1.11.17-2.25.61-3.32ZM506.47,365.57c-.12-.69-.23-1.36-.34-2.02q-.15-.9-1.07-.91c-.06,0-.12,0-.19,0-1.04-.01-2.09-.02-3.13-.04-.23,0-.35.02-.25.31.13.4.21.83.32,1.24.44,1.62.14,1.39,1.9,1.41.04,0,.09-.01.15-.03-.19-.65-.44-1.29-.45-1.98.17.02.17.12.19.21.17.51.35,1.01.51,1.51.07.2.16.3.39.29.64-.01,1.28,0,1.96,0ZM455.87,376.92c.71.92.74,1.9.59,2.89-.14.95-.23,1.94-.95,2.71.27-.68.26-1.4.38-2.1.18-1.05.15-2.08-.47-3.02-.35-.54-.43-.55-.95-.11,1.62,1.36,1.09,5.27-.46,6.49.56.57,1.12.6,1.72-.08,1.4-1.58,1.78-3.48,1.41-5.51-.1-.58-.43-1.16-1.28-1.28ZM455,380.12c.02-.84-.04-1.6-.54-2.25-.19-.24-.32-.31-.53.01-.58.88-.95,1.84-1.07,2.88-.11.96,0,1.88.71,2.64.17.18.27.22.41-.02.61-1.03,1.12-2.08,1.02-3.25ZM462.78,368.9c-1.03.72-2.04,1.41-3.03,2.12-.3.21-.27.42.08.58.3.14.59.28.89.41.83.36,1.68.64,2.63.89-.74-1.29-.57-2.63-.57-3.99ZM444.46,381.75c1.23.63,2.39,1.22,3.61,1.84-.15-1.44-.46-2.81-.14-4.27-1.19.83-2.3,1.6-3.48,2.43ZM470.05,369.35c-.17-.05-.14-.15-.16-.24-.18-.68-.23-1.4-.63-2.01-.07-.11-.11-.3-.29-.18-.18.12.03.2.07.29.36.68.55,1.39.43,2.18-.16,1.04-.52,2-1.04,2.92-.07.13-.19.25-.03.41.16.17.3.1.46.02.38-.2.67-.49.91-.84.68-.98.87-2.12,1.05-3.25.13-.8-.08-1.53-.72-2.09-.12-.1-.21-.17-.36-.05-.13.09-.08.17-.02.27.42.81.48,1.67.33,2.57ZM503.62,362.05c.48,0,.96,0,1.45,0,.82-.01.82-.01.64-.83-.05-.21-.02-.4-.36-.39-1.07.04-2.15-.02-3.22-.07-.34-.02-.79-.16-.99.06-.2.22.1.62.11.95.01.27.12.32.36.34.67.05,1.34-.03,2-.05ZM475.21,360.38c1.81.26,3.52.41,5.22.56.14.01.44.2.4-.15-.04-.29.3-.76-.32-.84-1.14-.14-2.28-.29-3.4-.57-.18-.05-.36-.07-.53.06-.41.3-.84.58-1.36.94ZM485.91,361.32c1.28-.05,2.51.11,3.75.2,1.02.08.88.27.86-.82,0-.26-.09-.33-.35-.33-1.09,0-2.18-.01-3.27-.02q-.78,0-.94.75c-.01.06-.03.11-.05.22ZM484.51,361.31c.23,0,.47-.01.7,0,.49.03.34-.37.41-.61.08-.28-.08-.35-.35-.37-1.19-.1-2.4-.01-3.59-.22-.62-.11-.63-.09-.56.52.02.14-.09.37.19.39,1.07.06,2.12.28,3.2.28ZM467.94,372.03c.25-.26.34-.58.43-.87.36-1.08.68-2.17.23-3.31-.05-.14-.07-.36-.21-.37-.18-.01-.24.21-.32.35-.77,1.37-.61,2.77-.13,4.2ZM430.74,351.03c-.02.2-.07.5.36.55.75.09,1.5.2,2.25.28.24.02.53.24.71.05.18-.19-.12-.45-.09-.69.04-.28-.07-.35-.33-.39-.75-.11-1.5-.25-2.25-.38-.65-.11-.65-.12-.65.58ZM499.99,324.19c-.16.22-.37.52-.27.67.31.51.23,1.09.37,1.63.87-.47.81-1.67-.1-2.3ZM497.45,334.5c.83-.78.64-2.69-.16-3.21-.18.32-.25.59,0,.95.2.29.25.69.23,1.07-.02.39-.04.78-.07,1.2ZM496.8,332.54c-.15.34-.28.65-.41.95-.23.52-.03,1.07.48,1.33.18.09.31.1.27-.15-.11-.69,0-1.42-.34-2.14ZM495.6,335.33h.89c-.31-.21-.42-.47-.62-.68-.09.19-.17.37-.24.56-.02.04-.02.09-.02.12ZM499.47,325.47c-.37.78-.37.82.19,1.08-.06-.34-.12-.66-.19-1.08Z"/>
    <path class="st7" d="M482.13,345.86c-1.06-.02-2.01-.17-2.97-.11-2.4.17-4.8.22-7.2.16-2.53-.06-5.05-.11-7.58-.06-2.02.04-4.04.25-6.07.25-.34,0-.68,0-1.02-.02-.13,0-.31-.04-.32-.21-.01-.19.16-.19.29-.21.63-.09,1.26-.17,1.9-.19,2.41-.08,4.83-.25,7.24-.15,2.96.12,5.93.19,8.89.14,1.52-.03,3.04-.23,4.57-.24,1.83-.01,3.64.13,5.45.36.24.03.65.01.65.29,0,.29-.42.2-.62.2-.64,0-1.28-.04-1.91-.11-.42-.04-.72,0-1.07.32-2.29,2.05-4.33,4.35-6.62,6.4-1.48,1.32-2.93,2.68-4.53,3.87-.1.07-.18.17-.28.26.72.25,1.41.48,1.99.94-.13.18-.23.11-.32.06-.35-.17-.7-.34-1.04-.51q-.81-.38-1.53.25c.56.19,1.1.36,1.61.63.08.04.27.08.17.26-.08.14-.19.04-.28,0-.37-.15-.74-.31-1.11-.46-.7-.29-.74-.28-1.33.32.3.13.65.16.89.42-.25.06-.25.08-.49-.04-.44-.21-.79-.17-1.18.16-1.72,1.43-3.4,2.91-5.2,4.24-3.92,2.9-7.65,6.04-11.6,8.89-3.43,2.48-6.79,5.07-10.3,7.44-2.29,1.54-4.58,3.08-7.03,4.38-.79.42-1.62.71-2.46,1.01-1.65.59-3.24,1.34-4.89,1.94-.29.11-.58.29-.9.21,2.82-2.05,6.26-2.87,9.35-4.65-1.46-.32-2.8-.64-4.23-.84.43-.3.83-.07,1.19-.01,1.03.16,2.05.4,3.08.61.09.02.19.03.28.02.19-.02.43-.1.46-.26.04-.19-.22-.18-.37-.24-2.63-.89-5.35-1.5-8.01-2.3-.11-.03-.21-.04-.27-.2.63.03,1.21.24,1.8.39,2.16.55,4.35,1,6.43,1.78,1,.37,1.6-.03,2.34-.52-1.26-.46-2.54-.77-3.67-1.47.16-.15.26-.04.36,0,1.13.5,2.32.8,3.5,1.13.16.04.27.02.42-.07,1.98-1.23,3.96-2.46,5.8-3.88,2.39-1.86,4.89-3.56,7.32-5.38.1-.07.18-.16.32-.28-1.7-.46-3.31-1.01-5.07-1.34.45-.11.52-.11,1.04,0,.31.07.63.13.94.22.93.25,1.87.5,2.8.78.4.12.74.12,1.06-.2.14-.14.32-.24.48-.35-4.67-1.42-9.27-3.01-14-4.17.49-.18.96.02,1.41.14,3.7.92,7.35,1.99,10.98,3.14.22.07.47.09.66.2.96.58,1.64.2,2.42-.44,2.74-2.26,5.58-4.4,8.45-6.51,2.04-1.5,3.87-3.25,5.87-4.79,2.59-2,5.09-4.12,7.51-6.32,1.6-1.46,3.15-2.99,4.72-4.49.25-.24.51-.48.85-.79Z"/>
    <path class="st7" d="M500.79,352.98c-1.16.12-2.42.08-3.66-.19-.37-.08-.44-.23-.32-.57.09-.25.1-.54.16-.8.33-1.48,1.29-2.56,2.4-3.52.58-.5,1.37-.46,2.09-.56,2.62-.36,5.27-.53,7.81-1.33.99-.31,1.95-.7,2.87-1.17.37-.19.66-.14.99.08,1.32.84,1.94,2.17,2.53,3.52.21.48.03.8-.39,1.11-1.06.77-2.18,1.44-3.38,1.97-1.61.7-3.26,1.2-5.07,1.21-1.98,0-3.95.26-6.03.27ZM503.15,352.21c.43-.06.81-.13,1.19-.17,1.55-.16,3.1-.31,4.65-.46.23-.02.25-.12.22-.3-.06-.33-.12-.66-.17-.99-.16-.97-.39-1.92-.86-2.8-.11-.21-.21-.27-.47-.21-1.3.31-2.63.49-3.97.57-.3.02-.37.17-.41.38-.25,1.27-.3,2.56-.34,3.85,0,.21.12.12.16.13ZM509.73,351.45c1.93-.45,3.63-1.33,5.21-2.46.28-.2.22-.39.11-.63-.29-.61-.72-1.13-1.08-1.7-.32-.49-.81-.75-1.27-1.06-.15-.1-.3-.09-.44-.01-1.08.57-2.2,1.04-3.37,1.38-.13.04-.27.07-.16.28.67,1.31.92,2.73,1,4.2ZM497.36,352.21c1.64.1,3.23.12,4.82.05.25-.01.32-.1.31-.33-.01-.26-.13-.51-.1-.78.11-.96.2-1.92.43-2.86.07-.31-.02-.35-.28-.32-.57.06-1.15.11-1.72.16-.21.02-.43-.03-.63.12-1.36,1.01-2.31,2.29-2.82,3.96Z"/>
    <path class="st7" d="M446.29,346.63c0,1.21-.75,1.95-1.94,2.01-.85.04-1.76-.81-1.74-1.79.04-1.31.74-2.11,2.04-2.03.91.06,1.67.48,1.64,1.81ZM445.54,346.76c-.01-.8-.37-1.23-1-1.2-.64.02-1.07.53-1.06,1.26,0,.72.39,1.13,1.1,1.12.53,0,1.07-.56.96-1.17Z"/>
    <path class="st7" d="M449.63,348.62c-.66.08-1.05-.2-1.37-.61-.39-.52-.35-1.49.07-2.09.34-.48,1.29-.81,1.88-.62.28.09.55.24.49.62-.01.09-.03.18.06.25.56.44.48,1,.26,1.54-.24.58-.75.86-1.39.9ZM450.41,347.12c0-.24-.62-.97-.82-.97-.34,0-.69.51-.69,1.02,0,.49.3.79.77.8.38,0,.74-.41.74-.85Z"/>
    <path class="st7" d="M437.39,346.9c-.02-1.12.85-1.97,2.12-1.74.1.02.21,0,.32-.01.96-.07,1.52.56,1.34,1.5-.25,1.26-1.17,1.9-2.45,1.7-.7-.11-1.34-.8-1.33-1.44ZM439.24,347.78c.12,0,.25.02.37,0,.42-.08.79-.27.85-.71.05-.4.23-.87-.29-1.14-.39-.2-1.35-.13-1.68.16-.33.29-.53.63-.36,1.09.16.45.46.61,1.11.61Z"/>
    <path class="st7" d="M462.33,347.34c.43-.21.89-.19,1.35-.18,2.24.08,4.47.27,6.7.5,1.5.15,3,.27,4.51.32,1.18.03,2.36.15,3.55,0,.13-.02.32-.03.33.15.01.18-.16.18-.3.21-1.12.17-2.24.01-3.36-.06-1.03-.07-2.05-.13-3.07-.23-1.13-.1-2.25-.24-3.38-.34-.94-.09-1.89-.13-2.84-.21-1.16-.1-2.33-.1-3.49-.16Z"/>
    <path class="st7" d="M501.02,345.76c.94-.11,1.79-.26,2.63-.48,1.83-.47,3.67-.9,5.41-1.67.22-.1.48-.15.56-.44.03-.1.13-.13.22-.05.09.07.09.15.04.24-.15.28-.43.4-.7.51-1.52.6-3.09,1.01-4.67,1.4-.98.24-1.96.53-2.98.58-.15,0-.3.04-.51-.1Z"/>
    <path class="st7" d="M456.44,357.07c.55-.04,8.97,2.4,9.35,2.68-.16.12-.31.06-.47.01-1.98-.61-3.97-1.21-5.95-1.81-.94-.28-1.88-.57-2.92-.88Z"/>
    <path class="st7" d="M409.22,390.09c1.18.64,2.32,1.25,3.45,1.87,1.23.68,2.5,1.27,3.76,1.87.2.1.58.21.49.37-.12.23-.4-.02-.58-.11-2.32-1.17-4.61-2.41-6.88-3.67-.1-.06-.25-.08-.24-.34Z"/>
    <path class="st7" d="M509.7,354c1.45-.16,2.82-.31,4.18-.45.38-.04.77-.01,1.15-.1.14-.03.35-.05.35.17,0,.19-.18.17-.32.18-1.42.09-2.84.19-4.27.28-.36.02-.73.21-1.11-.09Z"/>
    <path class="st7" d="M414.87,385.93c1.02.41,2.01.65,2.98.93.72.21,1.45.38,2.18.59.12.03.38.03.31.25-.07.21-.25.08-.39.04-1.48-.38-2.95-.82-4.4-1.33-.23-.08-.5-.15-.68-.49Z"/>
    <path class="st7" d="M442.94,364.79c1.91.42,3.81.9,5.65,1.58-1.94-.32-3.79-.95-5.65-1.58Z"/>
    <path class="st7" d="M474.61,346.68c.5,0,1.01-.04,1.51,0,1.26.11,2.51.19,3.78.17.11,0,.22,0,.33,0,.11,0,.26,0,.26.12,0,.16-.16.15-.28.15-.3,0-.59.02-.89,0-1.57-.13-3.15-.15-4.71-.45Z"/>
    <path class="st7" d="M442.12,343.73c.22-.44.41-.81.6-1.18.34-.7.74-1.38,1.17-2.03.08-.13.19-.32.35-.22.2.12,0,.27-.07.38-.61.87-1.12,1.79-1.66,2.7-.07.12-.11.28-.39.36Z"/>
    <path class="st7" d="M462.4,355.13c.8,0,1.54.23,2.28.44.56.16,1.12.32,1.68.49.09.03.23.08.19.21-.04.14-.14.09-.26.05-1.26-.38-2.53-.76-3.79-1.13-.04-.01-.07-.04-.1-.07Z"/>
    <path class="st7" d="M408.9,393.45c.38.26.76.54,1.15.79.63.41,1.27.8,1.91,1.21.11.07.3.13.2.3-.1.17-.25.03-.35-.03-1.06-.63-2.09-1.3-2.97-2.17.02-.03.05-.07.07-.1Z"/>
    <path class="st7" d="M450.99,356.3c-1.54-.38-3.05-.6-4.62-1.07.55-.18,4.29.71,4.62,1.07Z"/>
    <path class="st7" d="M416.99,390.98c.2-.08.37-.02.55.04.88.3,1.69.74,2.51,1.15.13.06.34.14.24.32-.06.11-.25.02-.38-.04-.98-.46-1.9-1.06-2.92-1.47Z"/>
    <path class="st7" d="M411.65,393.43c.88.6,1.87.98,2.78,1.51.09.05.21.11.17.24-.03.08-.14.08-.2.05-1-.47-1.98-.97-2.75-1.79Z"/>
    <path class="st7" d="M461.58,355.95c.53-.04,1,.14,1.48.27.57.14,1.13.31,1.69.47.11.03.28.05.24.21-.04.18-.2.09-.31.06-1.02-.29-2.03-.59-3.05-.89-.02,0-.03-.05-.06-.12Z"/>
    <path class="st7" d="M456.72,358.73c.3-.18.46-.07.63-.02.8.22,1.6.43,2.39.66.13.04.37.06.3.26-.07.21-.24.03-.35,0-.96-.29-1.92-.58-2.98-.91Z"/>
    <path class="st7" d="M505.13,342.91c1.01-.44,2.06-.71,3.14-.9-.99.5-2.06.71-3.14.9Z"/>
    <path class="st7" d="M474.24,349.33c.3-.28.52-.08.73-.06.66.08,1.32.19,1.97.31.11.02.34.02.31.2-.03.16-.21.13-.36.1-.86-.18-1.72-.36-2.65-.55Z"/>
    <path class="st7" d="M482.54,347.89c.37-.19.62-.07.86-.02.6.13,1.18.32,1.73.59.1.05.26.12.18.27-.07.12-.18.03-.29-.01-.78-.31-1.55-.62-2.48-.83Z"/>
    <path class="st7" d="M468.39,348.57c.99.15,1.94.29,2.89.43.09.01.18.08.15.19-.04.11-.16.08-.24.08-.77-.08-1.52-.23-2.26-.43-.18-.05-.41.02-.54-.26Z"/>
    <path class="st7" d="M504.12,342.03c.84-.48,1.75-.71,2.71-.78-.84.48-1.8.54-2.71.78Z"/>
    <path class="st7" d="M418.49,390.19c1.09.34,2.07.89,3.04,1.48-1.1-.31-2.03-.99-3.04-1.48Z"/>
    <path class="st7" d="M517.5,352.22c-.92.09-1.84.17-2.75.25-.05,0-.1-.05-.27-.15.98-.12,1.86-.24,2.73-.34.17-.02.23.11.28.25,0,0,.02-.01.02-.01Z"/>
    <path class="st7" d="M485.97,347.76c-.88-.18-1.65-.73-2.57-.79.63-.22,2.2.25,2.57.79Z"/>
    <path class="st7" d="M429.21,376.58c.5.21,1,.42,1.51.62.2.08.4.14.61.21.08.03.19.05.13.18-.03.08-.11.12-.19.1-.76-.23-1.49-.52-2.06-1.11Z"/>
    <path class="st7" d="M408.84,354.7c.47-.12.88.07,1.29.2.41.13.82.27,1.22.41.08.03.18.08.16.19-.02.1-.12.1-.19.07-.83-.29-1.64-.63-2.49-.87Z"/>
    <path class="st7" d="M511.87,354.85c.69,0,1.38,0,2.07,0,.11,0,.27.04.26.2,0,.15-.14.15-.25.14-.7-.07-1.39-.14-2.09-.21,0-.05,0-.09,0-.14Z"/>
    <path class="st7" d="M473.54,339.66c.19-.52.43-1.02.75-1.48.06-.08.12-.16.22-.12.13.06.09.18.03.27-.29.47-.59.94-.89,1.4-.04-.02-.07-.05-.11-.07Z"/>
    <path class="st7" d="M511.9,356.15c.52-.08,1.04-.15,1.57-.12.11,0,.24,0,.25.15,0,.18-.14.13-.24.13-.53,0-1.06,0-1.59,0v-.16Z"/>
    <path class="st7" d="M416.33,348.04c.64,0,1.27.07,1.84.41-.66.07-1.23-.23-1.84-.41Z"/>
    <path class="st7" d="M408.1,355.36c.59-.1,1.1.09,1.62.26.08.02.14.09.1.18-.02.04-.11.07-.16.06-.52-.16-1.04-.33-1.56-.49Z"/>
    <path class="st7" d="M482.29,348.99c.59.04,1.16.15,1.63.54-.01.04-.03.09-.04.13-.54-.19-1.07-.37-1.61-.56,0-.04.01-.08.02-.11Z"/>
    <path class="st7" d="M446.1,341.35c.15-.44.36-.84.62-1.21.06-.09.15-.19.26-.11.13.09.01.21-.05.27-.3.34-.42.81-.84,1.05Z"/>
    <path class="st7" d="M417.83,347.81c.49-.18.96-.08,1.42.07.07.02.15.06.12.16-.02.06-.08.1-.14.08-.47-.1-.93-.2-1.4-.31Z"/>
    <path class="st7" d="M447.24,341.82c0-.4.14-.74.49-.96-.07.37-.26.67-.49.96Z"/>
    <path class="st7" d="M475.85,339.15c-.13-.37,0-.6.11-.83.03-.08.08-.19.2-.13.1.05.1.13.04.23-.11.21-.21.43-.35.73Z"/>
    <path class="st7" d="M491.25,326.82c.74.07,1.33.49,1.95.83.07.04.13.11.07.19-.07.09-.17.07-.25.02-.29-.16-.58-.34-.87-.51-.3-.18-.6-.35-.89-.53Z"/>
    <path class="st7" d="M412.34,334.92c-.83.25-1.69.22-2.05-.09.73-.02,1.39-.05,2.05.09Z"/>
    <path class="st7" d="M414.72,340.41c-.52.27-.93.33-1.37.27-.1-.01-.24-.03-.21-.19.02-.16.16-.14.26-.11.4.14.8-.07,1.32.02Z"/>
    <path class="st7" d="M412.88,339.66c.5-.26,1.02-.17,1.54-.13-.48.3-1.02.14-1.54.13Z"/>
    <path class="st7" d="M410.49,332.51c-.3.2-.65.3-1.01.35-.09.01-.21.01-.23-.1-.03-.14.08-.17.19-.19.34-.06.68-.13,1.02-.19,0,.04.01.08.02.13Z"/>
    <path class="st7" d="M516.47,365.26c-.48-.79-.59-1.69-.75-2.56-.17-.93-.27-1.88-.22-2.84,0-.07-.02-.15.11-.22.14.29.12.62.15.91.13,1.39.42,2.75.82,4.08.07.25.05.44-.11.63,0,0,0,0,0,0Z"/>
    <path class="st7" d="M519.99,351.71c-1.23,1.23-1.97,2.66-2.75,4.07-.07.12-.11.36-.29.3-.2-.07-.08-.29-.03-.4.72-1.38,1.5-2.73,2.65-3.81.09-.08.19-.14.41-.15Z"/>
    <path class="st7" d="M517.57,360.67c-.17,1.08.26,2.05.51,3.05.06.27.17.52.23.79.02.09.06.24-.05.29-.15.07-.22-.08-.27-.18-.22-.44-.34-.91-.45-1.39-.15-.63-.27-1.25-.24-1.9.01-.26.06-.5.29-.66Z"/>
    <path class="st7" d="M519.27,361.31c.08.39.16.78.24,1.17.09.43.18.86.27,1.3.03.14.1.33-.11.39-.21.05-.26-.15-.3-.29-.24-.83-.26-1.69-.11-2.57Z"/>
    <path class="st7" d="M527.33,360.49c.17.82.34,1.65.51,2.47.02.11-.01.24-.13.27-.16.05-.21-.08-.24-.21-.19-.83-.34-1.67-.15-2.53Z"/>
    <path class="st7" d="M520.38,352.92c-.29.42-.57.82-.84,1.24-.25.4-.48.82-.73,1.23-.05.09-.11.22-.24.17-.13-.05-.09-.19-.04-.28.47-.87.97-1.71,1.72-2.38.01-.01.06.01.13.03Z"/>
    <path class="st7" d="M528.79,359.93c-.09.94.13,1.73.28,2.54.02.09-.01.19-.12.22-.04,0-.12-.03-.15-.07-.33-.35-.39-2.13-.01-2.68Z"/>
    <path class="st7" d="M526.35,361.02c0,.74.2,1.41.35,2.09.03.11.04.23-.08.28-.08.03-.14-.05-.16-.12-.18-.66-.39-1.31-.31-2,0-.07.02-.18.2-.24Z"/>
    <path class="st7" d="M526.38,353.72c-.47.54-.92,1.09-1.3,1.7-.05.08-.1.16-.21.13-.07-.02-.08-.08-.04-.14.39-.64.75-1.3,1.44-1.69.03-.02.09,0,.14.01,0,0-.02-.02-.02-.02Z"/>
    <path class="st7" d="M524.27,354.63c.23-.59.68-1.01,1.27-1.3-.38.47-.75.93-1.13,1.4-.05-.03-.09-.06-.14-.1Z"/>
    <path class="st7" d="M521.45,353.93c-.34.48-.6,1.02-1.02,1.44.12-.64.51-1.09,1.02-1.44Z"/>
    <path class="st7" d="M520.75,361.76c.23.49.29,1,.27,1.53,0,.08-.03.15-.13.15-.13,0-.14-.1-.14-.19,0-.5,0-.99,0-1.49Z"/>
    <path class="st7" d="M522.96,358.19c-.16.41-.16.74-.14,1.07,0,.09,0,.19-.12.21-.14.03-.19-.08-.21-.19-.07-.41,0-.77.47-1.09Z"/>
    <path class="st7" d="M525.19,361.94c.11.32.22.64.32.96.03.09.05.22-.11.25-.15.03-.19-.09-.22-.18-.1-.33-.19-.66,0-1.03Z"/>
    <path class="st7" d="M526.5,354.82c-.25.33-.5.66-.76.98-.03.03-.13.04-.16.02-.09-.06-.02-.13.02-.19.23-.34.48-.65.91-.8Z"/>
    <path class="st7" d="M523.74,358.31v.96c0,.11-.02.24-.16.23-.1,0-.14-.11-.13-.22.02-.32-.06-.67.28-.98Z"/>
    <path class="st7" d="M522.83,362.68c-.29-.37-.22-.74-.01-1.12.08.37.11.74.01,1.12Z"/>
    <path class="st7" d="M522.6,354.7c-.13.26-.26.52-.4.77-.02.04-.11.07-.15.06-.11-.04-.11-.14-.08-.23.09-.31.32-.49.64-.6Z"/>
    <path class="st7" d="M528.1,356.52c-.25.23-.4.38-.56.51-.06.05-.15.14-.23.03-.07-.09-.03-.19.03-.25.17-.17.39-.25.76-.29Z"/>
    <path class="st7" d="M527.08,355.69c-.26.29-.43.53-.73.66.1-.32.24-.6.73-.66Z"/>
    <path class="st7" d="M488.53,356.5c-.01.46-.28.75-.61.72-.28-.02-.46-.21-.48-.48-.03-.35.29-.71.61-.7.34.02.47.24.49.46Z"/>
    <path class="st7" d="M432.05,347.82c-.04.25-.15.39-.37.39-.23,0-.34-.16-.34-.35,0-.19.11-.35.35-.35.24,0,.29.18.36.31Z"/>
    <path class="st7" d="M504.24,351.11c.19-.48.51-.79.79-1.12.42-.51.89-.99,1.35-1.47.09-.1.22-.27.34-.15.14.13-.04.28-.13.38-.5.55-1.01,1.09-1.54,1.62-.24.24-.4.58-.81.74Z"/>
    <path class="st7" d="M505.37,350.85c.38-.47.75-.94,1.14-1.41.06-.07.15-.12.24-.05.08.06.04.14,0,.2-.37.5-.78.97-1.28,1.34-.03-.03-.06-.06-.1-.09Z"/>
    <path class="st7" d="M503.6,349.85c.3-.37.59-.75.89-1.12.05-.06.13-.12.19-.07.04.04.07.16.04.21-.3.4-.56.85-1.12.98Z"/>
    <path class="st7" d="M510.54,349.59c.12-.42.43-.75.65-1.11.35-.56.73-1.1,1.1-1.65.06-.08.13-.2.26-.13.07.04.05.14,0,.21-.64.92-1.27,1.83-1.91,2.74-.04-.02-.07-.04-.11-.07Z"/>
    <path class="st7" d="M511.56,348.99c.15-.47.41-.88.8-1.18-.11.5-.45.85-.8,1.18Z"/>
    <path class="st7" d="M510.24,347.96c.18-.42.4-.81.74-1.13l.11.07c-.25.38-.49.76-.74,1.14-.04-.03-.07-.05-.11-.08Z"/>
    <path class="st7" d="M498.95,351.65c.61-.88,1.35-1.63,2.17-2.3.09-.07.19-.14.28-.05.1.1.02.21-.06.28-.8.69-1.51,1.48-2.39,2.07Z"/>
    <path class="st7" d="M499.19,350.63c.63-.6,1.18-1.12,1.56-1.49-.3.45-.96.87-1.56,1.49Z"/>
  </g>
  <path class="st1" d="M338.57,275.61c-1.02,20.09-6.04,24.11-6.04,24.11,0,0-12.05-5.02-15.07-11.05-8.87-17.75,11.05-6.03,11.05-6.03,0,0,10.92-24.56,10.06-7.03Z"/>
  <path class="st5" d="M399.75,270c0,75.4-61.12,136.52-136.52,136.52s-136.52-61.12-136.52-136.52,61.52-138.74,136.92-138.74,136.12,63.34,136.12,138.74Z"/>
  <g>
    <g class="st8">
      <g>
        <path class="st6" d="M310.21,392.99c-1.04-1.21-2.16-.86-3.7-.74-4.55.38-9.1.82-13.64,1.21-2.93.26-6.11.71-8.96-.25-3.69-1.23-5.72-5.09-8.97-7.08-1.79-1.09-3.86-1.88-5.99-1.7-3.85.32-6.44,3.64-10.61,2.6-2.7-.67-4.74-2.98-7.55-3.32-2.55-.31-5.22.8-7.52,1.73-3.04,1.23-11,3.12-12.58,6.79-1.46,3.38,3.56,4.06,5.75,4.73,15.34,4.72,31.47,5.36,47.41,4.91,7.02-.2,15.24.4,21.91-2.21,2.53-.99,8.17-4.01,4.34-6.78-.66-.48-1.3.63-.64,1.1,2.84,2.06-5.5,4.95-5.56,4.96-1.84.53-3.77.75-5.67.94-3.46.34-6.96.44-10.43.58-7.44.3-14.91.42-22.35.03-7.81-.41-15.59-1.38-23.2-3.25-1.53-.38-3.06-.78-4.57-1.23-1.3-.39-5.91-1.56-5.11-4.01.64-1.98,6.34-3.3,8.27-4.11,3.76-1.6,7.66-3.84,11.78-2.25,2.3.88,4.18,2.6,6.7,2.92,1.46.18,2.76-.08,4.13-.59,2.99-1.11,4.13-3.01,8.27-1.97,2.37.6,4.37,2.51,6.08,4.13,3.02,2.85,5.29,4.75,9.63,4.92,3.1.12,6.27-.38,9.35-.66,1.94-.17,11.16-2.11,12.55-.5.54.62,1.43-.28.9-.9Z"/>
        <path class="st6" d="M297.62,286.56c-3.81-.33-3.29-3.68-5.67-5.58-2.44-1.94-5.5-1.86-8.41-2.08-7.31-.57-1.6-13.96-9.95-15.67-2.61-.53-4.49-.4-6.5-2.4-.83-.83-.84-1.44-1.77-2.26-2.67-2.36-6.53-2.59-9.89-3.04-1.7-.23-3.39-.43-5.09-.62-4.74-.54-5.91-1.43-8.03-5.95-1.68-3.56-6.06-5.33-7.16-9.11-.69-2.37,1.35-7.1-.09-9.02-.95-1.25-1.86-.53-3.01-.52-2.01.02-6.1-.85-7.25-2.93-1.05-1.89.38-2.77,2.21-3.22,1.27-.31,2.97-.54,4.31-.46,3.54.2,3.79,1.36,5.54,4.64,1.22,2.29,4.53,7.51,7.21,3.77,1.29-1.81.29-5.39-.25-7.26-.43-1.47-3-5.92-2.1-7.3.25-.38,2.85-1.95,3.44-2.31,2.1-1.27,4.16-.77,5.64-3.19,1.66-2.73,1.29-5.69,3.51-8.39,1.43-1.74,3.21-3.18,4.63-4.94,1.31-1.62,3.62-4.64,2.92-6.94-.78-2.56-4.48-3.25-6.58-4.04l-.17,1.27c4.22-.31,13.41-.17,15.1-5.46.87-2.71-1.21-4.32-3.5-5.28-2.22-.93-4.04-.79-6.35-.87-4.57-.15-6.77-2.82-10.67-4.46-2.81-1.19-8.04-1.96-10.18,1.02-.54.74-.56,1.56-.76,2.42-.39,1.71-.13,5.74-4.2,4.14-1.03-.41-2.24-2.37-3.14-3.13-.38-.32-1.2-.32-1.43-.62-1.97-2.63.19-.49.39-2.64.12-1.29.54-1.36.13-2.78-.86-3.05-3.74-3.62-6.5-3.25-1.44.19-2.72.77-4.09,1.18-4.33,1.31-7.75.59-11.99-.38-1.15-.26-2.29-.55-3.46-.69-.63-.08-3.55.21-3.99-.06-.3-.18-.51-1.45-.9-2.02-2.02-2.94-7.16-2.15-9.74-.95-3.93,1.82-6.43,3.52-10.96,3.14-2.8-.23-5.46-.49-8.26-.05-6.69,1.06-13.59,5.39-16.34,11.84-1.36,3.2-1.33,7.58,3.14,7.29,1.57-.1,2.73-.96,4.14-1.47,3.42-1.22,5.62.71,8.74,1.03,1.02.1,1.61-.31,2.46-.35,1.82-.08,3.22.16,4.95,1.8,2.71,2.56,1.33,2.93,1.49,6.3.01.3-.34.77-.21,1.07.39.96.66,1.16,1.51,1.7,2.94,1.89,3.21-.57,3.88,3.23.55,3.13,1.03,5.99,2.17,9.01,1.01,2.68,2.2,5.29,3,8.05.72,2.49.76,5.2,1.87,7.57,1.61,3.43,4.77,5.12,8.13,6.49,2.94,1.2,6.07,2.08,8.88,3.57,3.35,1.77,4.52,4.27,6.76,7.03,1.49,1.83,2.8,2.45,4.91,3.24,4.46,1.66,7.48,3.57,10.83,7.01,2.15,2.21,4.15,4.57,6.35,6.74,1.62,1.6,4.02,2.99,2.64,6.13-.49,1.13-1.67,1.74-2.34,2.72-1.42,2.07-1.96,4-2.34,6.48-.36,2.32-.26,4.61-.94,6.9-.58,1.95-1.78,3.54-2.39,5.44-1.45,4.5.89,8.46,3.49,11.98,5.88,7.95,7.69,14.45,5.66,24.34-2.69,13.12-9.95,27.17-4.72,40.46,1.08,2.75,2.48,5.36,3.89,7.94,1.06,1.95,2.39,6.05,4.05,7.45,2.35,1.97,3.81.08,4.33-2.52.75-3.7.13-7.43-.12-11.15-.15-2.24-.4-4.61.19-6.81.92-3.46,3-4.11,5.77-5.48,5.01-2.47,4.62-5.31,6.7-10.03,1.81-4.11,5.65-1.74,8.55-3.01,2.27-.99,3.3-3.73,4.93-5.4,2.91-2.99,6.47-.8,9.57-2.75,1.82-1.14,2.58-3.35,3.01-5.34.22-1.04.13-1.85.34-2.88.81-4,2.33-5.18,5.82-6.38,1.71-.59,3.13-.96,4.59-2.08,3.17-2.42,5.08-6.45,6.13-10.21,1.88-6.74,1.5-16.21-6.32-18.65-.79-.25-1.13,1-.34,1.25,10.24,3.2,6.6,19.73.93,25.52-2.71,2.76-6.38,2.24-9.23,4.43-5.83,4.5.12,11.63-9.55,13.75-3.68.81-5.04,1.39-7.41,4.46-3.17,4.09-9.01.92-11.65,5.12-.92,1.46-.94,3.6-1.5,5.21-1.54,4.45-4.09,4.79-7.64,6.68-3.3,1.76-4.23,5.4-4.35,8.96-.1,3.05.56,6.08.63,9.12.05,1.92,1.04,7.63-3.09,5.96-.66-.27-2.03-3.72-2.4-4.39-4.31-7.83-7.53-14.65-6-23.79,2.01-12.07,9.04-25.28,6.9-37.69-.99-5.76-4.52-9.56-7.65-14.23-2.88-4.3-3.03-6.97-1.24-11.7,1.14-3.02,1.77-5.53,2.16-8.76.41-3.35.93-5.75,3.09-8.36.17-.2.69-.65.93-1.02.75-1.13,1.58-2.38,1.41-3.82-.19-1.69-1.42-2.69-2.55-3.83-2.14-2.16-4.21-4.35-6.3-6.56-2.15-2.28-4.38-4.66-7.05-6.34-2.65-1.66-6.62-1.86-8.88-3.97-2.17-2.03-2.94-4.9-5.34-6.78-2.01-1.57-4.59-2.48-6.94-3.4-2.93-1.15-6.19-2-8.81-3.81-3.33-2.31-3.78-5.3-4.56-8.93-1.62-7.53-6.48-14.04-5.47-22.04.04-.36-.33-.64-.64-.65-6-.2-2.79-4.46-5.19-7.92-1.21-1.74-4.11-4.25-6.4-4.25-.5,0-.9.31-1.29.34-.25.02-.91.54-1.26.6-1.3.21-3.54-1.27-4.44-1.58-4.15-1.43-5.51,2.14-9.46,1.92-4.12-.22-2.23-4.87-.85-7.16,2.29-3.81,6.08-6.7,10.19-8.27,5.25-2,9.83-.68,15.17-.86,2.29-.08,4.11-.88,6.12-1.88,2.15-1.08,3.9-2.67,6.52-2.56,2.18.09,4.64,1.24,4.46,3.7-.03.43.44.72.81.62,5.81-1.51,11.35,2.48,17.2,1.72,1.97-.26,3.69-1.1,5.58-1.63,3.44-.96,7.92.31,6.09,4.54-.8,1.85-1.81,1.79.04,3.43.75.66,2.24.85,3.14,1.61.72.61,1.25,1.45,1.96,2.07.75.66,1.68,1.52,2.78,1.43,2.61-.21,2.92-3.68,3.5-5.55,2.65-8.49,10.55-1.58,15.61.56,3.02,1.28,6.01.32,9.11,1.06,4.12.98,5.38,5.2,1.31,7.07-3.09,1.42-7.46,1.46-10.83,1.71-.74.05-.86,1.01-.17,1.27,2.99,1.13,5.99,1.62,5.04,5.61-.57,2.4-3.09,4.45-4.73,6.17-2.64,2.78-3.6,4.88-4.88,8.34-1.01,2.72-3.43,2.66-5.58,4.42-1.11.91-2.1,1.81-3.22,2.68-1.65,1.27-1.85.98-1.69,2.97.18,2.33,2.57,4.93,3.1,7.46-.03-.17.73,3.87.19,4.3-3.1,2.46-4.41-1.78-5.13-3.26-1.16-2.39-2.32-4.83-5.03-5.31-2.21-.39-10.11-.09-10.25,3.6-.11,2.88,4.44,4.67,6.55,5.35,2.69.87,4.02-.04,4.52,3.26.46,3.01-.62,5.42,1.35,8.15,1,1.39,2.53,2.19,3.7,3.39,1.73,1.78,2.04,3.71,2.97,5.79,1.28,2.87,3.94,3.72,6.85,4.12,3.64.51,7.49.55,11.07,1.45,3.27.82,4.15,1.88,6.46,4.5,1.05,1.19.69,1.71,2.28,2.47,1.31.62,2.03,0,3.15.29,7.76,2.1,5.25,4.61,5.57,9.78.14,2.29,1.23,4.26,3.36,5.17,1.27.55,2.63.41,3.97.51,4.89.36,5.28.87,8.24,5.17,1.6,2.32,1.82,2.22,4.84,2.48.82.07.82-1.22,0-1.29Z"/>
        <path class="st6" d="M268.76,155.8c5.95,3.51,8.27,10.25,14.71,13.12,4.06,1.81,10.37,2.08,14.72,1.15,2.52-.54,4.28-1.32,3.38-3.95-.75-2.19-2.77-3.12-4.48-4.29-2.9-1.98-2.03-4.64-2.47-7.94-.42-3.16-1.22-6.8-4.98-7.08-3.7-.28-5.45,2.43-9.64,1.57-3.11-.64-5.88-2.51-9.07-2.91-2.5-.31-8.01.08-8.29,3.56-.25,3.05,3.99,5.5,6.11,6.78.77.46,1.47-.74.7-1.21-1.42-.85-4.65-2.44-5-4.16-.86-4.17,5.34-3.84,7.65-3.3,3.15.73,5.99,2.61,9.25,2.9,4.22.37,8.35-4.34,11.43,1.48,1.39,2.63-.54,7.51,1,9.87,1.13,1.72,4.2,1.45,5.21,3.46,2.59,5.19-8.79,4.14-10.35,4-9.03-.8-12.05-10.04-19.19-14.25-.77-.46-1.47.75-.7,1.21Z"/>
        <path class="st6" d="M253.31,161.78c2.83,2.4,8.08,8.08,12.25,4.41,1.55-1.37.69-4.54.29-6.3-.73-3.24-2.56-5.23-5.5-6.62-2.54-1.21-5.22-3.49-7.98-3.98-2.07-.37-5.16.44-6.16,2.52-1.89,3.94,4.71,8.07,7.1,9.97.69.55,1.68-.43.98-.99-2.16-1.72-4.95-3.49-6.36-5.94-2.12-3.68,3.23-4.87,5.8-3.62,1.63.79,3.04,1.94,4.71,2.7,2.12.97,4.16,1.81,5.31,4.03.99,1.9,2.29,6.58-.3,7.6-3.56,1.4-6.78-2.77-9.15-4.78-.68-.58-1.67.41-.98.99Z"/>
        <path class="st6" d="M310.1,151.75c1.73,1.16,2.99,1.36,5.01,1.31,3.31-.09,6.51.25,9.86.42,3.11.15,11.61-.29,5.34-4.23-.76-.48-1.49.72-.73,1.19,3.47,2.18-2.72,1.72-4.12,1.66-2.21-.09-4.42-.29-6.62-.54-3.51-.41-7.07-.84-9.98-2.82-2.84-1.94-4.83-3.46-8.39-3.93-3.12-.42-6.06-.16-8.67-2.34-1.43-1.2-2.3-3.17-3.58-4.55-1.43-1.55-1.43-.85-1.23-2.47.26-2.09,8.3.73,10.11,1.34,10.93,3.69,22.43,7.96,32.48,13.65.78.44,1.51-.75.73-1.19-7.42-4.2-15.39-7-23.3-10.11-4.11-1.62-8.16-3.39-12.41-4.59-1.84-.52-5.95-2.08-7.96-1.38-2.48.88-1.97,2.68-.88,4.29,2.61,3.89,5.95,8.3,10.87,8.57"/>
        <path class="st6" d="M392.63,233.96c.41-1.83-1.34-5.72-2.9-6.71-.29-.18-.79-.18-.97.17-.59,1.14-2.07,2-3.1,2.65-3.32,2.1-5.02,1.51-8.57.11-1.75-.69-2.11-1.03-3.82-.12-2.65,1.4-2.35,4.03-6.08,4.89-1.35.31-3.1-.1-4.5-.03-2.15.1-3.86.24-4.98,2.24-.57,1.03-.4,1.72-.59,2.81-.51,3.02-1.16,5.4-3.02,7.97-1.57,2.18-3.53,4.06-5.44,5.94-1.17,1.15-3.49,2.66-4.02,4.38-.76,2.47,2.17,6.43,3.19,8.52,2.23,4.57,4.51,9.38,7.35,13.61,4.26,6.35,8.5,4.42,14.55,2.43,1.26-.41,3.35-1.33,4.58-.52,2.14,1.4,2.4,4.7,1.26,6.53-.96,1.54-2.23,2.87-3.19,4.41-1.93,3.07-1.99,5.91-1.14,9.41,1.07,4.37,2.82,8.66,4.92,12.62,1.65,3.11,4.62,9.56,7.68,11.27,1.11.62,1.96,1.16,3.15.27,1.34-1,1.51-3.74,1.87-5.13.87-3.41,1.68-6.85,2.42-10.29,5.5-25.61,6.95-52.03,1.38-77.79-.19-.88-1.57-.63-1.38.26,4.77,22.07,4.4,44.69.64,66.85-.99,5.84-2.21,11.65-3.61,17.41-.3,1.24-.34,3.05-1.03,4.1-.51.78-2.15,2.53-3.58,1.96-1.69-.67-4.79-6.87-5.42-7.96-2.38-4.17-4.81-9.09-5.67-13.83-1.3-7.15,2.03-8.45,4.77-13.84,1.76-3.48.53-7.17-3.69-7.82-1.96-.3-3.87.55-5.63,1.27-1.68.68-3.37,1.59-5.22,1.61-4.79.07-6.62-4.11-8.59-7.61-2.33-4.15-5.78-9.05-6.99-13.66-1.46-5.54,3.22-7.93,6.43-11.68,1.94-2.27,3.84-4.9,4.54-7.87.55-2.35-.1-5.22,2.9-6.34,1.77-.66,4.07.1,5.94-.09,2.16-.23,2.99-.83,4.48-2.48,2.69-2.97,3.24-2.46,6.5-1.42,1.28.41,2.18.81,3.59.7,2.54-.21,4.61-1.75,6.6-3.18.13-.09,1.48-1.58,1.57-1.55-.45-.17,1.5,5.1,1.51,5.06-.19.87,1.12,1.37,1.32.49Z"/>
        <path class="st6" d="M355.48,215.23c-.75,4.04,3.4,2.77,5.94,3.14,3.19.47,3.89,2.64,6.06-.46,1.16-1.66,1.8-3.86,2.57-5.73,1.01-2.45,2.58-4.61,3.6-6.98,1.31-3.05-.52-6.36-2.18-8.89-1.24-1.88-8.2-12.9-10.05-7.01-.24.76.11,2.13.03,2.91-.37,3.29-1.69,4.67-4.28,6.27-2.2,1.36-4.39,2.92-5.47,5.42-.65,1.49-.98,3.29-.38,4.87.86,2.26,4.85,3.59,4.19,6.45-.19.8,1.04,1.14,1.22.34.48-2.08-.42-3.15-1.87-4.61-.41-.41-1.24-.88-1.5-1.4-.87-1.75.89-7.23,2.34-8.61,1.72-1.64,3.23-1.52,4.75-3.22,1.53-1.71,1.81-6.66,3.15-7.45,1.36-.8,1.86.59,3.02,1.91,1.99,2.25,4.03,4.66,5.28,7.41,1.89,4.14-.52,6.34-2.12,9.99-1.03,2.34-1.83,7.16-4.36,7.97-1.22.39-8.9-.87-8.7-1.98.15-.8-1.08-1.15-1.22-.34Z"/>
      </g>
    </g>
    <path class="st4" d="M385.24,205.8c-19.12-43.26-51.87-72.23-97.08-73.83-26.61-1.7-52.7-.82-76.56,11.73-17.37,9.14-40.08,26.4-52.58,42.06-37.29,46.76-33.62,117.22,3.26,164.33,28.9,36.91,55.59,58.16,100.94,56.43,45.35-1.73,113.3-22.97,130.81-67.13,15.3-38.6,7.97-95.67-8.79-133.59Z"/>
  </g>
  <g>
    <g>
      <path class="st7" d="M353,571.37c-.42-17.86-3.87-35.58-10.35-52.2-2.52-6.74-5.79-13.42-10.74-18.7-3.19-2.84-7.31-3.73-11.54-4.69-8.28-1.86-17.88-2.68-26.4-3.51-8.81-.73-17.8-.03-26.66-.21-8.96.03-17.73.19-26.62,1.11-8.72.83-17.62,1.69-26.01,3.91-5.05,1.28-10.41,2.84-13.37,7.43-11.95,17.12-18.35,45.89-19.81,66.84,0,.17-.15.29-.31.29-.15,0-.27-.12-.29-.27-1.2-12,.4-24.14,2.61-35.95,2.25-11.99,6.07-23.92,12.83-34.27,3.62-5.92,10.35-8.61,16.79-10.12,8.99-2.26,18.03-2.96,27.15-3.47,8.97-.59,18.14-.53,27.09-.3,9.04.4,18.03-.08,27.05.9,0,0,8.91,1.09,8.91,1.09,5.95.77,11.93,1.71,17.83,3.15,6.02,1.31,12.64,3.72,15.86,9.52,3.47,4.99,6.02,10.62,7.91,16.39,3.99,11.34,6.67,23.14,7.9,35.09.6,5.97.85,11.96.77,17.95,0,.17-.14.3-.3.3-.16,0-.29-.13-.3-.29h0Z"/>
      <path class="st7" d="M188.93,566.05c7.62,8.33,12.92,18.47,17.25,28.82,5.03,11.59,10.04,23.09,15.45,34.47,2.25,5.06,3.93,10.44,6.54,15.27,1.93,3.48,4.81,6.14,8.02,8.58,1.54,1.19,3.39,2.44,5,3.59,1.2.56,3.6.18,5.04.25,2.63-.05,18.01-.23,20.99-.28,3.06-.05,18.26-.27,20.99-.33.9-.05,2.75.04,3.62-.21,2.89-.6,6.23-4.25,8.89-6.37,4.84-4.6,6.75-10.99,9.32-17.08,5.15-11.93,11.77-26.59,17.26-38.32,2.33-4.99,4.51-10.37,7.92-15.09,3.2-4.41,5.99-9.59,10.36-13.32.13-.11.32-.09.42.03.1.11.09.28,0,.39-3.61,4.25-5.66,9.4-8.48,14.37-2.73,4.69-4.31,9.95-6.34,15.25-3.31,9.06-8.66,22.12-12.24,31.25-4.39,9.7-6.88,21.71-15.95,28.44-3.53,2.94-7.65,6.46-12.71,6.16,0,0-2.1-.04-2.1-.04-2.63-.07-17.99-.28-20.98-.34-3.06-.04-18.25-.25-20.98-.29-2.46-.16-4.97.4-7.31-1.11-1.65-1.26-3.51-2.57-5.13-3.89-3.39-2.7-6.71-5.99-8.75-9.96-2.59-5.1-4.13-10.52-6.27-15.74-5.08-11.52-9.67-23.3-14.29-34.97-2.05-5.2-4.12-10.35-6.78-15.26-2.6-4.92-5.66-9.59-9.22-13.88-.11-.13-.09-.32.04-.42.12-.1.31-.09.42.03h0Z"/>
      <path class="st7" d="M324.78,505.71c-4.32-2.91-9.54-3.76-14.58-4.69-8.47-1.62-17.07-2.57-25.67-2.73-6.89-.19-13.87.31-20.76.32-6.93.1-13.82.23-20.54,1.06-10.11,1.28-19.98,3.2-29.42,6.84-5.48,2.57-8.72,8.9-11.71,14.22-1.64,2.95-3.05,6.02-4.37,9.14-1.63,3.88-2.94,8.03-4.04,12.12-.68,2.35-1.16,4.83.36,7,.1.14.06.33-.08.42-.12.08-.27.07-.37-.02-3.01-2.54-2.24-6.96-1.9-10.41.96-8.86,3.85-17.48,7.94-25.39,2.76-5.57,6.82-11.23,13.03-13.34,16.42-5.33,34.11-6.11,51.12-5.52,6.99.3,13.9.09,20.87.59,8.74.64,17.38,2.09,25.85,4.2,5.08,1.21,10.38,2.47,14.6,5.73.13.1.16.29.05.42-.1.13-.28.15-.41.07h0Z"/>
      <path class="st7" d="M350.61,571.78c-.89-3.74-4.65-5.27-7.46-7.45-5.9-4.35-12.77-7.01-19.71-9.24-13.88-4.63-28.23-7.67-42.88-7.83-21.89-.88-43.69,2-64.65,7.88-6.92,2.06-13.93,4.13-20.47,7.25-3.22,1.6-6.27,3.62-9.27,5.79-.14.1-.32.07-.42-.07-.08-.11-.07-.27.01-.37,4.78-5.84,11.25-10.16,18.13-13.24,20.78-10.12,42.84-13.17,65.72-12.14,7.47.28,14.88.63,22.3,1.67,11.12,1.54,21.91,4.7,32.32,8.77,3.47,1.32,6.93,2.74,10.25,4.45,5.07,2.48,9.41,5.96,13.76,9.54,1.42,1.24,2.62,2.94,2.93,4.85.03.17-.08.33-.25.35-.16.03-.31-.08-.34-.23h0Z"/>
      <path class="st7" d="M339.6,575.51c1.67-.22,3.04-1.34,4.65-2.18,1.66-.75,3.35-1.32,5.13-1.64,10.92-2.03,21.46,5.03,27.97,13.29,10.85,14.82,10.46,34.85,6.12,51.93-.27,1.24-.05,1.39.75,1.91,1.26,1.05,1.3,2.08,1.48,3.34,1.01,23.39-7.28,27.02-27.39,34.5-6.32,2.2-12.83,3.82-19.42,4.93-.82.15-1.59.02-2.16-.16-1.83-.25-3.19-1.83-2.81-3.69,1.85-5.89,2.15-12.22,1.13-18.35-.51-3.9-1.57-8.18-4.95-10.54-.08-.02.15-.03,0-.04-1.02.2-3.39,1.51-3.92,2.16-.3.37-.21.74-.15,1.34.09.72.54,2.21.7,3.01,0,0,.77,3.17.77,3.17l.04.18c.26,1.09-.41,2.18-1.49,2.44-3.01.3-6.09.72-9.35.74-2.35,0-4.38-.19-6.56.33-.44.11-1.03,0-1.37-.07-.11-.02-.11-.02-.05-.05.07-.03.13-.1.11-.11l-1.84.09c-2.96-3.53-8.03-1.59-11.96-2.66-.27-.19-.28-.33-.35-.4-.25-.29.1-.7.42-.43.13.13.26.28.24.23,0,0-.03-.02-.05-.02,4.5.07,9.69-2.18,13.46,1.51,0,0-1.84.09-1.84.09.35-.58,1.46-.98,2.07-.88.3,0,.47.05.6,0,0,0,0,0-.03,0,0,0-.03,0-.03,0,0,0,.06-.02.06-.02,2.2-.78,4.77-.86,6.95-1.07,2.81-.3,5.66-.92,8.67-1.44l-1.76,2.67-1.03-3.13c-.86-2.56-2.07-5.7-.33-8.28,1.06-1.56,2.24-2.24,3.26-2.92,1.9-1.26,4.59-2.59,6.98-1.41,5.42,2.85,7.76,8.74,8.66,14.45,1.31,6.89,1.2,14.16-1.09,20.89,0,0-2.26-3.96-2.26-3.96.32.07.65.17.83.23.17.09.24-.02-.54,0,6.31-.97,12.57-2.29,18.68-4.13,3.29-.99,6.52-2.14,9.69-3.46,2.98-1.32,6.19-2.49,8.76-4.49,6.02-4.6,6.46-12.76,6.56-19.86,0-.36.04-1.54-.09-1.84.01-.02-.04.02.3.3.16.11.02,0-.03-.03-.19-.15-.4-.26-.58-.43-.51-.44-1-1.01-1.33-1.71-.66-1.46-.44-2.92-.19-3.9,1.02-3.33,1.68-6.73,2.29-10.12,3.64-20.23-1.29-43.89-22.34-52.06-4.79-1.81-10.29-1.69-15.02.27-1.53.69-3.05,1.85-4.94,2.03-.16.02-.31-.11-.33-.27-.02-.16.1-.3.26-.33h0Z"/>
      <path class="st7" d="M194.51,575.77c-.36.03-.77.14-1.19.09-.67-.22-1.11-.68-1.74-.98-6.05-3.52-13.56-2.48-19.63.47-14.18,6.95-20.67,23.98-19.85,39.08.39,7.84,1.67,15.67,3.89,23.15.31,1.05-.03,2.14-.79,2.83-1.42,1.1-1.41,2.62-1.35,4.54.11,2.5.15,4.87.46,7.07,1.11,10.55,9.46,13.98,17.85,18.22,4.39,2.18,8.94,4.11,13.55,6.02.15.06.23.24.16.4-.05.13-.19.2-.32.18-4.98-.64-9.9-1.76-14.72-3.27-7.51-2.47-15.81-5.28-19.92-12.65-2.85-4.72-3.23-10.6-3.25-15.79-.2-3.09.79-7.21,3.72-9.15,0,0-1.07,3.08-1.07,3.08-1.82-8.08-2.7-16.3-2.75-24.52-.13-16.35,7.7-34.56,23.53-41.12,7.08-2.99,15.91-3.39,22.16,1.67.18.25.68.08,1.26.09.37.05.41.56,0,.6h0Z"/>
      <path class="st7" d="M334.41,550.14c-10.38-3.38-20.88-6.35-31.76-7.4-13.47-1.41-27.11-2.51-40.66-1.82-5.49.21-10.56,1.21-16.04,1.89-2.66.35-5.64.46-8.26.62-5.25.33-10.56,1.13-15.95,2-5.46.83-10.75,1.74-16.22,2.67-.32.06-.49-.44-.18-.57,2.47-1.24,4.95-2.43,7.57-3.47,9.1-3.37,18.51-6.34,28.32-7.01,4.07-.4,8.02-.97,12.19-1.27,11.13-.57,22.28.32,33.31,1.58,8.19,1.07,16.41,2.18,24.47,4.14,8.03,1.98,15.81,4.91,23.41,8.09.15.06.23.24.16.39-.06.14-.22.22-.37.17h0Z"/>
      <path class="st7" d="M228.61,683.64c1.22,4.03,5,3.12,8.28,2.98,5.21-.31,15.66-.87,20.87-1.1,10.12-.22,21.26-1.36,31.33-.8,3.48.22,6.96.53,10.43,1.01,0,0,2.46.33,2.46.33,2.37.31,4.34-.36,5.97-2.45,1.33-.7-.18,2.52-.52,2.9-1.71,2.62-5.11,3.22-7.98,3.43-6.94.76-13.89,1.1-20.85.62-6.02-.52-14.71-.86-20.83-1.06-6.43-.27-17.05-.82-23.46-1.18-2.97.05-5.8-1.33-6.27-4.53-.06-.37.45-.51.58-.16h0Z"/>
      <path class="st7" d="M161.68,668.07c-.87,7.1-.44,14.16,1.28,21.02.54,2.02,1.04,5.08,3.06,5.9.52.19.71.2,1.37.23,4.64.23,9.42.71,13.67-1.04.49-.31.37-.27.43-.56.05-.36.06-.72.06-1.18.02-1.05.08-2.2.14-3.24.18-2.88.5-5.76.89-8.62.13-1.31.5-4.26,2.72-5.75.45-.36,1.05-.45,1.56-.29,0,0,2.54.81,2.54.81,10.34,3.69,10.4,3.84-.66,3.64,0,0-2.67-.13-2.67-.13l1.87-.54c-.05.19-.1.39-.12.8.13,3.99.26,8.33-.01,12.36-.1,2-.24,4.18-1.62,5.86-3.52,4.16-12.37,2.86-17.08,2.34-1.52-.26-3.5-.3-4.91-1.12-3.43-1.94-3.88-5.55-4.36-8.9-1-7.23-.63-14.75,1.24-21.72.1-.34.63-.25.59.11h0Z"/>
      <path class="st7" d="M373.4,667.95c1.51,5.52,2.24,11.33,1.93,17.21-.2,2.94-.64,5.84-1.41,8.78-.23.77-.53,1.65-1.16,2.55-1.7,2.34-4.58,2.69-7.16,3.28-4.69.81-13.6,2.01-17.17-1.97-1.48-1.73-1.74-4.05-1.45-6.18.15-1.32.54-4.85.69-6.21.29-2.76.47-5.5.55-8.44,0-.3.42-.42.58-.16,2.86,4.62,3.63,10.19,3.89,15.51.03.3.07.77.16,1.01.09.35.2.4.2.37.01-.04.08.07.45.17,4.56,1.21,9.63,1.73,14.34.73.59-.11,1.23-.29,1.59-.67,3.94-7.83,4.18-17.13,3.37-25.87-.05-.35.51-.47.59-.11h0Z"/>
      <path class="st7" d="M209.91,658.83c6.33.44,12.66.9,18.98,1.39.53.04.92.54.83,1.06-.82,7.16.4,14.44.05,22-.03.71-.54,1.29-1.21,1.44-3.9.85-7-.41-10.63-.58-2.33-.22-4.35-.48-6.32.67-.59.34-1.49.57-2.14.73-6.05.91-12.88-2.87-14.67-8.8-2.04-6.64-2.34-13.82-.76-20.6,1.02-4.59,2.73-9.14,6.72-11.98,2.23-1.72,5.66-1.1,7.83.21,1.38.75,2.64,1.46,3.72,2.92,1.99,2.69.94,6.04.05,8.84-1.17,4.14-1.9,8.39-1.95,12.71-.03,2.16.12,4.33.44,6.51.33,2.16.64,4.31,1.99,6.13.17.29-.24.61-.48.36-1.91-1.45-2.86-3.73-3.67-5.94-2.7-7.19-2.65-15.21-1.07-22.65.14-.75.32-1.69.19-2.31-.06-.17-.08-.14-.13-.2-.11-.13-.83-.61-1.72-.98-.87-.43-1.76-.63-1.67-.55.04.02.12-.04-.05.09-1.6,1.34-2.79,3.35-3.4,5.37-1.77,4.91-2.73,10.12-2.29,15.35.18,2.04.52,4.11,1.1,6.08.66,2.17,3.52,4.25,5.88,4.98,1.61.47,3.17.63,4.66-.12,5.66-2.64,12.05,1.28,17.68.65,0,0-1.29,1.45-1.29,1.45.73-7.25.01-14.74,1.29-22.04,0,0,.83,1.06.83,1.06-6.28-.86-12.57-1.75-18.85-2.66-.37-.04-.31-.63.06-.6h0Z"/>
      <path class="st7" d="M153.48,639.24c1.63,3.88,5.6,4.67,9.35,5.6,1.95.52,3.89,1.07,5.82,1.62l5.74,1.72c4.74,1.3,9.57,2.15,14.06,4.2,2.86,1.14,5.65,2.51,8.19,4.41.14.11.17.31.06.46-4.18.91-8.4.47-12.57-.16-4.08-.68-7.7-2.76-11.4-4.4-3.21-1.44-7.76-3.56-10.91-5.02-3.58-1.58-8.28-3.81-8.91-8.26-.06-.34.44-.5.58-.17h0Z"/>
      <path class="st7" d="M381.56,640.16c-1.62,3.9-5.91,5.77-9.37,7.58,0,0-5.34,2.63-5.34,2.63-3.62,1.68-7.27,3.26-10.9,4.95-3.7,1.65-7.71,2.36-11.75,2.53-2.04.07-4.11-.02-6.21-.47-.27-.05-.35-.44-.12-.59,3.4-2.33,6.95-3.92,10.68-5.42,5.47-2.05,11.35-2.77,16.87-4.73,3.2-1.02,8.14-2.27,11.17-3.47,1.71-.73,3.29-1.77,4.45-3.32.19-.29.67-.02.52.3h0Z"/>
      <path class="st7" d="M171.53,552.1c-1.08,1.77-3.48,2.22-5.35,2.33-3.22.56-6.56-1.41-8.09-4.25-4.13-6.68,2.68-15.46,10.23-13.82,7.42,1.1,9.79,7.51,7.83,13.99,0,0-.44-2.09-.44-2.09,1.01,1.85,1.94,3.74,2.78,5.7.82,1.97,1.61,3.97,2.15,6.13.04.17-.06.34-.23.39-1.89-.94-3.61-2.94-5.15-4.33-1.5-1.51-2.92-3.08-4.26-4.7-.52-.59-.52-1.37-.44-2.09.1-1.69.12-3.34-.1-4.52-.17-1.83-1.59-2.98-3.27-3.53-3.24-1.27-6.94,2.05-6.92,5.36.14,3.16,2.4,6.18,5.89,6.16,1.79.12,3.59.26,4.92-1.11.24-.26.67.09.47.38h0Z"/>
      <path class="st7" d="M364.01,552.32c3.1,1.05,7.07,1.15,9.03-1.78,1.54-2.29,1.6-6.04-.57-7.9-4.23-3.41-8.54-1.09-8.56,4.27,0,.33.06,2.91.06,3.16.01.57-.21,1.09-.56,1.48-1.36,1.46-2.78,2.87-4.29,4.22-6.36,5.37-6.53,5.37-3.07-2.31.88-1.82,1.84-3.58,2.87-5.29l-.55,1.95c-1.92-6.15.86-12.51,7.55-13.85,5.85-.99,12.35,3.93,11.58,10.07-.26,3.14-2.09,6.46-5.19,7.61-2.81,1.16-6.09.34-8.53-1.08-.32-.17-.09-.67.24-.55h0Z"/>
      <path class="st7" d="M308.18,661.52c.73,7.29,1.36,14.58,1.83,21.89,0,0-2.38-2.12-2.38-2.12,3.92-.67,7.8-1.5,11.69-2.32.63-.14.93-.27,2.01-.26.7.01,1.49.25,2.13.58,2.94,1.64,6.29,1.78,9.59.65,1.17-.35,2.37-.81,3.67-1.23.26-.1.53.21.39.46-2.74,5.48-9.49,8.67-15.36,6.2-.4-.16-.94-.42-1.26-.57.14.07.39.12.51.12-3.9.26-8.89.29-13.13.63-1.19.07-2.2-.94-2.12-2.13.23-3.65.51-7.3.82-10.94.33-3.65.61-7.3,1.01-10.94.04-.34.57-.35.6,0h0Z"/>
      <path class="st7" d="M330.68,511.47c3.48,4.49,6.72,9.31,9.26,14.42,1.01,2.11,2.2,4.71,3.12,6.87,1.81,4.85,1.7,10.31-.73,15.06-.09.16-.29.22-.46.14-1.97-3.55-3.11-7.49-4.14-11.39-.48-2.16-.66-4.66-1.25-6.81-.81-2.96-1.83-6.11-2.88-8.99-1.07-3-2.28-5.98-3.45-9-.13-.31.32-.57.52-.3h0Z"/>
      <path class="st7" d="M325.59,659.74c1.82,3.56,2.52,7.73,2.38,11.73,0,0-.01,3.07-.01,3.07-.03,1.55-.61,2.96-1.45,4.23-.33.48-.67.94-1.03,1.42-.91,1.11-2.04,1.49-3.36,1.65-.23.04-.45-.11-.48-.34-.09-1.05.27-2.1-.06-2.97-.36-1.61-.14-3.75.59-5.29.85-1.62,1.37-3.34,1.78-5.11.7-2.71,1.03-5.38,1.06-8.25,0-.31.45-.42.58-.14h0Z"/>
      <path class="st7" d="M239.02,659.07c-.96,1.18-2.59,1.67-3.98,2.09-.77.2-1.54.32-2.01.94-.21.22-.35.28-.58.17-.68-.38-1.51-.77-2.28-1.02-.32-.11-.92-.19-1.04-.6-.86-2.05.86-4.82,3.14-4.43,1.51.36,2.85.84,4.17,1.51.73.37,1.45.67,2.37.8.26.03.38.36.22.55h0Z"/>
      <path class="st7" d="M185.58,568.72c.53.72.35,1.67.32,2.47-.05.42-.05.78.36,1.01.18.09.27-.03.17-.24-.5-.79-1.44-.69-2.55-.3-.19.08-.39.12-.59.12-.72-.01-1.36-.18-1.84-.66-.7-.65-.84-2.06.06-2.47.62-.2,1.08-.3,1.62-.32.69.05,1.11.39,1.87.25.21-.07.45-.03.58.15h0Z"/>
      <path class="st7" d="M179.55,598.64c-3.89.99-7.54,3.06-9.63,6.29-4.14,6.29-3.15,15.49,3.39,19.7,5.66,4.32,14.47,3.12,18.22-2.87,4.33-5.84,3.05-13.39-1.54-18.5-2.6-2.77-6.35-3.93-10.16-4.61-.17-.03-.27-.19-.24-.36.02-.13.12-.22.24-.24,2.02-.5,4.19-.7,6.41-.45,7.17.75,12.48,7.19,13.86,14.06,2.04,9.84-6.64,19.6-16.24,20.19-13.76,1.14-23.79-12.83-17.2-25.27,2.38-4.92,7.51-7.87,12.77-8.51.37-.06.48.5.12.59h0Z"/>
      <path class="st7" d="M350.98,598.64c-5.63,1.73-10.95,5.45-11.98,11.41-1.59,7.93,3.93,17.45,12.63,17.14,4.37.14,8.58-1.79,11.01-5.45,1.19-1.65,2.12-3.54,2.47-5.54,1.3-6.34-2.23-13.39-8.18-16.01-1.69-.9-3.63-1.21-5.67-1.57-.31-.04-.33-.52-.03-.59,2.02-.55,4.24-.87,6.46-.48,12.62,1.94,18.28,18.49,9.6,27.88-7.77,9.33-24.37,8.6-29.52-3-3.94-8.06-1.38-18.71,7.17-22.48,1.9-.91,3.9-1.51,5.92-1.91.37-.07.5.47.15.58h0Z"/>
    </g>
    <path class="st7" d="M316.39,600.9c-3.06,9.59-6.23,19.14-9.58,28.63-1.12,3.17-2.25,6.33-3.27,9.54-.64,1.36-1.25,2.5-2.05,3.71-4.82,7.63-15.08,12.84-23.8,8.9-.27-.11-.24-.53.05-.58,1.2-.3,2.37-.37,3.52-.73,6.96-1.69,12.07-6.97,16.38-12.39.32-.41.66-.9.89-1.23l-.11.23c1.51-3,2.9-6.05,4.3-9.09,2.8-6.09,5.71-12.14,8.65-18.16,1.46-3.02,2.93-6.03,4.45-9.03.08-.15.26-.21.4-.13.13.07.19.22.15.36h0Z"/>
    <path class="st7" d="M220.01,600.67c4.49,9.01,8.88,18.06,13.1,27.2,1.41,3.04,2.8,6.09,4.3,9.09,0,0-.11-.23-.11-.23.23.34.58.82.89,1.23,4.31,5.42,9.42,10.7,16.38,12.39,1.63.61,6.48.55,1.8,1.97-9.1,2.84-18.78-3.27-23.05-11.21-.35-.63-.69-1.29-1.04-2.04-1.02-3.21-2.15-6.37-3.27-9.54-3.35-9.49-6.51-19.04-9.58-28.63-.05-.16.04-.33.2-.38.14-.04.29.02.36.15h0Z"/>
    <path class="st7" d="M271.05,625.79c.68,2.02,1.22,4.25,1.7,6.32.23,1.27.56,3,.98,4.22.56,2.45-.78,4.65-2.67,6.32-.18.14-.43.14-.6,0-.86-.7-1.38-1.41-1.82-2.11-.76-1.33-1.27-2.73-.85-4.22.2-.7.44-1.41.57-2.11.18-1.06.63-3.17.9-4.22.37-1.41.73-2.81,1.2-4.22.09-.28.52-.28.6,0h0Z"/>
    <path class="st7" d="M269.31,571.13c.68,3.49,1.22,7.37,1.69,10.9.22,2.16.56,5.16.98,7.27.52,3.83-.53,7.62-2.67,10.9-.77.94-2.24-3.21-2.42-3.63-.79-2.38-1.26-4.8-.85-7.27.2-1.21.44-2.42.57-3.63.18-1.81.63-5.46.9-7.27.37-2.42.73-4.85,1.2-7.27.05-.32.55-.32.6,0h0Z"/>
    <path class="st7" d="M224.09,572.61c5.7-4,12.28-6.7,19.04-8.35,3.43-.84,6.92-1.93,10.49-1.5,3.55.3,7.08,1.33,10.21,3.42.15.1.19.31.09.46-2.35,1.05-5.37,1.37-7.82,1.79,0,0-2.43.34-2.43.34-3.2.45-6.47-.04-9.76.24-6.61.57-13.23,1.88-19.52,4.13-.31.14-.59-.32-.3-.52h0Z"/>
    <path class="st7" d="M278.87,566.18c6.57-1.42,13.4-2.04,20.12-1.89,3.39.12,6.96-.18,10.27,1.1,1.65.6,3.3,1.36,4.76,2.35,1.53.98,2.9,2.23,3.98,3.71.11.15.07.36-.08.47-4.55.09-8.3-.39-12.41-1.09-3.08-.72-6.23-1.78-9.4-2.18-5.69-.88-11.42-1.52-17.19-1.86-.34,0-.4-.53-.06-.6h0Z"/>
    <g>
      <path class="st7" d="M283.19,520.31c6.08,6.07,12.31,12.14,18.11,18.42,0,0-1.6-.77-1.6-.77l4.12-.13s-1.94,3.81-1.94,3.81c-1.67-1.98-3.42-3.91-5.16-5.84-3.51-3.86-6.3-8.25-8.78-12.84-.24-.41-.42-.89-.68-1.29-.68-.99-2.03-1.48-3.25-1.33-.45.1-.4-.02-.82-.03h0ZM282.59,520.2c2.19-3.16,6.44-2.5,8.74.17,3.77,3.61,7.26,7.46,10.05,11.87,1.44,2.26,2.88,4.52,4.39,6.72,1.12,1.53-.22,3.81-2.08,3.61,0,0-4.11-.31-4.11-.31l-.22-.02c-.57-.04-1.06-.33-1.38-.75-1.32-1.72-2.61-3.46-3.9-5.21-3.79-5.07-7.95-10.99-11.51-16.09h0Z"/>
      <path class="st0" d="M290.99,529.85"/>
      <path class="st7" d="M291.7,531.14c.25.55.07.15.12.28-.17.28-.25.67-.15.97.12.36.41.55.72.42.01-.07.42.27.49.3,0,0,1,.79,1,.79.61.52,1.72.74,1.81,1.7.13.71-.07,1.64-.39,2.41-.27.44-.43,1.28-1.07,1.41-1.22.16-2.61.08-3.58-.56-.83-.48-.58-1.58-.81-2.35,0,0-.32-1.23-.32-1.23-.06-.29-.05-.39-.16-.71-.6-1.59.39-3.69,2.15-3.7.01,0,.03,0,.05,0,.06.12-.12-.27.13.27h0Z"/>
    </g>
    <g>
      <path class="st7" d="M229.43,518.89c6.08,6.07,12.31,12.14,18.11,18.42,0,0-1.6-.77-1.6-.77l4.12-.13-1.94,3.81c-1.67-1.98-3.42-3.9-5.16-5.84-3.51-3.86-6.3-8.25-8.78-12.84-.24-.41-.42-.89-.68-1.29-.68-.99-2.03-1.48-3.25-1.33-.45.1-.4-.02-.82-.03h0ZM228.84,518.79c2.19-3.16,6.44-2.5,8.74.17,3.77,3.61,7.26,7.46,10.05,11.87,1.44,2.26,2.88,4.52,4.39,6.72,1.12,1.53-.22,3.81-2.08,3.61,0,0-4.11-.31-4.11-.31,0,0-.22-.02-.22-.02-.57-.04-1.06-.33-1.38-.75-1.32-1.72-2.61-3.46-3.9-5.21-3.79-5.07-7.95-10.99-11.51-16.09h0Z"/>
      <path class="st0" d="M237.23,528.44"/>
      <path class="st7" d="M237.94,529.73c.25.55.07.15.12.28-.17.28-.25.67-.15.97.12.36.41.55.72.42.01-.07.42.27.49.3,0,0,1,.79,1,.79.61.52,1.72.74,1.81,1.7.13.71-.07,1.64-.39,2.41-.27.44-.43,1.28-1.07,1.41-1.22.16-2.61.08-3.58-.56-.83-.48-.58-1.58-.81-2.35,0,0-.32-1.23-.32-1.23-.06-.29-.05-.39-.16-.71-.6-1.59.39-3.69,2.15-3.7,0,0,.02,0,.02,0,0,0,.02,0,.02,0,.06.12-.12-.27.13.27h0Z"/>
    </g>
    <path class="st7" d="M187.61,611.13c-.01,1.89-.22,3.9-.43,5.76-.19,1.12-.43,2.65-.43,3.78-.2,2.24-2.47,3.6-4.5,4.17-.22.05-.44-.05-.56-.22-.49-.77-.82-1.54-1.02-2.37-.3-1.35-.33-2.67.54-3.74.41-.5.86-.98,1.2-1.51.51-.8,1.6-2.35,2.18-3.1.79-1.01,1.57-2.02,2.46-2.99.19-.22.57-.07.56.22h0Z"/>
    <path class="st7" d="M180.54,605.47c-.01,1.89-.22,3.9-.43,5.76-.19,1.12-.43,2.65-.43,3.78-.2,2.24-2.47,3.6-4.5,4.17-.22.05-.44-.05-.56-.22-.49-.77-.82-1.54-1.02-2.37-.3-1.35-.33-2.67.54-3.74.41-.5.86-.98,1.2-1.51.51-.8,1.6-2.35,2.18-3.1.79-1.01,1.57-2.02,2.46-2.99.19-.22.57-.07.56.22h0Z"/>
    <path class="st7" d="M358.79,611.13c-.01,1.89-.22,3.9-.43,5.76-.19,1.12-.43,2.65-.43,3.78-.2,2.24-2.47,3.6-4.5,4.17-.22.05-.44-.05-.56-.22-.49-.77-.82-1.54-1.02-2.37-.3-1.35-.33-2.67.54-3.74.41-.5.86-.98,1.2-1.51.51-.8,1.6-2.35,2.18-3.1.79-1.01,1.57-2.02,2.46-2.99.19-.22.57-.07.56.22h0Z"/>
    <path class="st7" d="M351.72,605.47c-.01,1.89-.22,3.9-.43,5.76-.19,1.12-.43,2.65-.43,3.78-.2,2.24-2.47,3.6-4.5,4.17-.22.05-.44-.05-.56-.22-.49-.77-.82-1.54-1.02-2.37-.3-1.35-.33-2.67.54-3.74.41-.5.86-.98,1.2-1.51.51-.8,1.6-2.35,2.18-3.1.79-1.01,1.57-2.02,2.46-2.99.19-.22.57-.07.56.22h0Z"/>
  </g>
  <g>
    <g>
      <g>
        <g>
          <path class="st7" d="M330.88,306.13c.48,18.28-.5,37.09-6.11,54.75-2.22,6.57-8.14,24.45-10.4,31.27-9.09,27.51-18.54,56.15-30.19,82.62,8.53-27.56,17.38-56.46,26.43-83.88,3.35-10.05,7.28-21.12,10.98-31.12,6.15-17.18,7.87-35.42,9.29-53.66h0Z"/>
          <path class="st7" d="M266.34,131.97c28.41,17.36,46.45,47.91,55.37,79.4,5.38,18.97,8.09,38.72,8.34,58.39-3.59-25.8-8.57-51.46-18.51-75.59-9.7-24.09-24.74-45.91-45.2-62.2h0Z"/>
          <path class="st7" d="M269.65,131.97c26.38,6.04,50.31,21.6,68.09,41.85,22.5,25.71,34.46,59.22,38.2,92.85.74,5.17,1.03,11.67,1.44,16.9.08,5.2.38,11.76.35,16.94-.58,24.88-5.52,50.28-18.05,72.03-22.51,35.32-46.16,72.66-69.02,107.76,0,0-7.38,11.27-7.38,11.27,3.43-5.87,10.31-17.33,13.79-23.14,13.45-22.54,28.27-46.9,41.87-69.14,4.68-7.65,9.36-15.36,14.1-22.94,5.05-7.32,8.78-15.34,11.73-23.68,7.42-20.92,9.75-43.47,8.73-65.57.02-3.75-.54-9.57-.76-13.35-.51-6.39-1.42-13.54-2.56-19.85-2.86-17.47-8.31-34.72-16.2-50.59-16.96-33.71-47.66-61.18-84.35-71.35h0Z"/>
          <path class="st7" d="M288.59,133.38c34.87,8.14,66.56,29.94,86.9,59.4,20.78,29.68,28.94,66.58,28.96,102.39,1.28,29.35-8.98,60.6-26.19,85.08-3.94,5.35-10.96,14.7-14.97,20.07-15.25,20.39-36.23,48.29-51.7,68.52-4.24,5.59-13.07,17.15-17.39,22.72,4.11-5.93,12.34-17.5,16.51-23.36,17.93-25.36,40.2-56.21,58.38-81.32,17.4-22.23,28.82-49.35,31.14-77.59,1.2-22.37-.59-44.92-6.04-66.61-4.82-19.2-13.27-37.64-25-53.62-19.75-26.67-48.6-46.77-80.6-55.68h0Z"/>
        </g>
        <g>
          <path class="st7" d="M261.16,131.97c-13.95,9.2-24.61,22.66-33.18,36.83-25.4,43.29-31.29,95.25-28.98,144.64,1.53,21.93,4.99,44.23,13.86,64.44,0,0,.05.11.05.11,0,0,.03.09.03.09l7.33,23.85c7.04,23.05,14.7,48.71,21.29,71.78-7.98-22.59-16.51-48-24.13-70.87,0,0-7.81-23.7-7.81-23.7,0,0,.08.2.08.2-9.4-20.63-13.02-43.23-14.66-65.63-2.41-49.97,4.23-102.84,31.24-145.96,9.18-13.94,20.35-27.26,34.89-35.77h0Z"/>
          <path class="st7" d="M257.84,131.97c-36.69,10.17-67.39,37.63-84.35,71.35-7.89,15.87-13.34,33.12-16.2,50.59-1.14,6.31-2.05,13.46-2.56,19.85-.21,3.8-.78,9.58-.76,13.35-1.02,22.1,1.31,44.64,8.73,65.57,2.95,8.35,6.69,16.36,11.73,23.68,4.74,7.58,9.42,15.28,14.1,22.94,13.58,22.2,28.46,46.69,41.87,69.14,3.42,5.65,10.42,17.43,13.79,23.14,0,0-7.38-11.27-7.38-11.27-22.86-35.11-46.51-72.43-69.02-107.76-12.52-21.75-17.47-47.14-18.05-72.03-.03-5.17.27-11.75.35-16.94.42-5.23.7-11.72,1.44-16.9,3.74-33.63,15.7-67.14,38.2-92.85,17.78-20.26,41.71-35.81,68.09-41.85h0Z"/>
          <path class="st7" d="M238.91,133.38c-32.01,8.91-60.86,29.02-80.6,55.68-11.72,15.98-20.18,34.42-25,53.62-5.46,21.69-7.24,44.23-6.04,66.61,2.32,28.23,13.73,55.35,31.14,77.59,18.17,25.08,40.46,56,58.38,81.32,4.09,5.7,12.47,17.59,16.51,23.36-4.39-5.73-13.07-16.97-17.39-22.72-15.48-20.29-36.45-48.08-51.7-68.52-4.08-5.42-11.01-14.76-14.97-20.07-17.2-24.47-27.47-55.74-26.19-85.08.02-35.81,8.18-72.71,28.96-102.39,20.34-29.46,52.04-51.25,86.9-59.4h0Z"/>
        </g>
      </g>
      <g>
        <g>
          <path class="st7" d="M292.31,491.56c5.54-11.03,12.1-21.42,18.94-31.65,6.92-10.18,14.09-20.16,22.26-29.42-5.53,11.04-12.1,21.42-18.94,31.65-6.93,10.17-14.1,20.15-22.26,29.42h0Z"/>
          <path class="st7" d="M282.91,492.34c3.27-9.37,7.64-18.21,12.3-26.93,4.74-8.67,9.75-17.16,15.81-25.03-3.27,9.38-7.63,18.21-12.3,26.93-4.75,8.67-9.76,17.16-15.81,25.03h0Z"/>
        </g>
        <g>
          <path class="st7" d="M226.99,491.13c-10.8-11.34-21.01-24.03-30.68-36.37-9.53-12.46-19.25-25.5-27.52-38.82,10.81,11.33,21.01,24.03,30.68,36.37,9.52,12.46,19.24,25.51,27.52,38.82h0Z"/>
          <path class="st7" d="M235.17,491.56c-8.16-9.27-15.33-19.24-22.26-29.42-6.85-10.23-13.41-20.61-18.94-31.65,8.17,9.26,15.34,19.24,22.26,29.42,6.84,10.24,13.41,20.62,18.94,31.65h0Z"/>
          <path class="st7" d="M244.58,492.34c-6.06-7.87-11.06-16.36-15.81-25.03-4.67-8.72-9.03-17.55-12.3-26.93,6.06,7.86,11.07,16.35,15.81,25.03,4.66,8.72,9.02,17.56,12.3,26.93h0Z"/>
        </g>
        <path class="st7" d="M91.5,319.37c44.9,55.23,88.22,112.87,128.72,171.4-44.92-55.22-88.2-112.88-128.72-171.4h0Z"/>
        <path class="st7" d="M417.41,355.4c-35.38,45.57-73.37,90-112.92,132,35.36-45.58,73.38-89.99,112.92-132h0Z"/>
      </g>
    </g>
    <g>
      <line class="st5" x1="220.21" y1="491.56" x2="307.55" y2="491.56"/>
      <g>
        <g>
          <path class="st0" d="M226.09,557.6"/>
          <path class="st0" d="M222.76,491.56"/>
          <path class="st0" d="M224.11,491.56"/>
          <path class="st0" d="M206.24,558.76"/>
          <path class="st0" d="M228.72,559.17"/>
        </g>
        <g>
          <path class="st0" d="M284.75,558.72"/>
          <path class="st0" d="M274.69,491.13"/>
          <path class="st0" d="M283.71,490.9"/>
          <path class="st0" d="M299.87,557.6"/>
          <path class="st0" d="M299.4,491.56"/>
          <path class="st0" d="M319.72,558.76"/>
          <path class="st0" d="M291.79,492.44"/>
          <path class="st0" d="M307.08,550.11"/>
          <path class="st0" d="M281.3,491.56"/>
          <path class="st0" d="M297.24,559.17"/>
        </g>
        <path class="st0" d="M273.59,496.91"/>
        <path class="st0" d="M283.15,558.81"/>
      </g>
    </g>
  </g>
  <g>
    <path class="st7" d="M237.01,681.09c-.06.16-.22.24-.46.25-.24,0-.5-.09-.77-.3-.19-.19-.32-.34-.37-.45-.06-.1-.03-.28.08-.53.11-.25.3-.69.58-1.31.06-.38.18-.77.34-1.17.16-.39.28-.67.36-.83.06-.22.2-.6.4-1.12.2-.52.43-1.1.7-1.74.27-.64.52-1.25.76-1.82.24-.57.42-1,.53-1.29.27-.64.55-1.31.84-2.02.29-.71.68-1.6,1.18-2.67.06-.16.08-.33.05-.51-.03-.18-.18-.26-.46-.26-.16-.18-.25-.36-.26-.54s.06-.32.24-.4l1.59-.6c.75-.18,1.53-.23,2.32-.16.79.07,1.54.29,2.25.66.77.45,1.32.92,1.65,1.41.33.49.5.98.52,1.48.02.5-.06.97-.24,1.42-.13.34-.37.71-.73,1.11-.36.4-.78.8-1.25,1.2-.47.4-.96.77-1.47,1.09-.51.33-.97.58-1.41.76-.4.19-.83.37-1.27.53-.45.16-.91.31-1.37.46-.26.06-.56.1-.91.1s-.62-.03-.79-.1l-.41,1.01c-.16.58-.44,1.43-.83,2.57-.39,1.14-.85,2.39-1.36,3.75ZM246.56,681.43c-.13.05-.3.06-.52.05-.22-.02-.51-.14-.88-.38-.71-.42-1.41-.92-2.12-1.51-.71-.59-1.5-1.4-2.38-2.41-.34-.4-.61-.78-.82-1.14-.21-.36-.44-.85-.7-1.46l-.34-1.3.75-.43.91.87c.26.56.58,1.1.97,1.61.39.51.77.97,1.12,1.37.29.34.68.74,1.18,1.21.5.47,1.03.93,1.59,1.36.56.43,1.07.76,1.52.99.1.08.12.21.08.4-.04.18-.1.36-.17.52-.07.16-.14.25-.2.26ZM240.41,672.31c.37-.03.79-.13,1.26-.29.47-.16.96-.34,1.46-.55.47-.22.95-.48,1.46-.78.5-.3.97-.63,1.4-.99.42-.36.77-.74,1.02-1.14.26-.4.37-.81.34-1.23,0-.21-.08-.43-.23-.66-.15-.23-.34-.44-.55-.64-.22-.19-.43-.32-.64-.38-.64-.16-1.15-.26-1.54-.3-.38-.04-.68,0-.88.11-.2.11-.34.33-.42.65,0,.05-.06.2-.19.47-.13.26-.28.6-.47,1-.18.4-.37.83-.54,1.27-.47.95-.81,1.66-1.05,2.13-.23.47-.38.8-.43.97-.06.18-.05.3.01.36Z"/>
    <path class="st7" d="M248.65,684.43c-.35.35-.81.52-1.36.52-.55,0-1.02-.21-1.41-.61-.26-.37-.44-.75-.55-1.14-.11-.39-.15-.73-.12-1.01.03-.28.14-.42.34-.42.08,0,.17.03.25.08.09.06.17.13.25.22.08.09.12.2.12.32,0,.24.04.45.13.64.09.18.24.28.45.3.18.06.39.02.65-.12s.47-.36.65-.65c.16-.21.35-.54.58-.99.22-.45.45-.92.66-1.41.22-.49.38-.89.49-1.19.19-.66.36-1.33.49-2.01.14-.68.28-1.41.44-2.2.06-.43.14-.81.23-1.12s.13-.5.13-.57,0-.2.02-.4c.02-.2.06-.38.14-.54,0-.24.03-.47.08-.7.06-.22.08-.37.08-.43.05-.05.12-.06.23-.04s.22.06.35.12c.13.06.23.12.31.2.13.13.22.26.28.4.06.14.08.35.08.64s-.04.75-.12,1.37c0,.1-.02.29-.07.59-.05.3-.11.63-.19,1-.08.37-.16.73-.24,1.07s-.14.63-.19.85c-.06.24-.14.51-.22.79-.08.29-.13.49-.14.6-.02.1-.07.28-.17.57-.1.28-.2.56-.3.83-.1.27-.16.47-.18.58-.02.06-.06.22-.13.46-.07.24-.22.61-.44,1.11-.08.19-.22.45-.43.77-.21.32-.42.63-.64.91-.22.29-.4.49-.54.6ZM252.36,668.06c-.18-.21-.23-.5-.17-.88.06-.38.22-.73.48-1.07.21-.24.45-.38.73-.41.28-.03.53.04.73.22.18.27.27.51.29.71.02.2-.06.43-.24.69-.4.45-.75.73-1.06.84-.3.11-.56.08-.77-.1Z"/>
    <path class="st7" d="M255.99,679.21c-.06-.03-.16-.1-.29-.2-.13-.1-.26-.23-.38-.37-.13-.14-.22-.26-.26-.36-.05-.08-.04-.22.01-.43.06-.21.12-.31.18-.31.05.03.12-.02.22-.17.1-.14.2-.3.3-.47.1-.17.16-.27.16-.3.02-.06.06-.12.13-.16.07-.04.14-.08.2-.13.08-.13.19-.26.32-.4.14-.14.24-.25.32-.35.13-.16.36-.4.7-.72.34-.32.67-.65.99-.99.34-.37.63-.69.89-.97.26-.28.39-.48.41-.59.11-.11.21-.19.29-.24.08-.05.19-.13.32-.24.14-.11.25-.22.35-.31.03-.13.12-.3.27-.51.14-.21.3-.39.46-.55.13-.19.25-.4.36-.64.11-.23.18-.4.22-.52.05-.18.04-.28-.02-.32-.06-.04-.27-.12-.63-.23-.38-.13-.79-.17-1.2-.13-.42.04-.91.26-1.47.66-.22.05-.43.11-.61.19-.18.08-.34.11-.47.1-.06-.03-.14-.1-.22-.22-.08-.11-.17-.22-.26-.31l-.24-.67.75-.41c.66-.42,1.27-.72,1.83-.9.56-.18,1.07-.2,1.52-.06.18,0,.41.04.7.12.13-.02.3.05.51.2.21.15.42.34.63.57.21.22.36.45.46.67.26.38.34.81.26,1.27-.08.47-.32.99-.72,1.59-.08.1-.26.3-.53.6-.27.3-.58.65-.93,1.02-.34.38-.66.71-.94,1s-.46.47-.54.55c-.11.05-.3.21-.57.48s-.55.57-.84.89c-.3.32-.55.61-.75.85-.2.25-.29.37-.25.37-.02.06.03.08.13.05.1-.03.23-.07.37-.12.24-.08.54-.16.91-.24.37-.08.75-.14,1.14-.19.39-.05.73-.08,1.02-.1.29-.02.46,0,.5.05.03.08.07.1.12.05.03-.11.24-.14.61-.1s.72.12,1.02.22c.18.05.32.1.42.14s.16.1.16.17c.08.14.17.27.26.38.26.21.28.37.07.49-.21.12-.63.12-1.27.01-.42,0-.76.02-1.03.07-.06.03-.2.05-.41.05s-.41,0-.6.02c-.29-.03-.58-.02-.87.04-.29.06-.63.15-1.03.28-.14.05-.37.12-.67.22-.3.1-.63.19-.99.29-.35.1-.67.17-.95.22s-.46.06-.54.05Z"/>
    <path class="st7" d="M269.79,679.29c-.11,0-.29-.05-.54-.14-.25-.1-.51-.22-.79-.36-.28-.14-.5-.29-.66-.43-.42-.37-.75-.81-.99-1.32-.24-.51-.4-1.05-.48-1.62-.08-.57-.08-1.11,0-1.62.18-1.03.56-2.04,1.14-3.05s1.26-1.84,2.03-2.5c.42-.37.81-.66,1.18-.88.37-.22.79-.38,1.27-.49.18-.05.39-.08.64-.08.25,0,.43-.01.54-.01.32,0,.65.06,1,.19.34.13.64.28.88.47.24.18.36.36.36.52,0,.11,0,.2-.02.28-.02.07-.09.08-.22.01h-.24l.24.72c.06.13.12.3.17.52.05.22.07.41.07.59,0,.14-.02.37-.06.69-.04.31-.1.65-.18,1-.08.35-.16.68-.24.99-.08.3-.15.53-.22.67-.05.1-.08.19-.08.28,0,.09-.01.16-.01.23-.06.11-.16.33-.3.65-.14.32-.24.55-.3.67-.06.06-.12.12-.16.17-.04.05-.03.1.04.17,0,.05-.04.16-.12.32-.08.17-.17.32-.25.47-.09.14-.16.22-.2.22-.08.02-.12.05-.12.1,0,.06-.1.23-.31.49-.21.26-.46.54-.75.83-.16.16-.39.35-.7.55-.3.21-.61.38-.9.53-.3.14-.53.22-.71.22ZM269.75,677.51c.18,0,.34-.03.5-.08s.3-.14.41-.25c.29-.19.6-.49.95-.89.34-.4.61-.81.78-1.23.18-.24.32-.49.42-.76.1-.26.27-.72.49-1.36.13-.18.22-.39.26-.65.05-.26.07-.47.07-.65s0-.42.01-.72c0-.3.04-.56.11-.77,0-.42,0-.68-.02-.79-.02-.11-.08-.23-.19-.36-.06-.05-.15-.1-.25-.14-.1-.05-.21-.07-.33-.07s-.3.05-.57.14c-.26.1-.46.18-.59.26-.11.06-.24.07-.37.02s-.2-.11-.2-.19c0-.22-.13-.23-.4-.02-.26.21-.57.53-.93.96-.29.29-.53.58-.73.88-.2.3-.3.48-.3.54s-.02.14-.07.24c-.05.1-.1.21-.14.34-.08.11-.18.3-.29.55-.11.26-.22.51-.33.76-.1.25-.17.44-.2.57v1.3c0,.27,0,.49.02.66s.05.31.1.43c.05.12.11.26.19.42.06.11.16.24.3.4.14.15.23.26.28.32.18.16.31.24.41.24s.3-.03.6-.1Z"/>
    <path class="st7" d="M277.63,679.21c-.06-.03-.16-.1-.29-.2-.13-.1-.26-.23-.38-.37-.13-.14-.22-.26-.26-.36-.05-.08-.04-.22.01-.43.06-.21.12-.31.18-.31.05.03.12-.02.22-.17.1-.14.2-.3.3-.47.1-.17.16-.27.16-.3.02-.06.06-.12.13-.16.07-.04.14-.08.2-.13.08-.13.19-.26.32-.4.14-.14.24-.25.32-.35.13-.16.36-.4.7-.72.34-.32.67-.65.99-.99.34-.37.63-.69.89-.97.26-.28.39-.48.41-.59.11-.11.21-.19.29-.24.08-.05.19-.13.32-.24.14-.11.25-.22.35-.31.03-.13.12-.3.27-.51.14-.21.3-.39.46-.55.13-.19.25-.4.36-.64.11-.23.18-.4.22-.52.05-.18.04-.28-.02-.32-.06-.04-.27-.12-.63-.23-.38-.13-.79-.17-1.2-.13-.42.04-.91.26-1.47.66-.22.05-.43.11-.61.19-.18.08-.34.11-.47.1-.06-.03-.14-.1-.22-.22-.08-.11-.17-.22-.26-.31l-.24-.67.75-.41c.66-.42,1.27-.72,1.83-.9.56-.18,1.07-.2,1.52-.06.18,0,.41.04.7.12.13-.02.3.05.51.2.21.15.42.34.63.57.21.22.36.45.46.67.26.38.34.81.26,1.27-.08.47-.32.99-.72,1.59-.08.1-.26.3-.53.6-.27.3-.58.65-.93,1.02-.34.38-.66.71-.94,1s-.46.47-.54.55c-.11.05-.3.21-.57.48s-.55.57-.84.89c-.3.32-.55.61-.75.85-.2.25-.29.37-.25.37-.02.06.03.08.13.05.1-.03.23-.07.37-.12.24-.08.54-.16.91-.24.37-.08.75-.14,1.14-.19.39-.05.73-.08,1.02-.1.29-.02.46,0,.5.05.03.08.07.1.12.05.03-.11.24-.14.61-.1s.72.12,1.02.22c.18.05.32.1.42.14s.16.1.16.17c.08.14.17.27.26.38.26.21.28.37.07.49-.21.12-.63.12-1.27.01-.42,0-.76.02-1.03.07-.06.03-.2.05-.41.05s-.41,0-.6.02c-.29-.03-.58-.02-.87.04-.29.06-.63.15-1.03.28-.14.05-.37.12-.67.22-.3.1-.63.19-.99.29-.35.1-.67.17-.95.22s-.46.06-.54.05Z"/>
    <path class="st7" d="M288.65,679.14c-.29-.21-.43-.38-.43-.53-.06-.1-.14-.14-.22-.14-.05.02-.09-.04-.13-.18-.04-.14-.07-.29-.1-.46-.02-.17-.03-.28-.01-.35.06-.13.17-.21.32-.25.15-.04.3-.04.43,0,.14.04.21.12.23.25.03.13.16.23.37.31.22.08.5.11.85.1.45-.02.9-.12,1.36-.3.46-.18.88-.42,1.26-.71.39-.29.71-.6.96-.94.11-.22.22-.52.31-.89.1-.37.16-.7.19-.99.03-.29,0-.43-.07-.43-.05-.22-.1-.4-.14-.53-.08-.24-.26-.48-.55-.73-.29-.25-.57-.43-.84-.54-.11-.03-.32-.05-.64-.06-.31,0-.59,0-.83.04-.26.02-.54,0-.84-.02-.08-.02-.2-.09-.36-.22-.16-.13-.31-.26-.45-.4-.14-.14-.2-.24-.2-.32.03-.11.12-.3.25-.55.14-.26.3-.54.49-.85.19-.31.4-.61.61-.9s.42-.53.61-.72c.48-.53,1.04-.93,1.67-1.19.63-.26,1.28-.38,1.94-.35.47.02.8.06,1.01.13.21.07.41.24.6.49.13.22.18.43.17.63s-.08.33-.2.42c-.12.09-.28.08-.47-.01-.22-.14-.53-.2-.93-.17-.39.03-.81.11-1.24.24-.34.13-.67.3-.99.52-.32.22-.52.41-.6.59-.06.05-.11.1-.13.14s-.07.06-.13.05c-.1.11-.14.2-.14.26-.08.1-.13.16-.16.2-.02.04-.07.03-.13-.04,0,.1,0,.18-.02.24-.02.11,0,.2.06.26.06.06.24.11.54.14.4.06.71.12.91.18.21.06.51.2.91.45.45.26.8.61,1.06,1.06.26.45.42.95.5,1.5.08.55.08,1.1,0,1.65-.05.35-.1.63-.14.82-.05.19-.18.46-.41.79-.37.51-.83.97-1.37,1.36-.55.39-1.12.7-1.72.91s-1.17.34-1.71.36c-.54.02-.98-.08-1.33-.32Z"/>
  </g>
  <g>
    <path class="st1" d="M158.07,189.05c.05-.21,1.73-.8,4.77-1.69"/>
    <path class="st3" d="M172.66,184.7c49.58-12.76,209.85-46.78,233.26-16.18,27.71,36.24-328.29,110.85-318.7,142.83,8.54,28.48,252.2,37.51,305.33,39.15"/>
    <path class="st1" d="M397.64,350.65c3.3.09,5.08.14,5.08.14"/>
  </g>
  <path class="st7" d="M204.18,334.16c-1.01,3.81-.24,8.54-4.54,10.73-2.08,1.06-10.03-5.87-11.01-9.09-.34-1.11-.48-2.12.56-2.85,1.2-.85,2.55-.4,3.5.29,2.97,2.17,5.22,2.5,6.77-1.57.44-1.15,1.76-1.9,3.12-1.19,1.44.75,1.61,2.22,1.61,3.69Z"/>
  <path class="st7" d="M308.7,221.49c-1.12,4.21-.27,9.44-5.02,11.85-2.3,1.17-11.08-6.49-12.17-10.05-.37-1.22-.53-2.34.61-3.15,1.33-.94,2.82-.44,3.87.32,3.28,2.4,5.77,2.76,7.48-1.73.48-1.27,1.94-2.1,3.45-1.32,1.59.83,1.78,2.46,1.78,4.08Z"/>
  <path class="st7" d="M92.51,305.06c-1.01,3.81-.24,8.54-4.54,10.73-2.08,1.06-10.03-5.87-11.01-9.1-.34-1.11-.48-2.12.56-2.85,1.2-.85,2.55-.4,3.5.29,2.97,2.17,5.22,2.5,6.77-1.57.44-1.15,1.76-1.9,3.12-1.19,1.44.75,1.61,2.22,1.61,3.69Z"/>
</svg>